<?xml version="1.0" encoding="utf-8" standalone="no"?>
<!DOCTYPE svg PUBLIC "-//W3C//DTD SVG 1.1//EN"
  "http://www.w3.org/Graphics/SVG/1.1/DTD/svg11.dtd">
<svg xmlns:xlink="http://www.w3.org/1999/xlink" width="720pt" height="432pt" viewBox="0 0 720 432" xmlns="http://www.w3.org/2000/svg" version="1.1">
 <metadata>
  <rdf:RDF xmlns:dc="http://purl.org/dc/elements/1.1/" xmlns:cc="http://creativecommons.org/ns#" xmlns:rdf="http://www.w3.org/1999/02/22-rdf-syntax-ns#">
   <cc:Work>
    <dc:type rdf:resource="http://purl.org/dc/dcmitype/StillImage"/>
    <dc:date>2025-02-04T21:50:30.176601</dc:date>
    <dc:format>image/svg+xml</dc:format>
    <dc:creator>
     <cc:Agent>
      <dc:title>Matplotlib v3.10.0, https://matplotlib.org/</dc:title>
     </cc:Agent>
    </dc:creator>
   </cc:Work>
  </rdf:RDF>
 </metadata>
 <defs>
  <style type="text/css">*{stroke-linejoin: round; stroke-linecap: butt}</style>
 </defs>
 <g id="figure_1">
  <g id="patch_1">
   <path d="M 0 432 
L 720 432 
L 720 0 
L 0 0 
z
" style="fill: #ffffff"/>
  </g>
  <g id="axes_1">
   <g id="patch_2">
    <path d="M 50.87 319.93 
L 709.2 319.93 
L 709.2 26.88 
L 50.87 26.88 
z
" style="fill: #ffffff"/>
   </g>
   <g id="patch_3">
    <path d="M 80.794091 319.93 
L 96.339073 319.93 
L 96.339073 319.93 
L 80.794091 319.93 
z
" clip-path="url(#p04b4906d29)" style="fill: #1f77b4"/>
   </g>
   <g id="patch_4">
    <path d="M 100.225319 319.93 
L 115.770301 319.93 
L 115.770301 319.93 
L 100.225319 319.93 
z
" clip-path="url(#p04b4906d29)" style="fill: #1f77b4"/>
   </g>
   <g id="patch_5">
    <path d="M 119.656547 319.93 
L 135.201529 319.93 
L 135.201529 319.93 
L 119.656547 319.93 
z
" clip-path="url(#p04b4906d29)" style="fill: #1f77b4"/>
   </g>
   <g id="patch_6">
    <path d="M 139.087774 319.93 
L 154.632757 319.93 
L 154.632757 306.847411 
L 139.087774 306.847411 
z
" clip-path="url(#p04b4906d29)" style="fill: #1f77b4"/>
   </g>
   <g id="patch_7">
    <path d="M 158.519002 319.93 
L 174.063985 319.93 
L 174.063985 313.388705 
L 158.519002 313.388705 
z
" clip-path="url(#p04b4906d29)" style="fill: #1f77b4"/>
   </g>
   <g id="patch_8">
    <path d="M 177.95023 319.93 
L 193.495213 319.93 
L 193.495213 319.93 
L 177.95023 319.93 
z
" clip-path="url(#p04b4906d29)" style="fill: #1f77b4"/>
   </g>
   <g id="patch_9">
    <path d="M 197.381458 319.93 
L 212.92644 319.93 
L 212.92644 317.749568 
L 197.381458 317.749568 
z
" clip-path="url(#p04b4906d29)" style="fill: #1f77b4"/>
   </g>
   <g id="patch_10">
    <path d="M 216.812686 319.93 
L 232.357668 319.93 
L 232.357668 313.388705 
L 216.812686 313.388705 
z
" clip-path="url(#p04b4906d29)" style="fill: #1f77b4"/>
   </g>
   <g id="patch_11">
    <path d="M 236.243914 319.93 
L 251.788896 319.93 
L 251.788896 313.388705 
L 236.243914 313.388705 
z
" clip-path="url(#p04b4906d29)" style="fill: #1f77b4"/>
   </g>
   <g id="patch_12">
    <path d="M 255.675142 319.93 
L 271.220124 319.93 
L 271.220124 317.749568 
L 255.675142 317.749568 
z
" clip-path="url(#p04b4906d29)" style="fill: #1f77b4"/>
   </g>
   <g id="patch_13">
    <path d="M 275.10637 319.93 
L 290.651352 319.93 
L 290.651352 256.697485 
L 275.10637 256.697485 
z
" clip-path="url(#p04b4906d29)" style="fill: #1f77b4"/>
   </g>
   <g id="patch_14">
    <path d="M 294.537597 319.93 
L 310.08258 319.93 
L 310.08258 319.93 
L 294.537597 319.93 
z
" clip-path="url(#p04b4906d29)" style="fill: #1f77b4"/>
   </g>
   <g id="patch_15">
    <path d="M 313.968825 319.93 
L 329.513808 319.93 
L 329.513808 317.749568 
L 313.968825 317.749568 
z
" clip-path="url(#p04b4906d29)" style="fill: #1f77b4"/>
   </g>
   <g id="patch_16">
    <path d="M 333.400053 319.93 
L 348.945035 319.93 
L 348.945035 317.749568 
L 333.400053 317.749568 
z
" clip-path="url(#p04b4906d29)" style="fill: #1f77b4"/>
   </g>
   <g id="patch_17">
    <path d="M 352.831281 319.93 
L 368.376263 319.93 
L 368.376263 315.569137 
L 352.831281 315.569137 
z
" clip-path="url(#p04b4906d29)" style="fill: #1f77b4"/>
   </g>
   <g id="patch_18">
    <path d="M 372.262509 319.93 
L 387.807491 319.93 
L 387.807491 319.93 
L 372.262509 319.93 
z
" clip-path="url(#p04b4906d29)" style="fill: #1f77b4"/>
   </g>
   <g id="patch_19">
    <path d="M 391.693737 319.93 
L 407.238719 319.93 
L 407.238719 319.93 
L 391.693737 319.93 
z
" clip-path="url(#p04b4906d29)" style="fill: #1f77b4"/>
   </g>
   <g id="patch_20">
    <path d="M 411.124965 319.93 
L 426.669947 319.93 
L 426.669947 319.93 
L 411.124965 319.93 
z
" clip-path="url(#p04b4906d29)" style="fill: #1f77b4"/>
   </g>
   <g id="patch_21">
    <path d="M 430.556192 319.93 
L 446.101175 319.93 
L 446.101175 289.403958 
L 430.556192 289.403958 
z
" clip-path="url(#p04b4906d29)" style="fill: #1f77b4"/>
   </g>
   <g id="patch_22">
    <path d="M 449.98742 319.93 
L 465.532403 319.93 
L 465.532403 317.749568 
L 449.98742 317.749568 
z
" clip-path="url(#p04b4906d29)" style="fill: #1f77b4"/>
   </g>
   <g id="patch_23">
    <path d="M 469.418648 319.93 
L 484.96363 319.93 
L 484.96363 319.93 
L 469.418648 319.93 
z
" clip-path="url(#p04b4906d29)" style="fill: #1f77b4"/>
   </g>
   <g id="patch_24">
    <path d="M 488.849876 319.93 
L 504.394858 319.93 
L 504.394858 317.749568 
L 488.849876 317.749568 
z
" clip-path="url(#p04b4906d29)" style="fill: #1f77b4"/>
   </g>
   <g id="patch_25">
    <path d="M 508.281104 319.93 
L 523.826086 319.93 
L 523.826086 319.93 
L 508.281104 319.93 
z
" clip-path="url(#p04b4906d29)" style="fill: #1f77b4"/>
   </g>
   <g id="patch_26">
    <path d="M 527.712332 319.93 
L 543.257314 319.93 
L 543.257314 319.93 
L 527.712332 319.93 
z
" clip-path="url(#p04b4906d29)" style="fill: #1f77b4"/>
   </g>
   <g id="patch_27">
    <path d="M 547.14356 319.93 
L 562.688542 319.93 
L 562.688542 319.93 
L 547.14356 319.93 
z
" clip-path="url(#p04b4906d29)" style="fill: #1f77b4"/>
   </g>
   <g id="patch_28">
    <path d="M 566.574787 319.93 
L 582.11977 319.93 
L 582.11977 319.93 
L 566.574787 319.93 
z
" clip-path="url(#p04b4906d29)" style="fill: #1f77b4"/>
   </g>
   <g id="patch_29">
    <path d="M 586.006015 319.93 
L 601.550998 319.93 
L 601.550998 306.847411 
L 586.006015 306.847411 
z
" clip-path="url(#p04b4906d29)" style="fill: #1f77b4"/>
   </g>
   <g id="patch_30">
    <path d="M 605.437243 319.93 
L 620.982226 319.93 
L 620.982226 313.388705 
L 605.437243 313.388705 
z
" clip-path="url(#p04b4906d29)" style="fill: #1f77b4"/>
   </g>
   <g id="patch_31">
    <path d="M 624.868471 319.93 
L 640.413453 319.93 
L 640.413453 319.93 
L 624.868471 319.93 
z
" clip-path="url(#p04b4906d29)" style="fill: #1f77b4"/>
   </g>
   <g id="patch_32">
    <path d="M 644.299699 319.93 
L 659.844681 319.93 
L 659.844681 319.93 
L 644.299699 319.93 
z
" clip-path="url(#p04b4906d29)" style="fill: #1f77b4"/>
   </g>
   <g id="patch_33">
    <path d="M 663.730927 319.93 
L 679.275909 319.93 
L 679.275909 136.77375 
L 663.730927 136.77375 
z
" clip-path="url(#p04b4906d29)" style="fill: #1f77b4"/>
   </g>
   <g id="patch_34">
    <path d="M 80.794091 319.93 
L 96.339073 319.93 
L 96.339073 285.043095 
L 80.794091 285.043095 
z
" clip-path="url(#p04b4906d29)" style="fill: #ff7f0e"/>
   </g>
   <g id="patch_35">
    <path d="M 100.225319 319.93 
L 115.770301 319.93 
L 115.770301 317.749568 
L 100.225319 317.749568 
z
" clip-path="url(#p04b4906d29)" style="fill: #ff7f0e"/>
   </g>
   <g id="patch_36">
    <path d="M 119.656547 319.93 
L 135.201529 319.93 
L 135.201529 313.388705 
L 119.656547 313.388705 
z
" clip-path="url(#p04b4906d29)" style="fill: #ff7f0e"/>
   </g>
   <g id="patch_37">
    <path d="M 139.087774 306.847411 
L 154.632757 306.847411 
L 154.632757 243.614896 
L 139.087774 243.614896 
z
" clip-path="url(#p04b4906d29)" style="fill: #ff7f0e"/>
   </g>
   <g id="patch_38">
    <path d="M 158.519002 313.388705 
L 174.063985 313.388705 
L 174.063985 306.847411 
L 158.519002 306.847411 
z
" clip-path="url(#p04b4906d29)" style="fill: #ff7f0e"/>
   </g>
   <g id="patch_39">
    <path d="M 177.95023 319.93 
L 193.495213 319.93 
L 193.495213 317.749568 
L 177.95023 317.749568 
z
" clip-path="url(#p04b4906d29)" style="fill: #ff7f0e"/>
   </g>
   <g id="patch_40">
    <path d="M 197.381458 317.749568 
L 212.92644 317.749568 
L 212.92644 317.749568 
L 197.381458 317.749568 
z
" clip-path="url(#p04b4906d29)" style="fill: #ff7f0e"/>
   </g>
   <g id="patch_41">
    <path d="M 216.812686 313.388705 
L 232.357668 313.388705 
L 232.357668 311.208274 
L 216.812686 311.208274 
z
" clip-path="url(#p04b4906d29)" style="fill: #ff7f0e"/>
   </g>
   <g id="patch_42">
    <path d="M 236.243914 313.388705 
L 251.788896 313.388705 
L 251.788896 313.388705 
L 236.243914 313.388705 
z
" clip-path="url(#p04b4906d29)" style="fill: #ff7f0e"/>
   </g>
   <g id="patch_43">
    <path d="M 255.675142 317.749568 
L 271.220124 317.749568 
L 271.220124 302.486548 
L 255.675142 302.486548 
z
" clip-path="url(#p04b4906d29)" style="fill: #ff7f0e"/>
   </g>
   <g id="patch_44">
    <path d="M 275.10637 256.697485 
L 290.651352 256.697485 
L 290.651352 167.299792 
L 275.10637 167.299792 
z
" clip-path="url(#p04b4906d29)" style="fill: #ff7f0e"/>
   </g>
   <g id="patch_45">
    <path d="M 294.537597 319.93 
L 310.08258 319.93 
L 310.08258 315.569137 
L 294.537597 315.569137 
z
" clip-path="url(#p04b4906d29)" style="fill: #ff7f0e"/>
   </g>
   <g id="patch_46">
    <path d="M 313.968825 317.749568 
L 329.513808 317.749568 
L 329.513808 313.388705 
L 313.968825 313.388705 
z
" clip-path="url(#p04b4906d29)" style="fill: #ff7f0e"/>
   </g>
   <g id="patch_47">
    <path d="M 333.400053 317.749568 
L 348.945035 317.749568 
L 348.945035 317.749568 
L 333.400053 317.749568 
z
" clip-path="url(#p04b4906d29)" style="fill: #ff7f0e"/>
   </g>
   <g id="patch_48">
    <path d="M 352.831281 315.569137 
L 368.376263 315.569137 
L 368.376263 298.125685 
L 352.831281 298.125685 
z
" clip-path="url(#p04b4906d29)" style="fill: #ff7f0e"/>
   </g>
   <g id="patch_49">
    <path d="M 372.262509 319.93 
L 387.807491 319.93 
L 387.807491 315.569137 
L 372.262509 315.569137 
z
" clip-path="url(#p04b4906d29)" style="fill: #ff7f0e"/>
   </g>
   <g id="patch_50">
    <path d="M 391.693737 319.93 
L 407.238719 319.93 
L 407.238719 317.749568 
L 391.693737 317.749568 
z
" clip-path="url(#p04b4906d29)" style="fill: #ff7f0e"/>
   </g>
   <g id="patch_51">
    <path d="M 411.124965 319.93 
L 426.669947 319.93 
L 426.669947 317.749568 
L 411.124965 317.749568 
z
" clip-path="url(#p04b4906d29)" style="fill: #ff7f0e"/>
   </g>
   <g id="patch_52">
    <path d="M 430.556192 289.403958 
L 446.101175 289.403958 
L 446.101175 289.403958 
L 430.556192 289.403958 
z
" clip-path="url(#p04b4906d29)" style="fill: #ff7f0e"/>
   </g>
   <g id="patch_53">
    <path d="M 449.98742 317.749568 
L 465.532403 317.749568 
L 465.532403 317.749568 
L 449.98742 317.749568 
z
" clip-path="url(#p04b4906d29)" style="fill: #ff7f0e"/>
   </g>
   <g id="patch_54">
    <path d="M 469.418648 319.93 
L 484.96363 319.93 
L 484.96363 309.027842 
L 469.418648 309.027842 
z
" clip-path="url(#p04b4906d29)" style="fill: #ff7f0e"/>
   </g>
   <g id="patch_55">
    <path d="M 488.849876 317.749568 
L 504.394858 317.749568 
L 504.394858 313.388705 
L 488.849876 313.388705 
z
" clip-path="url(#p04b4906d29)" style="fill: #ff7f0e"/>
   </g>
   <g id="patch_56">
    <path d="M 508.281104 319.93 
L 523.826086 319.93 
L 523.826086 309.027842 
L 508.281104 309.027842 
z
" clip-path="url(#p04b4906d29)" style="fill: #ff7f0e"/>
   </g>
   <g id="patch_57">
    <path d="M 527.712332 319.93 
L 543.257314 319.93 
L 543.257314 317.749568 
L 527.712332 317.749568 
z
" clip-path="url(#p04b4906d29)" style="fill: #ff7f0e"/>
   </g>
   <g id="patch_58">
    <path d="M 547.14356 319.93 
L 562.688542 319.93 
L 562.688542 315.569137 
L 547.14356 315.569137 
z
" clip-path="url(#p04b4906d29)" style="fill: #ff7f0e"/>
   </g>
   <g id="patch_59">
    <path d="M 566.574787 319.93 
L 582.11977 319.93 
L 582.11977 295.945253 
L 566.574787 295.945253 
z
" clip-path="url(#p04b4906d29)" style="fill: #ff7f0e"/>
   </g>
   <g id="patch_60">
    <path d="M 586.006015 306.847411 
L 601.550998 306.847411 
L 601.550998 293.764821 
L 586.006015 293.764821 
z
" clip-path="url(#p04b4906d29)" style="fill: #ff7f0e"/>
   </g>
   <g id="patch_61">
    <path d="M 605.437243 313.388705 
L 620.982226 313.388705 
L 620.982226 306.847411 
L 605.437243 306.847411 
z
" clip-path="url(#p04b4906d29)" style="fill: #ff7f0e"/>
   </g>
   <g id="patch_62">
    <path d="M 624.868471 319.93 
L 640.413453 319.93 
L 640.413453 311.208274 
L 624.868471 311.208274 
z
" clip-path="url(#p04b4906d29)" style="fill: #ff7f0e"/>
   </g>
   <g id="patch_63">
    <path d="M 644.299699 319.93 
L 659.844681 319.93 
L 659.844681 317.749568 
L 644.299699 317.749568 
z
" clip-path="url(#p04b4906d29)" style="fill: #ff7f0e"/>
   </g>
   <g id="patch_64">
    <path d="M 663.730927 136.77375 
L 679.275909 136.77375 
L 679.275909 40.834762 
L 663.730927 40.834762 
z
" clip-path="url(#p04b4906d29)" style="fill: #ff7f0e"/>
   </g>
   <g id="matplotlib.axis_1">
    <g id="xtick_1">
     <g id="line2d_1">
      <defs>
       <path id="m95fd3a7ad7" d="M 0 0 
L 0 3.5 
" style="stroke: #000000; stroke-width: 0.8"/>
      </defs>
      <g>
       <use xlink:href="#m95fd3a7ad7" x="88.566582" y="319.93" style="stroke: #000000; stroke-width: 0.8"/>
      </g>
     </g>
     <g id="text_1">
      <!-- Albania -->
      <g transform="translate(91.325957 364.269063) rotate(-90) scale(0.1 -0.1)">
       <defs>
        <path id="DejaVuSans-41" d="M 2188 4044 
L 1331 1722 
L 3047 1722 
L 2188 4044 
z
M 1831 4666 
L 2547 4666 
L 4325 0 
L 3669 0 
L 3244 1197 
L 1141 1197 
L 716 0 
L 50 0 
L 1831 4666 
z
" transform="scale(0.015625)"/>
        <path id="DejaVuSans-6c" d="M 603 4863 
L 1178 4863 
L 1178 0 
L 603 0 
L 603 4863 
z
" transform="scale(0.015625)"/>
        <path id="DejaVuSans-62" d="M 3116 1747 
Q 3116 2381 2855 2742 
Q 2594 3103 2138 3103 
Q 1681 3103 1420 2742 
Q 1159 2381 1159 1747 
Q 1159 1113 1420 752 
Q 1681 391 2138 391 
Q 2594 391 2855 752 
Q 3116 1113 3116 1747 
z
M 1159 2969 
Q 1341 3281 1617 3432 
Q 1894 3584 2278 3584 
Q 2916 3584 3314 3078 
Q 3713 2572 3713 1747 
Q 3713 922 3314 415 
Q 2916 -91 2278 -91 
Q 1894 -91 1617 61 
Q 1341 213 1159 525 
L 1159 0 
L 581 0 
L 581 4863 
L 1159 4863 
L 1159 2969 
z
" transform="scale(0.015625)"/>
        <path id="DejaVuSans-61" d="M 2194 1759 
Q 1497 1759 1228 1600 
Q 959 1441 959 1056 
Q 959 750 1161 570 
Q 1363 391 1709 391 
Q 2188 391 2477 730 
Q 2766 1069 2766 1631 
L 2766 1759 
L 2194 1759 
z
M 3341 1997 
L 3341 0 
L 2766 0 
L 2766 531 
Q 2569 213 2275 61 
Q 1981 -91 1556 -91 
Q 1019 -91 701 211 
Q 384 513 384 1019 
Q 384 1609 779 1909 
Q 1175 2209 1959 2209 
L 2766 2209 
L 2766 2266 
Q 2766 2663 2505 2880 
Q 2244 3097 1772 3097 
Q 1472 3097 1187 3025 
Q 903 2953 641 2809 
L 641 3341 
Q 956 3463 1253 3523 
Q 1550 3584 1831 3584 
Q 2591 3584 2966 3190 
Q 3341 2797 3341 1997 
z
" transform="scale(0.015625)"/>
        <path id="DejaVuSans-6e" d="M 3513 2113 
L 3513 0 
L 2938 0 
L 2938 2094 
Q 2938 2591 2744 2837 
Q 2550 3084 2163 3084 
Q 1697 3084 1428 2787 
Q 1159 2491 1159 1978 
L 1159 0 
L 581 0 
L 581 3500 
L 1159 3500 
L 1159 2956 
Q 1366 3272 1645 3428 
Q 1925 3584 2291 3584 
Q 2894 3584 3203 3211 
Q 3513 2838 3513 2113 
z
" transform="scale(0.015625)"/>
        <path id="DejaVuSans-69" d="M 603 3500 
L 1178 3500 
L 1178 0 
L 603 0 
L 603 3500 
z
M 603 4863 
L 1178 4863 
L 1178 4134 
L 603 4134 
L 603 4863 
z
" transform="scale(0.015625)"/>
       </defs>
       <use xlink:href="#DejaVuSans-41"/>
       <use xlink:href="#DejaVuSans-6c" transform="translate(68.408203 0)"/>
       <use xlink:href="#DejaVuSans-62" transform="translate(96.191406 0)"/>
       <use xlink:href="#DejaVuSans-61" transform="translate(159.667969 0)"/>
       <use xlink:href="#DejaVuSans-6e" transform="translate(220.947266 0)"/>
       <use xlink:href="#DejaVuSans-69" transform="translate(284.326172 0)"/>
       <use xlink:href="#DejaVuSans-61" transform="translate(312.109375 0)"/>
      </g>
     </g>
    </g>
    <g id="xtick_2">
     <g id="line2d_2">
      <g>
       <use xlink:href="#m95fd3a7ad7" x="107.99781" y="319.93" style="stroke: #000000; stroke-width: 0.8"/>
      </g>
     </g>
     <g id="text_2">
      <!-- Andorra -->
      <g transform="translate(110.757185 366.750313) rotate(-90) scale(0.1 -0.1)">
       <defs>
        <path id="DejaVuSans-64" d="M 2906 2969 
L 2906 4863 
L 3481 4863 
L 3481 0 
L 2906 0 
L 2906 525 
Q 2725 213 2448 61 
Q 2172 -91 1784 -91 
Q 1150 -91 751 415 
Q 353 922 353 1747 
Q 353 2572 751 3078 
Q 1150 3584 1784 3584 
Q 2172 3584 2448 3432 
Q 2725 3281 2906 2969 
z
M 947 1747 
Q 947 1113 1208 752 
Q 1469 391 1925 391 
Q 2381 391 2643 752 
Q 2906 1113 2906 1747 
Q 2906 2381 2643 2742 
Q 2381 3103 1925 3103 
Q 1469 3103 1208 2742 
Q 947 2381 947 1747 
z
" transform="scale(0.015625)"/>
        <path id="DejaVuSans-6f" d="M 1959 3097 
Q 1497 3097 1228 2736 
Q 959 2375 959 1747 
Q 959 1119 1226 758 
Q 1494 397 1959 397 
Q 2419 397 2687 759 
Q 2956 1122 2956 1747 
Q 2956 2369 2687 2733 
Q 2419 3097 1959 3097 
z
M 1959 3584 
Q 2709 3584 3137 3096 
Q 3566 2609 3566 1747 
Q 3566 888 3137 398 
Q 2709 -91 1959 -91 
Q 1206 -91 779 398 
Q 353 888 353 1747 
Q 353 2609 779 3096 
Q 1206 3584 1959 3584 
z
" transform="scale(0.015625)"/>
        <path id="DejaVuSans-72" d="M 2631 2963 
Q 2534 3019 2420 3045 
Q 2306 3072 2169 3072 
Q 1681 3072 1420 2755 
Q 1159 2438 1159 1844 
L 1159 0 
L 581 0 
L 581 3500 
L 1159 3500 
L 1159 2956 
Q 1341 3275 1631 3429 
Q 1922 3584 2338 3584 
Q 2397 3584 2469 3576 
Q 2541 3569 2628 3553 
L 2631 2963 
z
" transform="scale(0.015625)"/>
       </defs>
       <use xlink:href="#DejaVuSans-41"/>
       <use xlink:href="#DejaVuSans-6e" transform="translate(68.408203 0)"/>
       <use xlink:href="#DejaVuSans-64" transform="translate(131.787109 0)"/>
       <use xlink:href="#DejaVuSans-6f" transform="translate(195.263672 0)"/>
       <use xlink:href="#DejaVuSans-72" transform="translate(256.445312 0)"/>
       <use xlink:href="#DejaVuSans-72" transform="translate(295.808594 0)"/>
       <use xlink:href="#DejaVuSans-61" transform="translate(336.921875 0)"/>
      </g>
     </g>
    </g>
    <g id="xtick_3">
     <g id="line2d_3">
      <g>
       <use xlink:href="#m95fd3a7ad7" x="127.429038" y="319.93" style="stroke: #000000; stroke-width: 0.8"/>
      </g>
     </g>
     <g id="text_3">
      <!-- Armenia -->
      <g transform="translate(130.188413 368.844063) rotate(-90) scale(0.1 -0.1)">
       <defs>
        <path id="DejaVuSans-6d" d="M 3328 2828 
Q 3544 3216 3844 3400 
Q 4144 3584 4550 3584 
Q 5097 3584 5394 3201 
Q 5691 2819 5691 2113 
L 5691 0 
L 5113 0 
L 5113 2094 
Q 5113 2597 4934 2840 
Q 4756 3084 4391 3084 
Q 3944 3084 3684 2787 
Q 3425 2491 3425 1978 
L 3425 0 
L 2847 0 
L 2847 2094 
Q 2847 2600 2669 2842 
Q 2491 3084 2119 3084 
Q 1678 3084 1418 2786 
Q 1159 2488 1159 1978 
L 1159 0 
L 581 0 
L 581 3500 
L 1159 3500 
L 1159 2956 
Q 1356 3278 1631 3431 
Q 1906 3584 2284 3584 
Q 2666 3584 2933 3390 
Q 3200 3197 3328 2828 
z
" transform="scale(0.015625)"/>
        <path id="DejaVuSans-65" d="M 3597 1894 
L 3597 1613 
L 953 1613 
Q 991 1019 1311 708 
Q 1631 397 2203 397 
Q 2534 397 2845 478 
Q 3156 559 3463 722 
L 3463 178 
Q 3153 47 2828 -22 
Q 2503 -91 2169 -91 
Q 1331 -91 842 396 
Q 353 884 353 1716 
Q 353 2575 817 3079 
Q 1281 3584 2069 3584 
Q 2775 3584 3186 3129 
Q 3597 2675 3597 1894 
z
M 3022 2063 
Q 3016 2534 2758 2815 
Q 2500 3097 2075 3097 
Q 1594 3097 1305 2825 
Q 1016 2553 972 2059 
L 3022 2063 
z
" transform="scale(0.015625)"/>
       </defs>
       <use xlink:href="#DejaVuSans-41"/>
       <use xlink:href="#DejaVuSans-72" transform="translate(68.408203 0)"/>
       <use xlink:href="#DejaVuSans-6d" transform="translate(107.771484 0)"/>
       <use xlink:href="#DejaVuSans-65" transform="translate(205.183594 0)"/>
       <use xlink:href="#DejaVuSans-6e" transform="translate(266.707031 0)"/>
       <use xlink:href="#DejaVuSans-69" transform="translate(330.085938 0)"/>
       <use xlink:href="#DejaVuSans-61" transform="translate(357.869141 0)"/>
      </g>
     </g>
    </g>
    <g id="xtick_4">
     <g id="line2d_4">
      <g>
       <use xlink:href="#m95fd3a7ad7" x="146.860266" y="319.93" style="stroke: #000000; stroke-width: 0.8"/>
      </g>
     </g>
     <g id="text_4">
      <!-- Austria -->
      <g transform="translate(149.619641 362.255) rotate(-90) scale(0.1 -0.1)">
       <defs>
        <path id="DejaVuSans-75" d="M 544 1381 
L 544 3500 
L 1119 3500 
L 1119 1403 
Q 1119 906 1312 657 
Q 1506 409 1894 409 
Q 2359 409 2629 706 
Q 2900 1003 2900 1516 
L 2900 3500 
L 3475 3500 
L 3475 0 
L 2900 0 
L 2900 538 
Q 2691 219 2414 64 
Q 2138 -91 1772 -91 
Q 1169 -91 856 284 
Q 544 659 544 1381 
z
M 1991 3584 
L 1991 3584 
z
" transform="scale(0.015625)"/>
        <path id="DejaVuSans-73" d="M 2834 3397 
L 2834 2853 
Q 2591 2978 2328 3040 
Q 2066 3103 1784 3103 
Q 1356 3103 1142 2972 
Q 928 2841 928 2578 
Q 928 2378 1081 2264 
Q 1234 2150 1697 2047 
L 1894 2003 
Q 2506 1872 2764 1633 
Q 3022 1394 3022 966 
Q 3022 478 2636 193 
Q 2250 -91 1575 -91 
Q 1294 -91 989 -36 
Q 684 19 347 128 
L 347 722 
Q 666 556 975 473 
Q 1284 391 1588 391 
Q 1994 391 2212 530 
Q 2431 669 2431 922 
Q 2431 1156 2273 1281 
Q 2116 1406 1581 1522 
L 1381 1569 
Q 847 1681 609 1914 
Q 372 2147 372 2553 
Q 372 3047 722 3315 
Q 1072 3584 1716 3584 
Q 2034 3584 2315 3537 
Q 2597 3491 2834 3397 
z
" transform="scale(0.015625)"/>
        <path id="DejaVuSans-74" d="M 1172 4494 
L 1172 3500 
L 2356 3500 
L 2356 3053 
L 1172 3053 
L 1172 1153 
Q 1172 725 1289 603 
Q 1406 481 1766 481 
L 2356 481 
L 2356 0 
L 1766 0 
Q 1100 0 847 248 
Q 594 497 594 1153 
L 594 3053 
L 172 3053 
L 172 3500 
L 594 3500 
L 594 4494 
L 1172 4494 
z
" transform="scale(0.015625)"/>
       </defs>
       <use xlink:href="#DejaVuSans-41"/>
       <use xlink:href="#DejaVuSans-75" transform="translate(68.408203 0)"/>
       <use xlink:href="#DejaVuSans-73" transform="translate(131.787109 0)"/>
       <use xlink:href="#DejaVuSans-74" transform="translate(183.886719 0)"/>
       <use xlink:href="#DejaVuSans-72" transform="translate(223.095703 0)"/>
       <use xlink:href="#DejaVuSans-69" transform="translate(264.208984 0)"/>
       <use xlink:href="#DejaVuSans-61" transform="translate(291.992188 0)"/>
      </g>
     </g>
    </g>
    <g id="xtick_5">
     <g id="line2d_5">
      <g>
       <use xlink:href="#m95fd3a7ad7" x="166.291494" y="319.93" style="stroke: #000000; stroke-width: 0.8"/>
      </g>
     </g>
     <g id="text_5">
      <!-- Belgium -->
      <g transform="translate(169.050869 367.926875) rotate(-90) scale(0.1 -0.1)">
       <defs>
        <path id="DejaVuSans-42" d="M 1259 2228 
L 1259 519 
L 2272 519 
Q 2781 519 3026 730 
Q 3272 941 3272 1375 
Q 3272 1813 3026 2020 
Q 2781 2228 2272 2228 
L 1259 2228 
z
M 1259 4147 
L 1259 2741 
L 2194 2741 
Q 2656 2741 2882 2914 
Q 3109 3088 3109 3444 
Q 3109 3797 2882 3972 
Q 2656 4147 2194 4147 
L 1259 4147 
z
M 628 4666 
L 2241 4666 
Q 2963 4666 3353 4366 
Q 3744 4066 3744 3513 
Q 3744 3084 3544 2831 
Q 3344 2578 2956 2516 
Q 3422 2416 3680 2098 
Q 3938 1781 3938 1306 
Q 3938 681 3513 340 
Q 3088 0 2303 0 
L 628 0 
L 628 4666 
z
" transform="scale(0.015625)"/>
        <path id="DejaVuSans-67" d="M 2906 1791 
Q 2906 2416 2648 2759 
Q 2391 3103 1925 3103 
Q 1463 3103 1205 2759 
Q 947 2416 947 1791 
Q 947 1169 1205 825 
Q 1463 481 1925 481 
Q 2391 481 2648 825 
Q 2906 1169 2906 1791 
z
M 3481 434 
Q 3481 -459 3084 -895 
Q 2688 -1331 1869 -1331 
Q 1566 -1331 1297 -1286 
Q 1028 -1241 775 -1147 
L 775 -588 
Q 1028 -725 1275 -790 
Q 1522 -856 1778 -856 
Q 2344 -856 2625 -561 
Q 2906 -266 2906 331 
L 2906 616 
Q 2728 306 2450 153 
Q 2172 0 1784 0 
Q 1141 0 747 490 
Q 353 981 353 1791 
Q 353 2603 747 3093 
Q 1141 3584 1784 3584 
Q 2172 3584 2450 3431 
Q 2728 3278 2906 2969 
L 2906 3500 
L 3481 3500 
L 3481 434 
z
" transform="scale(0.015625)"/>
       </defs>
       <use xlink:href="#DejaVuSans-42"/>
       <use xlink:href="#DejaVuSans-65" transform="translate(68.603516 0)"/>
       <use xlink:href="#DejaVuSans-6c" transform="translate(130.126953 0)"/>
       <use xlink:href="#DejaVuSans-67" transform="translate(157.910156 0)"/>
       <use xlink:href="#DejaVuSans-69" transform="translate(221.386719 0)"/>
       <use xlink:href="#DejaVuSans-75" transform="translate(249.169922 0)"/>
       <use xlink:href="#DejaVuSans-6d" transform="translate(312.548828 0)"/>
      </g>
     </g>
    </g>
    <g id="xtick_6">
     <g id="line2d_6">
      <g>
       <use xlink:href="#m95fd3a7ad7" x="185.722721" y="319.93" style="stroke: #000000; stroke-width: 0.8"/>
      </g>
     </g>
     <g id="text_6">
      <!-- Bulgaria -->
      <g transform="translate(188.482096 368.400313) rotate(-90) scale(0.1 -0.1)">
       <use xlink:href="#DejaVuSans-42"/>
       <use xlink:href="#DejaVuSans-75" transform="translate(68.603516 0)"/>
       <use xlink:href="#DejaVuSans-6c" transform="translate(131.982422 0)"/>
       <use xlink:href="#DejaVuSans-67" transform="translate(159.765625 0)"/>
       <use xlink:href="#DejaVuSans-61" transform="translate(223.242188 0)"/>
       <use xlink:href="#DejaVuSans-72" transform="translate(284.521484 0)"/>
       <use xlink:href="#DejaVuSans-69" transform="translate(325.634766 0)"/>
       <use xlink:href="#DejaVuSans-61" transform="translate(353.417969 0)"/>
      </g>
     </g>
    </g>
    <g id="xtick_7">
     <g id="line2d_7">
      <g>
       <use xlink:href="#m95fd3a7ad7" x="205.153949" y="319.93" style="stroke: #000000; stroke-width: 0.8"/>
      </g>
     </g>
     <g id="text_7">
      <!-- Czech Republic -->
      <g transform="translate(207.913324 403.069063) rotate(-90) scale(0.1 -0.1)">
       <defs>
        <path id="DejaVuSans-43" d="M 4122 4306 
L 4122 3641 
Q 3803 3938 3442 4084 
Q 3081 4231 2675 4231 
Q 1875 4231 1450 3742 
Q 1025 3253 1025 2328 
Q 1025 1406 1450 917 
Q 1875 428 2675 428 
Q 3081 428 3442 575 
Q 3803 722 4122 1019 
L 4122 359 
Q 3791 134 3420 21 
Q 3050 -91 2638 -91 
Q 1578 -91 968 557 
Q 359 1206 359 2328 
Q 359 3453 968 4101 
Q 1578 4750 2638 4750 
Q 3056 4750 3426 4639 
Q 3797 4528 4122 4306 
z
" transform="scale(0.015625)"/>
        <path id="DejaVuSans-7a" d="M 353 3500 
L 3084 3500 
L 3084 2975 
L 922 459 
L 3084 459 
L 3084 0 
L 275 0 
L 275 525 
L 2438 3041 
L 353 3041 
L 353 3500 
z
" transform="scale(0.015625)"/>
        <path id="DejaVuSans-63" d="M 3122 3366 
L 3122 2828 
Q 2878 2963 2633 3030 
Q 2388 3097 2138 3097 
Q 1578 3097 1268 2742 
Q 959 2388 959 1747 
Q 959 1106 1268 751 
Q 1578 397 2138 397 
Q 2388 397 2633 464 
Q 2878 531 3122 666 
L 3122 134 
Q 2881 22 2623 -34 
Q 2366 -91 2075 -91 
Q 1284 -91 818 406 
Q 353 903 353 1747 
Q 353 2603 823 3093 
Q 1294 3584 2113 3584 
Q 2378 3584 2631 3529 
Q 2884 3475 3122 3366 
z
" transform="scale(0.015625)"/>
        <path id="DejaVuSans-68" d="M 3513 2113 
L 3513 0 
L 2938 0 
L 2938 2094 
Q 2938 2591 2744 2837 
Q 2550 3084 2163 3084 
Q 1697 3084 1428 2787 
Q 1159 2491 1159 1978 
L 1159 0 
L 581 0 
L 581 4863 
L 1159 4863 
L 1159 2956 
Q 1366 3272 1645 3428 
Q 1925 3584 2291 3584 
Q 2894 3584 3203 3211 
Q 3513 2838 3513 2113 
z
" transform="scale(0.015625)"/>
        <path id="DejaVuSans-20" transform="scale(0.015625)"/>
        <path id="DejaVuSans-52" d="M 2841 2188 
Q 3044 2119 3236 1894 
Q 3428 1669 3622 1275 
L 4263 0 
L 3584 0 
L 2988 1197 
Q 2756 1666 2539 1819 
Q 2322 1972 1947 1972 
L 1259 1972 
L 1259 0 
L 628 0 
L 628 4666 
L 2053 4666 
Q 2853 4666 3247 4331 
Q 3641 3997 3641 3322 
Q 3641 2881 3436 2590 
Q 3231 2300 2841 2188 
z
M 1259 4147 
L 1259 2491 
L 2053 2491 
Q 2509 2491 2742 2702 
Q 2975 2913 2975 3322 
Q 2975 3731 2742 3939 
Q 2509 4147 2053 4147 
L 1259 4147 
z
" transform="scale(0.015625)"/>
        <path id="DejaVuSans-70" d="M 1159 525 
L 1159 -1331 
L 581 -1331 
L 581 3500 
L 1159 3500 
L 1159 2969 
Q 1341 3281 1617 3432 
Q 1894 3584 2278 3584 
Q 2916 3584 3314 3078 
Q 3713 2572 3713 1747 
Q 3713 922 3314 415 
Q 2916 -91 2278 -91 
Q 1894 -91 1617 61 
Q 1341 213 1159 525 
z
M 3116 1747 
Q 3116 2381 2855 2742 
Q 2594 3103 2138 3103 
Q 1681 3103 1420 2742 
Q 1159 2381 1159 1747 
Q 1159 1113 1420 752 
Q 1681 391 2138 391 
Q 2594 391 2855 752 
Q 3116 1113 3116 1747 
z
" transform="scale(0.015625)"/>
       </defs>
       <use xlink:href="#DejaVuSans-43"/>
       <use xlink:href="#DejaVuSans-7a" transform="translate(69.824219 0)"/>
       <use xlink:href="#DejaVuSans-65" transform="translate(122.314453 0)"/>
       <use xlink:href="#DejaVuSans-63" transform="translate(183.837891 0)"/>
       <use xlink:href="#DejaVuSans-68" transform="translate(238.818359 0)"/>
       <use xlink:href="#DejaVuSans-20" transform="translate(302.197266 0)"/>
       <use xlink:href="#DejaVuSans-52" transform="translate(333.984375 0)"/>
       <use xlink:href="#DejaVuSans-65" transform="translate(398.966797 0)"/>
       <use xlink:href="#DejaVuSans-70" transform="translate(460.490234 0)"/>
       <use xlink:href="#DejaVuSans-75" transform="translate(523.966797 0)"/>
       <use xlink:href="#DejaVuSans-62" transform="translate(587.345703 0)"/>
       <use xlink:href="#DejaVuSans-6c" transform="translate(650.822266 0)"/>
       <use xlink:href="#DejaVuSans-69" transform="translate(678.605469 0)"/>
       <use xlink:href="#DejaVuSans-63" transform="translate(706.388672 0)"/>
      </g>
     </g>
    </g>
    <g id="xtick_8">
     <g id="line2d_8">
      <g>
       <use xlink:href="#m95fd3a7ad7" x="224.585177" y="319.93" style="stroke: #000000; stroke-width: 0.8"/>
      </g>
     </g>
     <g id="text_8">
      <!-- Denmark -->
      <g transform="translate(227.344552 372.890938) rotate(-90) scale(0.1 -0.1)">
       <defs>
        <path id="DejaVuSans-44" d="M 1259 4147 
L 1259 519 
L 2022 519 
Q 2988 519 3436 956 
Q 3884 1394 3884 2338 
Q 3884 3275 3436 3711 
Q 2988 4147 2022 4147 
L 1259 4147 
z
M 628 4666 
L 1925 4666 
Q 3281 4666 3915 4102 
Q 4550 3538 4550 2338 
Q 4550 1131 3912 565 
Q 3275 0 1925 0 
L 628 0 
L 628 4666 
z
" transform="scale(0.015625)"/>
        <path id="DejaVuSans-6b" d="M 581 4863 
L 1159 4863 
L 1159 1991 
L 2875 3500 
L 3609 3500 
L 1753 1863 
L 3688 0 
L 2938 0 
L 1159 1709 
L 1159 0 
L 581 0 
L 581 4863 
z
" transform="scale(0.015625)"/>
       </defs>
       <use xlink:href="#DejaVuSans-44"/>
       <use xlink:href="#DejaVuSans-65" transform="translate(77.001953 0)"/>
       <use xlink:href="#DejaVuSans-6e" transform="translate(138.525391 0)"/>
       <use xlink:href="#DejaVuSans-6d" transform="translate(201.904297 0)"/>
       <use xlink:href="#DejaVuSans-61" transform="translate(299.316406 0)"/>
       <use xlink:href="#DejaVuSans-72" transform="translate(360.595703 0)"/>
       <use xlink:href="#DejaVuSans-6b" transform="translate(401.708984 0)"/>
      </g>
     </g>
    </g>
    <g id="xtick_9">
     <g id="line2d_9">
      <g>
       <use xlink:href="#m95fd3a7ad7" x="244.016405" y="319.93" style="stroke: #000000; stroke-width: 0.8"/>
      </g>
     </g>
     <g id="text_9">
      <!-- Finland -->
      <g transform="translate(246.77578 362.664375) rotate(-90) scale(0.1 -0.1)">
       <defs>
        <path id="DejaVuSans-46" d="M 628 4666 
L 3309 4666 
L 3309 4134 
L 1259 4134 
L 1259 2759 
L 3109 2759 
L 3109 2228 
L 1259 2228 
L 1259 0 
L 628 0 
L 628 4666 
z
" transform="scale(0.015625)"/>
       </defs>
       <use xlink:href="#DejaVuSans-46"/>
       <use xlink:href="#DejaVuSans-69" transform="translate(50.269531 0)"/>
       <use xlink:href="#DejaVuSans-6e" transform="translate(78.052734 0)"/>
       <use xlink:href="#DejaVuSans-6c" transform="translate(141.431641 0)"/>
       <use xlink:href="#DejaVuSans-61" transform="translate(169.214844 0)"/>
       <use xlink:href="#DejaVuSans-6e" transform="translate(230.494141 0)"/>
       <use xlink:href="#DejaVuSans-64" transform="translate(293.873047 0)"/>
      </g>
     </g>
    </g>
    <g id="xtick_10">
     <g id="line2d_10">
      <g>
       <use xlink:href="#m95fd3a7ad7" x="263.447633" y="319.93" style="stroke: #000000; stroke-width: 0.8"/>
      </g>
     </g>
     <g id="text_10">
      <!-- France -->
      <g transform="translate(266.207008 360.184687) rotate(-90) scale(0.1 -0.1)">
       <use xlink:href="#DejaVuSans-46"/>
       <use xlink:href="#DejaVuSans-72" transform="translate(50.269531 0)"/>
       <use xlink:href="#DejaVuSans-61" transform="translate(91.382812 0)"/>
       <use xlink:href="#DejaVuSans-6e" transform="translate(152.662109 0)"/>
       <use xlink:href="#DejaVuSans-63" transform="translate(216.041016 0)"/>
       <use xlink:href="#DejaVuSans-65" transform="translate(271.021484 0)"/>
      </g>
     </g>
    </g>
    <g id="xtick_11">
     <g id="line2d_11">
      <g>
       <use xlink:href="#m95fd3a7ad7" x="282.878861" y="319.93" style="stroke: #000000; stroke-width: 0.8"/>
      </g>
     </g>
     <g id="text_11">
      <!-- Germany -->
      <g transform="translate(285.638236 372.8925) rotate(-90) scale(0.1 -0.1)">
       <defs>
        <path id="DejaVuSans-47" d="M 3809 666 
L 3809 1919 
L 2778 1919 
L 2778 2438 
L 4434 2438 
L 4434 434 
Q 4069 175 3628 42 
Q 3188 -91 2688 -91 
Q 1594 -91 976 548 
Q 359 1188 359 2328 
Q 359 3472 976 4111 
Q 1594 4750 2688 4750 
Q 3144 4750 3555 4637 
Q 3966 4525 4313 4306 
L 4313 3634 
Q 3963 3931 3569 4081 
Q 3175 4231 2741 4231 
Q 1884 4231 1454 3753 
Q 1025 3275 1025 2328 
Q 1025 1384 1454 906 
Q 1884 428 2741 428 
Q 3075 428 3337 486 
Q 3600 544 3809 666 
z
" transform="scale(0.015625)"/>
        <path id="DejaVuSans-79" d="M 2059 -325 
Q 1816 -950 1584 -1140 
Q 1353 -1331 966 -1331 
L 506 -1331 
L 506 -850 
L 844 -850 
Q 1081 -850 1212 -737 
Q 1344 -625 1503 -206 
L 1606 56 
L 191 3500 
L 800 3500 
L 1894 763 
L 2988 3500 
L 3597 3500 
L 2059 -325 
z
" transform="scale(0.015625)"/>
       </defs>
       <use xlink:href="#DejaVuSans-47"/>
       <use xlink:href="#DejaVuSans-65" transform="translate(77.490234 0)"/>
       <use xlink:href="#DejaVuSans-72" transform="translate(139.013672 0)"/>
       <use xlink:href="#DejaVuSans-6d" transform="translate(178.376953 0)"/>
       <use xlink:href="#DejaVuSans-61" transform="translate(275.789062 0)"/>
       <use xlink:href="#DejaVuSans-6e" transform="translate(337.068359 0)"/>
       <use xlink:href="#DejaVuSans-79" transform="translate(400.447266 0)"/>
      </g>
     </g>
    </g>
    <g id="xtick_12">
     <g id="line2d_12">
      <g>
       <use xlink:href="#m95fd3a7ad7" x="302.310089" y="319.93" style="stroke: #000000; stroke-width: 0.8"/>
      </g>
     </g>
     <g id="text_12">
      <!-- Greece -->
      <g transform="translate(305.069464 362.522187) rotate(-90) scale(0.1 -0.1)">
       <use xlink:href="#DejaVuSans-47"/>
       <use xlink:href="#DejaVuSans-72" transform="translate(77.490234 0)"/>
       <use xlink:href="#DejaVuSans-65" transform="translate(116.353516 0)"/>
       <use xlink:href="#DejaVuSans-65" transform="translate(177.876953 0)"/>
       <use xlink:href="#DejaVuSans-63" transform="translate(239.400391 0)"/>
       <use xlink:href="#DejaVuSans-65" transform="translate(294.380859 0)"/>
      </g>
     </g>
    </g>
    <g id="xtick_13">
     <g id="line2d_13">
      <g>
       <use xlink:href="#m95fd3a7ad7" x="321.741316" y="319.93" style="stroke: #000000; stroke-width: 0.8"/>
      </g>
     </g>
     <g id="text_13">
      <!-- Hungary -->
      <g transform="translate(324.500691 369.631563) rotate(-90) scale(0.1 -0.1)">
       <defs>
        <path id="DejaVuSans-48" d="M 628 4666 
L 1259 4666 
L 1259 2753 
L 3553 2753 
L 3553 4666 
L 4184 4666 
L 4184 0 
L 3553 0 
L 3553 2222 
L 1259 2222 
L 1259 0 
L 628 0 
L 628 4666 
z
" transform="scale(0.015625)"/>
       </defs>
       <use xlink:href="#DejaVuSans-48"/>
       <use xlink:href="#DejaVuSans-75" transform="translate(75.195312 0)"/>
       <use xlink:href="#DejaVuSans-6e" transform="translate(138.574219 0)"/>
       <use xlink:href="#DejaVuSans-67" transform="translate(201.953125 0)"/>
       <use xlink:href="#DejaVuSans-61" transform="translate(265.429688 0)"/>
       <use xlink:href="#DejaVuSans-72" transform="translate(326.708984 0)"/>
       <use xlink:href="#DejaVuSans-79" transform="translate(367.822266 0)"/>
      </g>
     </g>
    </g>
    <g id="xtick_14">
     <g id="line2d_14">
      <g>
       <use xlink:href="#m95fd3a7ad7" x="341.172544" y="319.93" style="stroke: #000000; stroke-width: 0.8"/>
      </g>
     </g>
     <g id="text_14">
      <!-- Ireland -->
      <g transform="translate(343.931919 361.51125) rotate(-90) scale(0.1 -0.1)">
       <defs>
        <path id="DejaVuSans-49" d="M 628 4666 
L 1259 4666 
L 1259 0 
L 628 0 
L 628 4666 
z
" transform="scale(0.015625)"/>
       </defs>
       <use xlink:href="#DejaVuSans-49"/>
       <use xlink:href="#DejaVuSans-72" transform="translate(29.492188 0)"/>
       <use xlink:href="#DejaVuSans-65" transform="translate(68.355469 0)"/>
       <use xlink:href="#DejaVuSans-6c" transform="translate(129.878906 0)"/>
       <use xlink:href="#DejaVuSans-61" transform="translate(157.662109 0)"/>
       <use xlink:href="#DejaVuSans-6e" transform="translate(218.941406 0)"/>
       <use xlink:href="#DejaVuSans-64" transform="translate(282.320312 0)"/>
      </g>
     </g>
    </g>
    <g id="xtick_15">
     <g id="line2d_15">
      <g>
       <use xlink:href="#m95fd3a7ad7" x="360.603772" y="319.93" style="stroke: #000000; stroke-width: 0.8"/>
      </g>
     </g>
     <g id="text_15">
      <!-- Italy -->
      <g transform="translate(363.363147 348.625313) rotate(-90) scale(0.1 -0.1)">
       <use xlink:href="#DejaVuSans-49"/>
       <use xlink:href="#DejaVuSans-74" transform="translate(29.492188 0)"/>
       <use xlink:href="#DejaVuSans-61" transform="translate(68.701172 0)"/>
       <use xlink:href="#DejaVuSans-6c" transform="translate(129.980469 0)"/>
       <use xlink:href="#DejaVuSans-79" transform="translate(157.763672 0)"/>
      </g>
     </g>
    </g>
    <g id="xtick_16">
     <g id="line2d_16">
      <g>
       <use xlink:href="#m95fd3a7ad7" x="380.035" y="319.93" style="stroke: #000000; stroke-width: 0.8"/>
      </g>
     </g>
     <g id="text_16">
      <!-- Latvia -->
      <g transform="translate(382.794375 357.375313) rotate(-90) scale(0.1 -0.1)">
       <defs>
        <path id="DejaVuSans-4c" d="M 628 4666 
L 1259 4666 
L 1259 531 
L 3531 531 
L 3531 0 
L 628 0 
L 628 4666 
z
" transform="scale(0.015625)"/>
        <path id="DejaVuSans-76" d="M 191 3500 
L 800 3500 
L 1894 563 
L 2988 3500 
L 3597 3500 
L 2284 0 
L 1503 0 
L 191 3500 
z
" transform="scale(0.015625)"/>
       </defs>
       <use xlink:href="#DejaVuSans-4c"/>
       <use xlink:href="#DejaVuSans-61" transform="translate(55.712891 0)"/>
       <use xlink:href="#DejaVuSans-74" transform="translate(116.992188 0)"/>
       <use xlink:href="#DejaVuSans-76" transform="translate(156.201172 0)"/>
       <use xlink:href="#DejaVuSans-69" transform="translate(215.380859 0)"/>
       <use xlink:href="#DejaVuSans-61" transform="translate(243.164062 0)"/>
      </g>
     </g>
    </g>
    <g id="xtick_17">
     <g id="line2d_17">
      <g>
       <use xlink:href="#m95fd3a7ad7" x="399.466228" y="319.93" style="stroke: #000000; stroke-width: 0.8"/>
      </g>
     </g>
     <g id="text_17">
      <!-- Luxembourg -->
      <g transform="translate(402.225603 389.253438) rotate(-90) scale(0.1 -0.1)">
       <defs>
        <path id="DejaVuSans-78" d="M 3513 3500 
L 2247 1797 
L 3578 0 
L 2900 0 
L 1881 1375 
L 863 0 
L 184 0 
L 1544 1831 
L 300 3500 
L 978 3500 
L 1906 2253 
L 2834 3500 
L 3513 3500 
z
" transform="scale(0.015625)"/>
       </defs>
       <use xlink:href="#DejaVuSans-4c"/>
       <use xlink:href="#DejaVuSans-75" transform="translate(53.962891 0)"/>
       <use xlink:href="#DejaVuSans-78" transform="translate(117.341797 0)"/>
       <use xlink:href="#DejaVuSans-65" transform="translate(173.396484 0)"/>
       <use xlink:href="#DejaVuSans-6d" transform="translate(234.919922 0)"/>
       <use xlink:href="#DejaVuSans-62" transform="translate(332.332031 0)"/>
       <use xlink:href="#DejaVuSans-6f" transform="translate(395.808594 0)"/>
       <use xlink:href="#DejaVuSans-75" transform="translate(456.990234 0)"/>
       <use xlink:href="#DejaVuSans-72" transform="translate(520.369141 0)"/>
       <use xlink:href="#DejaVuSans-67" transform="translate(559.732422 0)"/>
      </g>
     </g>
    </g>
    <g id="xtick_18">
     <g id="line2d_18">
      <g>
       <use xlink:href="#m95fd3a7ad7" x="418.897456" y="319.93" style="stroke: #000000; stroke-width: 0.8"/>
      </g>
     </g>
     <g id="text_18">
      <!-- Malta -->
      <g transform="translate(421.656831 354.512812) rotate(-90) scale(0.1 -0.1)">
       <defs>
        <path id="DejaVuSans-4d" d="M 628 4666 
L 1569 4666 
L 2759 1491 
L 3956 4666 
L 4897 4666 
L 4897 0 
L 4281 0 
L 4281 4097 
L 3078 897 
L 2444 897 
L 1241 4097 
L 1241 0 
L 628 0 
L 628 4666 
z
" transform="scale(0.015625)"/>
       </defs>
       <use xlink:href="#DejaVuSans-4d"/>
       <use xlink:href="#DejaVuSans-61" transform="translate(86.279297 0)"/>
       <use xlink:href="#DejaVuSans-6c" transform="translate(147.558594 0)"/>
       <use xlink:href="#DejaVuSans-74" transform="translate(175.341797 0)"/>
       <use xlink:href="#DejaVuSans-61" transform="translate(214.550781 0)"/>
      </g>
     </g>
    </g>
    <g id="xtick_19">
     <g id="line2d_19">
      <g>
       <use xlink:href="#m95fd3a7ad7" x="438.328684" y="319.93" style="stroke: #000000; stroke-width: 0.8"/>
      </g>
     </g>
     <g id="text_19">
      <!-- Netherlands -->
      <g transform="translate(441.088059 387.887812) rotate(-90) scale(0.1 -0.1)">
       <defs>
        <path id="DejaVuSans-4e" d="M 628 4666 
L 1478 4666 
L 3547 763 
L 3547 4666 
L 4159 4666 
L 4159 0 
L 3309 0 
L 1241 3903 
L 1241 0 
L 628 0 
L 628 4666 
z
" transform="scale(0.015625)"/>
       </defs>
       <use xlink:href="#DejaVuSans-4e"/>
       <use xlink:href="#DejaVuSans-65" transform="translate(74.804688 0)"/>
       <use xlink:href="#DejaVuSans-74" transform="translate(136.328125 0)"/>
       <use xlink:href="#DejaVuSans-68" transform="translate(175.537109 0)"/>
       <use xlink:href="#DejaVuSans-65" transform="translate(238.916016 0)"/>
       <use xlink:href="#DejaVuSans-72" transform="translate(300.439453 0)"/>
       <use xlink:href="#DejaVuSans-6c" transform="translate(341.552734 0)"/>
       <use xlink:href="#DejaVuSans-61" transform="translate(369.335938 0)"/>
       <use xlink:href="#DejaVuSans-6e" transform="translate(430.615234 0)"/>
       <use xlink:href="#DejaVuSans-64" transform="translate(493.994141 0)"/>
       <use xlink:href="#DejaVuSans-73" transform="translate(557.470703 0)"/>
      </g>
     </g>
    </g>
    <g id="xtick_20">
     <g id="line2d_20">
      <g>
       <use xlink:href="#m95fd3a7ad7" x="457.759911" y="319.93" style="stroke: #000000; stroke-width: 0.8"/>
      </g>
     </g>
     <g id="text_20">
      <!-- Norway -->
      <g transform="translate(460.519286 364.865937) rotate(-90) scale(0.1 -0.1)">
       <defs>
        <path id="DejaVuSans-77" d="M 269 3500 
L 844 3500 
L 1563 769 
L 2278 3500 
L 2956 3500 
L 3675 769 
L 4391 3500 
L 4966 3500 
L 4050 0 
L 3372 0 
L 2619 2869 
L 1863 0 
L 1184 0 
L 269 3500 
z
" transform="scale(0.015625)"/>
       </defs>
       <use xlink:href="#DejaVuSans-4e"/>
       <use xlink:href="#DejaVuSans-6f" transform="translate(74.804688 0)"/>
       <use xlink:href="#DejaVuSans-72" transform="translate(135.986328 0)"/>
       <use xlink:href="#DejaVuSans-77" transform="translate(177.099609 0)"/>
       <use xlink:href="#DejaVuSans-61" transform="translate(258.886719 0)"/>
       <use xlink:href="#DejaVuSans-79" transform="translate(320.166016 0)"/>
      </g>
     </g>
    </g>
    <g id="xtick_21">
     <g id="line2d_21">
      <g>
       <use xlink:href="#m95fd3a7ad7" x="477.191139" y="319.93" style="stroke: #000000; stroke-width: 0.8"/>
      </g>
     </g>
     <g id="text_21">
      <!-- Poland -->
      <g transform="translate(479.950514 360.308125) rotate(-90) scale(0.1 -0.1)">
       <defs>
        <path id="DejaVuSans-50" d="M 1259 4147 
L 1259 2394 
L 2053 2394 
Q 2494 2394 2734 2622 
Q 2975 2850 2975 3272 
Q 2975 3691 2734 3919 
Q 2494 4147 2053 4147 
L 1259 4147 
z
M 628 4666 
L 2053 4666 
Q 2838 4666 3239 4311 
Q 3641 3956 3641 3272 
Q 3641 2581 3239 2228 
Q 2838 1875 2053 1875 
L 1259 1875 
L 1259 0 
L 628 0 
L 628 4666 
z
" transform="scale(0.015625)"/>
       </defs>
       <use xlink:href="#DejaVuSans-50"/>
       <use xlink:href="#DejaVuSans-6f" transform="translate(56.677734 0)"/>
       <use xlink:href="#DejaVuSans-6c" transform="translate(117.859375 0)"/>
       <use xlink:href="#DejaVuSans-61" transform="translate(145.642578 0)"/>
       <use xlink:href="#DejaVuSans-6e" transform="translate(206.921875 0)"/>
       <use xlink:href="#DejaVuSans-64" transform="translate(270.300781 0)"/>
      </g>
     </g>
    </g>
    <g id="xtick_22">
     <g id="line2d_22">
      <g>
       <use xlink:href="#m95fd3a7ad7" x="496.622367" y="319.93" style="stroke: #000000; stroke-width: 0.8"/>
      </g>
     </g>
     <g id="text_22">
      <!-- Portugal -->
      <g transform="translate(499.381742 368.339375) rotate(-90) scale(0.1 -0.1)">
       <use xlink:href="#DejaVuSans-50"/>
       <use xlink:href="#DejaVuSans-6f" transform="translate(56.677734 0)"/>
       <use xlink:href="#DejaVuSans-72" transform="translate(117.859375 0)"/>
       <use xlink:href="#DejaVuSans-74" transform="translate(158.972656 0)"/>
       <use xlink:href="#DejaVuSans-75" transform="translate(198.181641 0)"/>
       <use xlink:href="#DejaVuSans-67" transform="translate(261.560547 0)"/>
       <use xlink:href="#DejaVuSans-61" transform="translate(325.037109 0)"/>
       <use xlink:href="#DejaVuSans-6c" transform="translate(386.316406 0)"/>
      </g>
     </g>
    </g>
    <g id="xtick_23">
     <g id="line2d_23">
      <g>
       <use xlink:href="#m95fd3a7ad7" x="516.053595" y="319.93" style="stroke: #000000; stroke-width: 0.8"/>
      </g>
     </g>
     <g id="text_23">
      <!-- Romania -->
      <g transform="translate(518.81297 370.659688) rotate(-90) scale(0.1 -0.1)">
       <use xlink:href="#DejaVuSans-52"/>
       <use xlink:href="#DejaVuSans-6f" transform="translate(64.982422 0)"/>
       <use xlink:href="#DejaVuSans-6d" transform="translate(126.164062 0)"/>
       <use xlink:href="#DejaVuSans-61" transform="translate(223.576172 0)"/>
       <use xlink:href="#DejaVuSans-6e" transform="translate(284.855469 0)"/>
       <use xlink:href="#DejaVuSans-69" transform="translate(348.234375 0)"/>
       <use xlink:href="#DejaVuSans-61" transform="translate(376.017578 0)"/>
      </g>
     </g>
    </g>
    <g id="xtick_24">
     <g id="line2d_24">
      <g>
       <use xlink:href="#m95fd3a7ad7" x="535.484823" y="319.93" style="stroke: #000000; stroke-width: 0.8"/>
      </g>
     </g>
     <g id="text_24">
      <!-- Serbia -->
      <g transform="translate(538.244198 358.797188) rotate(-90) scale(0.1 -0.1)">
       <defs>
        <path id="DejaVuSans-53" d="M 3425 4513 
L 3425 3897 
Q 3066 4069 2747 4153 
Q 2428 4238 2131 4238 
Q 1616 4238 1336 4038 
Q 1056 3838 1056 3469 
Q 1056 3159 1242 3001 
Q 1428 2844 1947 2747 
L 2328 2669 
Q 3034 2534 3370 2195 
Q 3706 1856 3706 1288 
Q 3706 609 3251 259 
Q 2797 -91 1919 -91 
Q 1588 -91 1214 -16 
Q 841 59 441 206 
L 441 856 
Q 825 641 1194 531 
Q 1563 422 1919 422 
Q 2459 422 2753 634 
Q 3047 847 3047 1241 
Q 3047 1584 2836 1778 
Q 2625 1972 2144 2069 
L 1759 2144 
Q 1053 2284 737 2584 
Q 422 2884 422 3419 
Q 422 4038 858 4394 
Q 1294 4750 2059 4750 
Q 2388 4750 2728 4690 
Q 3069 4631 3425 4513 
z
" transform="scale(0.015625)"/>
       </defs>
       <use xlink:href="#DejaVuSans-53"/>
       <use xlink:href="#DejaVuSans-65" transform="translate(63.476562 0)"/>
       <use xlink:href="#DejaVuSans-72" transform="translate(125 0)"/>
       <use xlink:href="#DejaVuSans-62" transform="translate(166.113281 0)"/>
       <use xlink:href="#DejaVuSans-69" transform="translate(229.589844 0)"/>
       <use xlink:href="#DejaVuSans-61" transform="translate(257.373047 0)"/>
      </g>
     </g>
    </g>
    <g id="xtick_25">
     <g id="line2d_25">
      <g>
       <use xlink:href="#m95fd3a7ad7" x="554.916051" y="319.93" style="stroke: #000000; stroke-width: 0.8"/>
      </g>
     </g>
     <g id="text_25">
      <!-- Slovakia -->
      <g transform="translate(557.675426 368.919062) rotate(-90) scale(0.1 -0.1)">
       <use xlink:href="#DejaVuSans-53"/>
       <use xlink:href="#DejaVuSans-6c" transform="translate(63.476562 0)"/>
       <use xlink:href="#DejaVuSans-6f" transform="translate(91.259766 0)"/>
       <use xlink:href="#DejaVuSans-76" transform="translate(152.441406 0)"/>
       <use xlink:href="#DejaVuSans-61" transform="translate(211.621094 0)"/>
       <use xlink:href="#DejaVuSans-6b" transform="translate(272.900391 0)"/>
       <use xlink:href="#DejaVuSans-69" transform="translate(330.810547 0)"/>
       <use xlink:href="#DejaVuSans-61" transform="translate(358.59375 0)"/>
      </g>
     </g>
    </g>
    <g id="xtick_26">
     <g id="line2d_26">
      <g>
       <use xlink:href="#m95fd3a7ad7" x="574.347279" y="319.93" style="stroke: #000000; stroke-width: 0.8"/>
      </g>
     </g>
     <g id="text_26">
      <!-- Spain -->
      <g transform="translate(577.106654 354.870625) rotate(-90) scale(0.1 -0.1)">
       <use xlink:href="#DejaVuSans-53"/>
       <use xlink:href="#DejaVuSans-70" transform="translate(63.476562 0)"/>
       <use xlink:href="#DejaVuSans-61" transform="translate(126.953125 0)"/>
       <use xlink:href="#DejaVuSans-69" transform="translate(188.232422 0)"/>
       <use xlink:href="#DejaVuSans-6e" transform="translate(216.015625 0)"/>
      </g>
     </g>
    </g>
    <g id="xtick_27">
     <g id="line2d_27">
      <g>
       <use xlink:href="#m95fd3a7ad7" x="593.778506" y="319.93" style="stroke: #000000; stroke-width: 0.8"/>
      </g>
     </g>
     <g id="text_27">
      <!-- Sweden -->
      <g transform="translate(596.537881 366.44875) rotate(-90) scale(0.1 -0.1)">
       <use xlink:href="#DejaVuSans-53"/>
       <use xlink:href="#DejaVuSans-77" transform="translate(63.476562 0)"/>
       <use xlink:href="#DejaVuSans-65" transform="translate(145.263672 0)"/>
       <use xlink:href="#DejaVuSans-64" transform="translate(206.787109 0)"/>
       <use xlink:href="#DejaVuSans-65" transform="translate(270.263672 0)"/>
       <use xlink:href="#DejaVuSans-6e" transform="translate(331.787109 0)"/>
      </g>
     </g>
    </g>
    <g id="xtick_28">
     <g id="line2d_28">
      <g>
       <use xlink:href="#m95fd3a7ad7" x="613.209734" y="319.93" style="stroke: #000000; stroke-width: 0.8"/>
      </g>
     </g>
     <g id="text_28">
      <!-- Switzerland -->
      <g transform="translate(615.969109 385.259688) rotate(-90) scale(0.1 -0.1)">
       <use xlink:href="#DejaVuSans-53"/>
       <use xlink:href="#DejaVuSans-77" transform="translate(63.476562 0)"/>
       <use xlink:href="#DejaVuSans-69" transform="translate(145.263672 0)"/>
       <use xlink:href="#DejaVuSans-74" transform="translate(173.046875 0)"/>
       <use xlink:href="#DejaVuSans-7a" transform="translate(212.255859 0)"/>
       <use xlink:href="#DejaVuSans-65" transform="translate(264.746094 0)"/>
       <use xlink:href="#DejaVuSans-72" transform="translate(326.269531 0)"/>
       <use xlink:href="#DejaVuSans-6c" transform="translate(367.382812 0)"/>
       <use xlink:href="#DejaVuSans-61" transform="translate(395.166016 0)"/>
       <use xlink:href="#DejaVuSans-6e" transform="translate(456.445312 0)"/>
       <use xlink:href="#DejaVuSans-64" transform="translate(519.824219 0)"/>
      </g>
     </g>
    </g>
    <g id="xtick_29">
     <g id="line2d_29">
      <g>
       <use xlink:href="#m95fd3a7ad7" x="632.640962" y="319.93" style="stroke: #000000; stroke-width: 0.8"/>
      </g>
     </g>
     <g id="text_29">
      <!-- Turkey -->
      <g transform="translate(635.400337 359.47375) rotate(-90) scale(0.1 -0.1)">
       <defs>
        <path id="DejaVuSans-54" d="M -19 4666 
L 3928 4666 
L 3928 4134 
L 2272 4134 
L 2272 0 
L 1638 0 
L 1638 4134 
L -19 4134 
L -19 4666 
z
" transform="scale(0.015625)"/>
       </defs>
       <use xlink:href="#DejaVuSans-54"/>
       <use xlink:href="#DejaVuSans-75" transform="translate(45.958984 0)"/>
       <use xlink:href="#DejaVuSans-72" transform="translate(109.337891 0)"/>
       <use xlink:href="#DejaVuSans-6b" transform="translate(150.451172 0)"/>
       <use xlink:href="#DejaVuSans-65" transform="translate(204.736328 0)"/>
       <use xlink:href="#DejaVuSans-79" transform="translate(266.259766 0)"/>
      </g>
     </g>
    </g>
    <g id="xtick_30">
     <g id="line2d_30">
      <g>
       <use xlink:href="#m95fd3a7ad7" x="652.07219" y="319.93" style="stroke: #000000; stroke-width: 0.8"/>
      </g>
     </g>
     <g id="text_30">
      <!-- Ukraine -->
      <g transform="translate(654.831565 365.547188) rotate(-90) scale(0.1 -0.1)">
       <defs>
        <path id="DejaVuSans-55" d="M 556 4666 
L 1191 4666 
L 1191 1831 
Q 1191 1081 1462 751 
Q 1734 422 2344 422 
Q 2950 422 3222 751 
Q 3494 1081 3494 1831 
L 3494 4666 
L 4128 4666 
L 4128 1753 
Q 4128 841 3676 375 
Q 3225 -91 2344 -91 
Q 1459 -91 1007 375 
Q 556 841 556 1753 
L 556 4666 
z
" transform="scale(0.015625)"/>
       </defs>
       <use xlink:href="#DejaVuSans-55"/>
       <use xlink:href="#DejaVuSans-6b" transform="translate(73.193359 0)"/>
       <use xlink:href="#DejaVuSans-72" transform="translate(131.103516 0)"/>
       <use xlink:href="#DejaVuSans-61" transform="translate(172.216797 0)"/>
       <use xlink:href="#DejaVuSans-69" transform="translate(233.496094 0)"/>
       <use xlink:href="#DejaVuSans-6e" transform="translate(261.279297 0)"/>
       <use xlink:href="#DejaVuSans-65" transform="translate(324.658203 0)"/>
      </g>
     </g>
    </g>
    <g id="xtick_31">
     <g id="line2d_31">
      <g>
       <use xlink:href="#m95fd3a7ad7" x="671.503418" y="319.93" style="stroke: #000000; stroke-width: 0.8"/>
      </g>
     </g>
     <g id="text_31">
      <!-- United Kingdom -->
      <g transform="translate(674.262793 407.194063) rotate(-90) scale(0.1 -0.1)">
       <defs>
        <path id="DejaVuSans-4b" d="M 628 4666 
L 1259 4666 
L 1259 2694 
L 3353 4666 
L 4166 4666 
L 1850 2491 
L 4331 0 
L 3500 0 
L 1259 2247 
L 1259 0 
L 628 0 
L 628 4666 
z
" transform="scale(0.015625)"/>
       </defs>
       <use xlink:href="#DejaVuSans-55"/>
       <use xlink:href="#DejaVuSans-6e" transform="translate(73.193359 0)"/>
       <use xlink:href="#DejaVuSans-69" transform="translate(136.572266 0)"/>
       <use xlink:href="#DejaVuSans-74" transform="translate(164.355469 0)"/>
       <use xlink:href="#DejaVuSans-65" transform="translate(203.564453 0)"/>
       <use xlink:href="#DejaVuSans-64" transform="translate(265.087891 0)"/>
       <use xlink:href="#DejaVuSans-20" transform="translate(328.564453 0)"/>
       <use xlink:href="#DejaVuSans-4b" transform="translate(360.351562 0)"/>
       <use xlink:href="#DejaVuSans-69" transform="translate(425.927734 0)"/>
       <use xlink:href="#DejaVuSans-6e" transform="translate(453.710938 0)"/>
       <use xlink:href="#DejaVuSans-67" transform="translate(517.089844 0)"/>
       <use xlink:href="#DejaVuSans-64" transform="translate(580.566406 0)"/>
       <use xlink:href="#DejaVuSans-6f" transform="translate(644.042969 0)"/>
       <use xlink:href="#DejaVuSans-6d" transform="translate(705.224609 0)"/>
      </g>
     </g>
    </g>
    <g id="text_32">
     <!-- Country -->
     <g transform="translate(360.171719 418.7925) scale(0.1 -0.1)">
      <use xlink:href="#DejaVuSans-43"/>
      <use xlink:href="#DejaVuSans-6f" transform="translate(69.824219 0)"/>
      <use xlink:href="#DejaVuSans-75" transform="translate(131.005859 0)"/>
      <use xlink:href="#DejaVuSans-6e" transform="translate(194.384766 0)"/>
      <use xlink:href="#DejaVuSans-74" transform="translate(257.763672 0)"/>
      <use xlink:href="#DejaVuSans-72" transform="translate(296.972656 0)"/>
      <use xlink:href="#DejaVuSans-79" transform="translate(338.085938 0)"/>
     </g>
    </g>
   </g>
   <g id="matplotlib.axis_2">
    <g id="ytick_1">
     <g id="line2d_32">
      <defs>
       <path id="m1d99d0a395" d="M 0 0 
L -3.5 0 
" style="stroke: #000000; stroke-width: 0.8"/>
      </defs>
      <g>
       <use xlink:href="#m1d99d0a395" x="50.87" y="319.93" style="stroke: #000000; stroke-width: 0.8"/>
      </g>
     </g>
     <g id="text_33">
      <!-- 0 -->
      <g transform="translate(37.5075 323.729219) scale(0.1 -0.1)">
       <defs>
        <path id="DejaVuSans-30" d="M 2034 4250 
Q 1547 4250 1301 3770 
Q 1056 3291 1056 2328 
Q 1056 1369 1301 889 
Q 1547 409 2034 409 
Q 2525 409 2770 889 
Q 3016 1369 3016 2328 
Q 3016 3291 2770 3770 
Q 2525 4250 2034 4250 
z
M 2034 4750 
Q 2819 4750 3233 4129 
Q 3647 3509 3647 2328 
Q 3647 1150 3233 529 
Q 2819 -91 2034 -91 
Q 1250 -91 836 529 
Q 422 1150 422 2328 
Q 422 3509 836 4129 
Q 1250 4750 2034 4750 
z
" transform="scale(0.015625)"/>
       </defs>
       <use xlink:href="#DejaVuSans-30"/>
      </g>
     </g>
    </g>
    <g id="ytick_2">
     <g id="line2d_33">
      <g>
       <use xlink:href="#m1d99d0a395" x="50.87" y="276.321369" style="stroke: #000000; stroke-width: 0.8"/>
      </g>
     </g>
     <g id="text_34">
      <!-- 20 -->
      <g transform="translate(31.145 280.120588) scale(0.1 -0.1)">
       <defs>
        <path id="DejaVuSans-32" d="M 1228 531 
L 3431 531 
L 3431 0 
L 469 0 
L 469 531 
Q 828 903 1448 1529 
Q 2069 2156 2228 2338 
Q 2531 2678 2651 2914 
Q 2772 3150 2772 3378 
Q 2772 3750 2511 3984 
Q 2250 4219 1831 4219 
Q 1534 4219 1204 4116 
Q 875 4013 500 3803 
L 500 4441 
Q 881 4594 1212 4672 
Q 1544 4750 1819 4750 
Q 2544 4750 2975 4387 
Q 3406 4025 3406 3419 
Q 3406 3131 3298 2873 
Q 3191 2616 2906 2266 
Q 2828 2175 2409 1742 
Q 1991 1309 1228 531 
z
" transform="scale(0.015625)"/>
       </defs>
       <use xlink:href="#DejaVuSans-32"/>
       <use xlink:href="#DejaVuSans-30" transform="translate(63.623047 0)"/>
      </g>
     </g>
    </g>
    <g id="ytick_3">
     <g id="line2d_34">
      <g>
       <use xlink:href="#m1d99d0a395" x="50.87" y="232.712738" style="stroke: #000000; stroke-width: 0.8"/>
      </g>
     </g>
     <g id="text_35">
      <!-- 40 -->
      <g transform="translate(31.145 236.511957) scale(0.1 -0.1)">
       <defs>
        <path id="DejaVuSans-34" d="M 2419 4116 
L 825 1625 
L 2419 1625 
L 2419 4116 
z
M 2253 4666 
L 3047 4666 
L 3047 1625 
L 3713 1625 
L 3713 1100 
L 3047 1100 
L 3047 0 
L 2419 0 
L 2419 1100 
L 313 1100 
L 313 1709 
L 2253 4666 
z
" transform="scale(0.015625)"/>
       </defs>
       <use xlink:href="#DejaVuSans-34"/>
       <use xlink:href="#DejaVuSans-30" transform="translate(63.623047 0)"/>
      </g>
     </g>
    </g>
    <g id="ytick_4">
     <g id="line2d_35">
      <g>
       <use xlink:href="#m1d99d0a395" x="50.87" y="189.104107" style="stroke: #000000; stroke-width: 0.8"/>
      </g>
     </g>
     <g id="text_36">
      <!-- 60 -->
      <g transform="translate(31.145 192.903326) scale(0.1 -0.1)">
       <defs>
        <path id="DejaVuSans-36" d="M 2113 2584 
Q 1688 2584 1439 2293 
Q 1191 2003 1191 1497 
Q 1191 994 1439 701 
Q 1688 409 2113 409 
Q 2538 409 2786 701 
Q 3034 994 3034 1497 
Q 3034 2003 2786 2293 
Q 2538 2584 2113 2584 
z
M 3366 4563 
L 3366 3988 
Q 3128 4100 2886 4159 
Q 2644 4219 2406 4219 
Q 1781 4219 1451 3797 
Q 1122 3375 1075 2522 
Q 1259 2794 1537 2939 
Q 1816 3084 2150 3084 
Q 2853 3084 3261 2657 
Q 3669 2231 3669 1497 
Q 3669 778 3244 343 
Q 2819 -91 2113 -91 
Q 1303 -91 875 529 
Q 447 1150 447 2328 
Q 447 3434 972 4092 
Q 1497 4750 2381 4750 
Q 2619 4750 2861 4703 
Q 3103 4656 3366 4563 
z
" transform="scale(0.015625)"/>
       </defs>
       <use xlink:href="#DejaVuSans-36"/>
       <use xlink:href="#DejaVuSans-30" transform="translate(63.623047 0)"/>
      </g>
     </g>
    </g>
    <g id="ytick_5">
     <g id="line2d_36">
      <g>
       <use xlink:href="#m1d99d0a395" x="50.87" y="145.495476" style="stroke: #000000; stroke-width: 0.8"/>
      </g>
     </g>
     <g id="text_37">
      <!-- 80 -->
      <g transform="translate(31.145 149.294695) scale(0.1 -0.1)">
       <defs>
        <path id="DejaVuSans-38" d="M 2034 2216 
Q 1584 2216 1326 1975 
Q 1069 1734 1069 1313 
Q 1069 891 1326 650 
Q 1584 409 2034 409 
Q 2484 409 2743 651 
Q 3003 894 3003 1313 
Q 3003 1734 2745 1975 
Q 2488 2216 2034 2216 
z
M 1403 2484 
Q 997 2584 770 2862 
Q 544 3141 544 3541 
Q 544 4100 942 4425 
Q 1341 4750 2034 4750 
Q 2731 4750 3128 4425 
Q 3525 4100 3525 3541 
Q 3525 3141 3298 2862 
Q 3072 2584 2669 2484 
Q 3125 2378 3379 2068 
Q 3634 1759 3634 1313 
Q 3634 634 3220 271 
Q 2806 -91 2034 -91 
Q 1263 -91 848 271 
Q 434 634 434 1313 
Q 434 1759 690 2068 
Q 947 2378 1403 2484 
z
M 1172 3481 
Q 1172 3119 1398 2916 
Q 1625 2713 2034 2713 
Q 2441 2713 2670 2916 
Q 2900 3119 2900 3481 
Q 2900 3844 2670 4047 
Q 2441 4250 2034 4250 
Q 1625 4250 1398 4047 
Q 1172 3844 1172 3481 
z
" transform="scale(0.015625)"/>
       </defs>
       <use xlink:href="#DejaVuSans-38"/>
       <use xlink:href="#DejaVuSans-30" transform="translate(63.623047 0)"/>
      </g>
     </g>
    </g>
    <g id="ytick_6">
     <g id="line2d_37">
      <g>
       <use xlink:href="#m1d99d0a395" x="50.87" y="101.886845" style="stroke: #000000; stroke-width: 0.8"/>
      </g>
     </g>
     <g id="text_38">
      <!-- 100 -->
      <g transform="translate(24.7825 105.686064) scale(0.1 -0.1)">
       <defs>
        <path id="DejaVuSans-31" d="M 794 531 
L 1825 531 
L 1825 4091 
L 703 3866 
L 703 4441 
L 1819 4666 
L 2450 4666 
L 2450 531 
L 3481 531 
L 3481 0 
L 794 0 
L 794 531 
z
" transform="scale(0.015625)"/>
       </defs>
       <use xlink:href="#DejaVuSans-31"/>
       <use xlink:href="#DejaVuSans-30" transform="translate(63.623047 0)"/>
       <use xlink:href="#DejaVuSans-30" transform="translate(127.246094 0)"/>
      </g>
     </g>
    </g>
    <g id="ytick_7">
     <g id="line2d_38">
      <g>
       <use xlink:href="#m1d99d0a395" x="50.87" y="58.278214" style="stroke: #000000; stroke-width: 0.8"/>
      </g>
     </g>
     <g id="text_39">
      <!-- 120 -->
      <g transform="translate(24.7825 62.077433) scale(0.1 -0.1)">
       <use xlink:href="#DejaVuSans-31"/>
       <use xlink:href="#DejaVuSans-32" transform="translate(63.623047 0)"/>
       <use xlink:href="#DejaVuSans-30" transform="translate(127.246094 0)"/>
      </g>
     </g>
    </g>
    <g id="text_40">
     <!-- Number of Universities -->
     <g transform="translate(18.702813 230.821406) rotate(-90) scale(0.1 -0.1)">
      <defs>
       <path id="DejaVuSans-66" d="M 2375 4863 
L 2375 4384 
L 1825 4384 
Q 1516 4384 1395 4259 
Q 1275 4134 1275 3809 
L 1275 3500 
L 2222 3500 
L 2222 3053 
L 1275 3053 
L 1275 0 
L 697 0 
L 697 3053 
L 147 3053 
L 147 3500 
L 697 3500 
L 697 3744 
Q 697 4328 969 4595 
Q 1241 4863 1831 4863 
L 2375 4863 
z
" transform="scale(0.015625)"/>
      </defs>
      <use xlink:href="#DejaVuSans-4e"/>
      <use xlink:href="#DejaVuSans-75" transform="translate(74.804688 0)"/>
      <use xlink:href="#DejaVuSans-6d" transform="translate(138.183594 0)"/>
      <use xlink:href="#DejaVuSans-62" transform="translate(235.595703 0)"/>
      <use xlink:href="#DejaVuSans-65" transform="translate(299.072266 0)"/>
      <use xlink:href="#DejaVuSans-72" transform="translate(360.595703 0)"/>
      <use xlink:href="#DejaVuSans-20" transform="translate(401.708984 0)"/>
      <use xlink:href="#DejaVuSans-6f" transform="translate(433.496094 0)"/>
      <use xlink:href="#DejaVuSans-66" transform="translate(494.677734 0)"/>
      <use xlink:href="#DejaVuSans-20" transform="translate(529.882812 0)"/>
      <use xlink:href="#DejaVuSans-55" transform="translate(561.669922 0)"/>
      <use xlink:href="#DejaVuSans-6e" transform="translate(634.863281 0)"/>
      <use xlink:href="#DejaVuSans-69" transform="translate(698.242188 0)"/>
      <use xlink:href="#DejaVuSans-76" transform="translate(726.025391 0)"/>
      <use xlink:href="#DejaVuSans-65" transform="translate(785.205078 0)"/>
      <use xlink:href="#DejaVuSans-72" transform="translate(846.728516 0)"/>
      <use xlink:href="#DejaVuSans-73" transform="translate(887.841797 0)"/>
      <use xlink:href="#DejaVuSans-69" transform="translate(939.941406 0)"/>
      <use xlink:href="#DejaVuSans-74" transform="translate(967.724609 0)"/>
      <use xlink:href="#DejaVuSans-69" transform="translate(1006.933594 0)"/>
      <use xlink:href="#DejaVuSans-65" transform="translate(1034.716797 0)"/>
      <use xlink:href="#DejaVuSans-73" transform="translate(1096.240234 0)"/>
     </g>
    </g>
   </g>
   <g id="patch_65">
    <path d="M 50.87 319.93 
L 50.87 26.88 
" style="fill: none; stroke: #000000; stroke-width: 0.8; stroke-linejoin: miter; stroke-linecap: square"/>
   </g>
   <g id="patch_66">
    <path d="M 709.2 319.93 
L 709.2 26.88 
" style="fill: none; stroke: #000000; stroke-width: 0.8; stroke-linejoin: miter; stroke-linecap: square"/>
   </g>
   <g id="patch_67">
    <path d="M 50.87 319.93 
L 709.2 319.93 
" style="fill: none; stroke: #000000; stroke-width: 0.8; stroke-linejoin: miter; stroke-linecap: square"/>
   </g>
   <g id="patch_68">
    <path d="M 50.87 26.88 
L 709.2 26.88 
" style="fill: none; stroke: #000000; stroke-width: 0.8; stroke-linejoin: miter; stroke-linecap: square"/>
   </g>
   <g id="text_41">
    <!-- Number of Research Data Policies Found by Country -->
    <g transform="translate(223.252188 20.88) scale(0.12 -0.12)">
     <use xlink:href="#DejaVuSans-4e"/>
     <use xlink:href="#DejaVuSans-75" transform="translate(74.804688 0)"/>
     <use xlink:href="#DejaVuSans-6d" transform="translate(138.183594 0)"/>
     <use xlink:href="#DejaVuSans-62" transform="translate(235.595703 0)"/>
     <use xlink:href="#DejaVuSans-65" transform="translate(299.072266 0)"/>
     <use xlink:href="#DejaVuSans-72" transform="translate(360.595703 0)"/>
     <use xlink:href="#DejaVuSans-20" transform="translate(401.708984 0)"/>
     <use xlink:href="#DejaVuSans-6f" transform="translate(433.496094 0)"/>
     <use xlink:href="#DejaVuSans-66" transform="translate(494.677734 0)"/>
     <use xlink:href="#DejaVuSans-20" transform="translate(529.882812 0)"/>
     <use xlink:href="#DejaVuSans-52" transform="translate(561.669922 0)"/>
     <use xlink:href="#DejaVuSans-65" transform="translate(626.652344 0)"/>
     <use xlink:href="#DejaVuSans-73" transform="translate(688.175781 0)"/>
     <use xlink:href="#DejaVuSans-65" transform="translate(740.275391 0)"/>
     <use xlink:href="#DejaVuSans-61" transform="translate(801.798828 0)"/>
     <use xlink:href="#DejaVuSans-72" transform="translate(863.078125 0)"/>
     <use xlink:href="#DejaVuSans-63" transform="translate(901.941406 0)"/>
     <use xlink:href="#DejaVuSans-68" transform="translate(956.921875 0)"/>
     <use xlink:href="#DejaVuSans-20" transform="translate(1020.300781 0)"/>
     <use xlink:href="#DejaVuSans-44" transform="translate(1052.087891 0)"/>
     <use xlink:href="#DejaVuSans-61" transform="translate(1129.089844 0)"/>
     <use xlink:href="#DejaVuSans-74" transform="translate(1190.369141 0)"/>
     <use xlink:href="#DejaVuSans-61" transform="translate(1229.578125 0)"/>
     <use xlink:href="#DejaVuSans-20" transform="translate(1290.857422 0)"/>
     <use xlink:href="#DejaVuSans-50" transform="translate(1322.644531 0)"/>
     <use xlink:href="#DejaVuSans-6f" transform="translate(1379.322266 0)"/>
     <use xlink:href="#DejaVuSans-6c" transform="translate(1440.503906 0)"/>
     <use xlink:href="#DejaVuSans-69" transform="translate(1468.287109 0)"/>
     <use xlink:href="#DejaVuSans-63" transform="translate(1496.070312 0)"/>
     <use xlink:href="#DejaVuSans-69" transform="translate(1551.050781 0)"/>
     <use xlink:href="#DejaVuSans-65" transform="translate(1578.833984 0)"/>
     <use xlink:href="#DejaVuSans-73" transform="translate(1640.357422 0)"/>
     <use xlink:href="#DejaVuSans-20" transform="translate(1692.457031 0)"/>
     <use xlink:href="#DejaVuSans-46" transform="translate(1724.244141 0)"/>
     <use xlink:href="#DejaVuSans-6f" transform="translate(1778.138672 0)"/>
     <use xlink:href="#DejaVuSans-75" transform="translate(1839.320312 0)"/>
     <use xlink:href="#DejaVuSans-6e" transform="translate(1902.699219 0)"/>
     <use xlink:href="#DejaVuSans-64" transform="translate(1966.078125 0)"/>
     <use xlink:href="#DejaVuSans-20" transform="translate(2029.554688 0)"/>
     <use xlink:href="#DejaVuSans-62" transform="translate(2061.341797 0)"/>
     <use xlink:href="#DejaVuSans-79" transform="translate(2124.818359 0)"/>
     <use xlink:href="#DejaVuSans-20" transform="translate(2183.998047 0)"/>
     <use xlink:href="#DejaVuSans-43" transform="translate(2215.785156 0)"/>
     <use xlink:href="#DejaVuSans-6f" transform="translate(2285.609375 0)"/>
     <use xlink:href="#DejaVuSans-75" transform="translate(2346.791016 0)"/>
     <use xlink:href="#DejaVuSans-6e" transform="translate(2410.169922 0)"/>
     <use xlink:href="#DejaVuSans-74" transform="translate(2473.548828 0)"/>
     <use xlink:href="#DejaVuSans-72" transform="translate(2512.757812 0)"/>
     <use xlink:href="#DejaVuSans-79" transform="translate(2553.871094 0)"/>
    </g>
   </g>
   <g id="legend_1">
    <g id="patch_69">
     <path d="M 57.87 78.914375 
L 178.604375 78.914375 
Q 180.604375 78.914375 180.604375 76.914375 
L 180.604375 33.88 
Q 180.604375 31.88 178.604375 31.88 
L 57.87 31.88 
Q 55.87 31.88 55.87 33.88 
L 55.87 76.914375 
Q 55.87 78.914375 57.87 78.914375 
z
" style="fill: #ffffff; opacity: 0.8; stroke: #cccccc; stroke-linejoin: miter"/>
    </g>
    <g id="text_42">
     <!-- Found valid RDM policy -->
     <g transform="translate(59.87 43.478437) scale(0.1 -0.1)">
      <use xlink:href="#DejaVuSans-46"/>
      <use xlink:href="#DejaVuSans-6f" transform="translate(53.894531 0)"/>
      <use xlink:href="#DejaVuSans-75" transform="translate(115.076172 0)"/>
      <use xlink:href="#DejaVuSans-6e" transform="translate(178.455078 0)"/>
      <use xlink:href="#DejaVuSans-64" transform="translate(241.833984 0)"/>
      <use xlink:href="#DejaVuSans-20" transform="translate(305.310547 0)"/>
      <use xlink:href="#DejaVuSans-76" transform="translate(337.097656 0)"/>
      <use xlink:href="#DejaVuSans-61" transform="translate(396.277344 0)"/>
      <use xlink:href="#DejaVuSans-6c" transform="translate(457.556641 0)"/>
      <use xlink:href="#DejaVuSans-69" transform="translate(485.339844 0)"/>
      <use xlink:href="#DejaVuSans-64" transform="translate(513.123047 0)"/>
      <use xlink:href="#DejaVuSans-20" transform="translate(576.599609 0)"/>
      <use xlink:href="#DejaVuSans-52" transform="translate(608.386719 0)"/>
      <use xlink:href="#DejaVuSans-44" transform="translate(677.869141 0)"/>
      <use xlink:href="#DejaVuSans-4d" transform="translate(754.871094 0)"/>
      <use xlink:href="#DejaVuSans-20" transform="translate(841.150391 0)"/>
      <use xlink:href="#DejaVuSans-70" transform="translate(872.9375 0)"/>
      <use xlink:href="#DejaVuSans-6f" transform="translate(936.414062 0)"/>
      <use xlink:href="#DejaVuSans-6c" transform="translate(997.595703 0)"/>
      <use xlink:href="#DejaVuSans-69" transform="translate(1025.378906 0)"/>
      <use xlink:href="#DejaVuSans-63" transform="translate(1053.162109 0)"/>
      <use xlink:href="#DejaVuSans-79" transform="translate(1108.142578 0)"/>
     </g>
    </g>
    <g id="patch_70">
     <path d="M 91.683281 58.156563 
L 111.683281 58.156563 
L 111.683281 51.156563 
L 91.683281 51.156563 
z
" style="fill: #1f77b4"/>
    </g>
    <g id="text_43">
     <!-- True -->
     <g transform="translate(119.683281 58.156563) scale(0.1 -0.1)">
      <use xlink:href="#DejaVuSans-54"/>
      <use xlink:href="#DejaVuSans-72" transform="translate(46.333984 0)"/>
      <use xlink:href="#DejaVuSans-75" transform="translate(87.447266 0)"/>
      <use xlink:href="#DejaVuSans-65" transform="translate(150.826172 0)"/>
     </g>
    </g>
    <g id="patch_71">
     <path d="M 91.683281 72.834688 
L 111.683281 72.834688 
L 111.683281 65.834688 
L 91.683281 65.834688 
z
" style="fill: #ff7f0e"/>
    </g>
    <g id="text_44">
     <!-- False -->
     <g transform="translate(119.683281 72.834688) scale(0.1 -0.1)">
      <use xlink:href="#DejaVuSans-46"/>
      <use xlink:href="#DejaVuSans-61" transform="translate(48.394531 0)"/>
      <use xlink:href="#DejaVuSans-6c" transform="translate(109.673828 0)"/>
      <use xlink:href="#DejaVuSans-73" transform="translate(137.457031 0)"/>
      <use xlink:href="#DejaVuSans-65" transform="translate(189.556641 0)"/>
     </g>
    </g>
   </g>
  </g>
 </g>
 <defs>
  <clipPath id="p04b4906d29">
   <rect x="50.87" y="26.88" width="658.33" height="293.05"/>
  </clipPath>
 </defs>
</svg>
