<?xml version="1.0" encoding="utf-8" standalone="no"?>
<!DOCTYPE svg PUBLIC "-//W3C//DTD SVG 1.1//EN"
  "http://www.w3.org/Graphics/SVG/1.1/DTD/svg11.dtd">
<svg xmlns:xlink="http://www.w3.org/1999/xlink" width="460.8pt" height="345.6pt" viewBox="0 0 460.8 345.6" xmlns="http://www.w3.org/2000/svg" version="1.1">
 <metadata>
  <rdf:RDF xmlns:dc="http://purl.org/dc/elements/1.1/" xmlns:cc="http://creativecommons.org/ns#" xmlns:rdf="http://www.w3.org/1999/02/22-rdf-syntax-ns#">
   <cc:Work>
    <dc:type rdf:resource="http://purl.org/dc/dcmitype/StillImage"/>
    <dc:date>2025-01-25T14:04:10.812338</dc:date>
    <dc:format>image/svg+xml</dc:format>
    <dc:creator>
     <cc:Agent>
      <dc:title>Matplotlib v3.10.0, https://matplotlib.org/</dc:title>
     </cc:Agent>
    </dc:creator>
   </cc:Work>
  </rdf:RDF>
 </metadata>
 <defs>
  <style type="text/css">*{stroke-linejoin: round; stroke-linecap: butt}</style>
 </defs>
 <g id="figure_1">
  <g id="patch_1">
   <path d="M 0 345.6 
L 460.8 345.6 
L 460.8 0 
L 0 0 
z
" style="fill: #ffffff"/>
  </g>
  <g id="axes_1">
   <g id="patch_2">
    <path d="M 57.6 307.584 
L 414.72 307.584 
L 414.72 41.472 
L 57.6 41.472 
z
" style="fill: #ffffff"/>
   </g>
   <g id="matplotlib.axis_1">
    <g id="xtick_1">
     <g id="line2d_1">
      <defs>
       <path id="m53167413e3" d="M 0 0 
L 0 3.5 
" style="stroke: #000000; stroke-width: 0.8"/>
      </defs>
      <g>
       <use xlink:href="#m53167413e3" x="236.16" y="307.584" style="stroke: #000000; stroke-width: 0.8"/>
      </g>
     </g>
     <g id="text_1">
      <!-- 1 -->
      <g transform="translate(232.97875 322.182437) scale(0.1 -0.1)">
       <defs>
        <path id="DejaVuSans-31" d="M 794 531 
L 1825 531 
L 1825 4091 
L 703 3866 
L 703 4441 
L 1819 4666 
L 2450 4666 
L 2450 531 
L 3481 531 
L 3481 0 
L 794 0 
L 794 531 
z
" transform="scale(0.015625)"/>
       </defs>
       <use xlink:href="#DejaVuSans-31"/>
      </g>
     </g>
    </g>
   </g>
   <g id="matplotlib.axis_2">
    <g id="ytick_1">
     <g id="line2d_2">
      <defs>
       <path id="m3c42611fa4" d="M 0 0 
L -3.5 0 
" style="stroke: #000000; stroke-width: 0.8"/>
      </defs>
      <g>
       <use xlink:href="#m3c42611fa4" x="57.6" y="295.674955" style="stroke: #000000; stroke-width: 0.8"/>
      </g>
     </g>
     <g id="text_2">
      <!-- 0 -->
      <g transform="translate(44.2375 299.474174) scale(0.1 -0.1)">
       <defs>
        <path id="DejaVuSans-30" d="M 2034 4250 
Q 1547 4250 1301 3770 
Q 1056 3291 1056 2328 
Q 1056 1369 1301 889 
Q 1547 409 2034 409 
Q 2525 409 2770 889 
Q 3016 1369 3016 2328 
Q 3016 3291 2770 3770 
Q 2525 4250 2034 4250 
z
M 2034 4750 
Q 2819 4750 3233 4129 
Q 3647 3509 3647 2328 
Q 3647 1150 3233 529 
Q 2819 -91 2034 -91 
Q 1250 -91 836 529 
Q 422 1150 422 2328 
Q 422 3509 836 4129 
Q 1250 4750 2034 4750 
z
" transform="scale(0.015625)"/>
       </defs>
       <use xlink:href="#DejaVuSans-30"/>
      </g>
     </g>
    </g>
    <g id="ytick_2">
     <g id="line2d_3">
      <g>
       <use xlink:href="#m3c42611fa4" x="57.6" y="258.28392" style="stroke: #000000; stroke-width: 0.8"/>
      </g>
     </g>
     <g id="text_3">
      <!-- 200 -->
      <g transform="translate(31.5125 262.083138) scale(0.1 -0.1)">
       <defs>
        <path id="DejaVuSans-32" d="M 1228 531 
L 3431 531 
L 3431 0 
L 469 0 
L 469 531 
Q 828 903 1448 1529 
Q 2069 2156 2228 2338 
Q 2531 2678 2651 2914 
Q 2772 3150 2772 3378 
Q 2772 3750 2511 3984 
Q 2250 4219 1831 4219 
Q 1534 4219 1204 4116 
Q 875 4013 500 3803 
L 500 4441 
Q 881 4594 1212 4672 
Q 1544 4750 1819 4750 
Q 2544 4750 2975 4387 
Q 3406 4025 3406 3419 
Q 3406 3131 3298 2873 
Q 3191 2616 2906 2266 
Q 2828 2175 2409 1742 
Q 1991 1309 1228 531 
z
" transform="scale(0.015625)"/>
       </defs>
       <use xlink:href="#DejaVuSans-32"/>
       <use xlink:href="#DejaVuSans-30" transform="translate(63.623047 0)"/>
       <use xlink:href="#DejaVuSans-30" transform="translate(127.246094 0)"/>
      </g>
     </g>
    </g>
    <g id="ytick_3">
     <g id="line2d_4">
      <g>
       <use xlink:href="#m3c42611fa4" x="57.6" y="220.892884" style="stroke: #000000; stroke-width: 0.8"/>
      </g>
     </g>
     <g id="text_4">
      <!-- 400 -->
      <g transform="translate(31.5125 224.692103) scale(0.1 -0.1)">
       <defs>
        <path id="DejaVuSans-34" d="M 2419 4116 
L 825 1625 
L 2419 1625 
L 2419 4116 
z
M 2253 4666 
L 3047 4666 
L 3047 1625 
L 3713 1625 
L 3713 1100 
L 3047 1100 
L 3047 0 
L 2419 0 
L 2419 1100 
L 313 1100 
L 313 1709 
L 2253 4666 
z
" transform="scale(0.015625)"/>
       </defs>
       <use xlink:href="#DejaVuSans-34"/>
       <use xlink:href="#DejaVuSans-30" transform="translate(63.623047 0)"/>
       <use xlink:href="#DejaVuSans-30" transform="translate(127.246094 0)"/>
      </g>
     </g>
    </g>
    <g id="ytick_4">
     <g id="line2d_5">
      <g>
       <use xlink:href="#m3c42611fa4" x="57.6" y="183.501849" style="stroke: #000000; stroke-width: 0.8"/>
      </g>
     </g>
     <g id="text_5">
      <!-- 600 -->
      <g transform="translate(31.5125 187.301067) scale(0.1 -0.1)">
       <defs>
        <path id="DejaVuSans-36" d="M 2113 2584 
Q 1688 2584 1439 2293 
Q 1191 2003 1191 1497 
Q 1191 994 1439 701 
Q 1688 409 2113 409 
Q 2538 409 2786 701 
Q 3034 994 3034 1497 
Q 3034 2003 2786 2293 
Q 2538 2584 2113 2584 
z
M 3366 4563 
L 3366 3988 
Q 3128 4100 2886 4159 
Q 2644 4219 2406 4219 
Q 1781 4219 1451 3797 
Q 1122 3375 1075 2522 
Q 1259 2794 1537 2939 
Q 1816 3084 2150 3084 
Q 2853 3084 3261 2657 
Q 3669 2231 3669 1497 
Q 3669 778 3244 343 
Q 2819 -91 2113 -91 
Q 1303 -91 875 529 
Q 447 1150 447 2328 
Q 447 3434 972 4092 
Q 1497 4750 2381 4750 
Q 2619 4750 2861 4703 
Q 3103 4656 3366 4563 
z
" transform="scale(0.015625)"/>
       </defs>
       <use xlink:href="#DejaVuSans-36"/>
       <use xlink:href="#DejaVuSans-30" transform="translate(63.623047 0)"/>
       <use xlink:href="#DejaVuSans-30" transform="translate(127.246094 0)"/>
      </g>
     </g>
    </g>
    <g id="ytick_5">
     <g id="line2d_6">
      <g>
       <use xlink:href="#m3c42611fa4" x="57.6" y="146.110813" style="stroke: #000000; stroke-width: 0.8"/>
      </g>
     </g>
     <g id="text_6">
      <!-- 800 -->
      <g transform="translate(31.5125 149.910032) scale(0.1 -0.1)">
       <defs>
        <path id="DejaVuSans-38" d="M 2034 2216 
Q 1584 2216 1326 1975 
Q 1069 1734 1069 1313 
Q 1069 891 1326 650 
Q 1584 409 2034 409 
Q 2484 409 2743 651 
Q 3003 894 3003 1313 
Q 3003 1734 2745 1975 
Q 2488 2216 2034 2216 
z
M 1403 2484 
Q 997 2584 770 2862 
Q 544 3141 544 3541 
Q 544 4100 942 4425 
Q 1341 4750 2034 4750 
Q 2731 4750 3128 4425 
Q 3525 4100 3525 3541 
Q 3525 3141 3298 2862 
Q 3072 2584 2669 2484 
Q 3125 2378 3379 2068 
Q 3634 1759 3634 1313 
Q 3634 634 3220 271 
Q 2806 -91 2034 -91 
Q 1263 -91 848 271 
Q 434 634 434 1313 
Q 434 1759 690 2068 
Q 947 2378 1403 2484 
z
M 1172 3481 
Q 1172 3119 1398 2916 
Q 1625 2713 2034 2713 
Q 2441 2713 2670 2916 
Q 2900 3119 2900 3481 
Q 2900 3844 2670 4047 
Q 2441 4250 2034 4250 
Q 1625 4250 1398 4047 
Q 1172 3844 1172 3481 
z
" transform="scale(0.015625)"/>
       </defs>
       <use xlink:href="#DejaVuSans-38"/>
       <use xlink:href="#DejaVuSans-30" transform="translate(63.623047 0)"/>
       <use xlink:href="#DejaVuSans-30" transform="translate(127.246094 0)"/>
      </g>
     </g>
    </g>
    <g id="ytick_6">
     <g id="line2d_7">
      <g>
       <use xlink:href="#m3c42611fa4" x="57.6" y="108.719777" style="stroke: #000000; stroke-width: 0.8"/>
      </g>
     </g>
     <g id="text_7">
      <!-- 1000 -->
      <g transform="translate(25.15 112.518996) scale(0.1 -0.1)">
       <use xlink:href="#DejaVuSans-31"/>
       <use xlink:href="#DejaVuSans-30" transform="translate(63.623047 0)"/>
       <use xlink:href="#DejaVuSans-30" transform="translate(127.246094 0)"/>
       <use xlink:href="#DejaVuSans-30" transform="translate(190.869141 0)"/>
      </g>
     </g>
    </g>
    <g id="ytick_7">
     <g id="line2d_8">
      <g>
       <use xlink:href="#m3c42611fa4" x="57.6" y="71.328742" style="stroke: #000000; stroke-width: 0.8"/>
      </g>
     </g>
     <g id="text_8">
      <!-- 1200 -->
      <g transform="translate(25.15 75.127961) scale(0.1 -0.1)">
       <use xlink:href="#DejaVuSans-31"/>
       <use xlink:href="#DejaVuSans-32" transform="translate(63.623047 0)"/>
       <use xlink:href="#DejaVuSans-30" transform="translate(127.246094 0)"/>
       <use xlink:href="#DejaVuSans-30" transform="translate(190.869141 0)"/>
      </g>
     </g>
    </g>
   </g>
   <g id="line2d_9">
    <path d="M 209.376 289.505434 
L 262.944 289.505434 
L 262.944 265.014306 
L 209.376 265.014306 
L 209.376 289.505434 
" clip-path="url(#p8cd6dec766)" style="fill: none; stroke: #000000; stroke-linecap: square"/>
   </g>
   <g id="line2d_10">
    <path d="M 236.16 289.505434 
L 236.16 295.488 
" clip-path="url(#p8cd6dec766)" style="fill: none; stroke: #000000; stroke-linecap: square"/>
   </g>
   <g id="line2d_11">
    <path d="M 236.16 265.014306 
L 236.16 228.371091 
" clip-path="url(#p8cd6dec766)" style="fill: none; stroke: #000000; stroke-linecap: square"/>
   </g>
   <g id="line2d_12">
    <path d="M 222.768 295.488 
L 249.552 295.488 
" clip-path="url(#p8cd6dec766)" style="fill: none; stroke: #000000; stroke-linecap: square"/>
   </g>
   <g id="line2d_13">
    <path d="M 222.768 228.371091 
L 249.552 228.371091 
" clip-path="url(#p8cd6dec766)" style="fill: none; stroke: #000000; stroke-linecap: square"/>
   </g>
   <g id="line2d_14">
    <defs>
     <path id="meb8f6d26b5" d="M 0 3 
C 0.795609 3 1.55874 2.683901 2.12132 2.12132 
C 2.683901 1.55874 3 0.795609 3 0 
C 3 -0.795609 2.683901 -1.55874 2.12132 -2.12132 
C 1.55874 -2.683901 0.795609 -3 0 -3 
C -0.795609 -3 -1.55874 -2.683901 -2.12132 -2.12132 
C -2.683901 -1.55874 -3 -0.795609 -3 0 
C -3 0.795609 -2.683901 1.55874 -2.12132 2.12132 
C -1.55874 2.683901 -0.795609 3 0 3 
z
" style="stroke: #000000"/>
    </defs>
    <g clip-path="url(#p8cd6dec766)">
     <use xlink:href="#meb8f6d26b5" x="236.16" y="222.388526" style="fill-opacity: 0; stroke: #000000"/>
     <use xlink:href="#meb8f6d26b5" x="236.16" y="224.818943" style="fill-opacity: 0; stroke: #000000"/>
     <use xlink:href="#meb8f6d26b5" x="236.16" y="177.893193" style="fill-opacity: 0; stroke: #000000"/>
     <use xlink:href="#meb8f6d26b5" x="236.16" y="219.584198" style="fill-opacity: 0; stroke: #000000"/>
     <use xlink:href="#meb8f6d26b5" x="236.16" y="220.518974" style="fill-opacity: 0; stroke: #000000"/>
     <use xlink:href="#meb8f6d26b5" x="236.16" y="226.501539" style="fill-opacity: 0; stroke: #000000"/>
     <use xlink:href="#meb8f6d26b5" x="236.16" y="223.697212" style="fill-opacity: 0; stroke: #000000"/>
     <use xlink:href="#meb8f6d26b5" x="236.16" y="216.77987" style="fill-opacity: 0; stroke: #000000"/>
     <use xlink:href="#meb8f6d26b5" x="236.16" y="173.780179" style="fill-opacity: 0; stroke: #000000"/>
     <use xlink:href="#meb8f6d26b5" x="236.16" y="214.723363" style="fill-opacity: 0; stroke: #000000"/>
     <use xlink:href="#meb8f6d26b5" x="236.16" y="211.73208" style="fill-opacity: 0; stroke: #000000"/>
     <use xlink:href="#meb8f6d26b5" x="236.16" y="202.010411" style="fill-opacity: 0; stroke: #000000"/>
     <use xlink:href="#meb8f6d26b5" x="236.16" y="219.958108" style="fill-opacity: 0; stroke: #000000"/>
     <use xlink:href="#meb8f6d26b5" x="236.16" y="227.436315" style="fill-opacity: 0; stroke: #000000"/>
     <use xlink:href="#meb8f6d26b5" x="236.16" y="180.697521" style="fill-opacity: 0; stroke: #000000"/>
     <use xlink:href="#meb8f6d26b5" x="236.16" y="227.062405" style="fill-opacity: 0; stroke: #000000"/>
     <use xlink:href="#meb8f6d26b5" x="236.16" y="219.584198" style="fill-opacity: 0; stroke: #000000"/>
     <use xlink:href="#meb8f6d26b5" x="236.16" y="200.140859" style="fill-opacity: 0; stroke: #000000"/>
     <use xlink:href="#meb8f6d26b5" x="236.16" y="202.945187" style="fill-opacity: 0; stroke: #000000"/>
     <use xlink:href="#meb8f6d26b5" x="236.16" y="201.823456" style="fill-opacity: 0; stroke: #000000"/>
     <use xlink:href="#meb8f6d26b5" x="236.16" y="224.071122" style="fill-opacity: 0; stroke: #000000"/>
     <use xlink:href="#meb8f6d26b5" x="236.16" y="218.088556" style="fill-opacity: 0; stroke: #000000"/>
     <use xlink:href="#meb8f6d26b5" x="236.16" y="215.284229" style="fill-opacity: 0; stroke: #000000"/>
     <use xlink:href="#meb8f6d26b5" x="236.16" y="211.171215" style="fill-opacity: 0; stroke: #000000"/>
     <use xlink:href="#meb8f6d26b5" x="236.16" y="224.258077" style="fill-opacity: 0; stroke: #000000"/>
     <use xlink:href="#meb8f6d26b5" x="236.16" y="211.171215" style="fill-opacity: 0; stroke: #000000"/>
     <use xlink:href="#meb8f6d26b5" x="236.16" y="142.558665" style="fill-opacity: 0; stroke: #000000"/>
     <use xlink:href="#meb8f6d26b5" x="236.16" y="218.462467" style="fill-opacity: 0; stroke: #000000"/>
     <use xlink:href="#meb8f6d26b5" x="236.16" y="201.636501" style="fill-opacity: 0; stroke: #000000"/>
     <use xlink:href="#meb8f6d26b5" x="236.16" y="200.51477" style="fill-opacity: 0; stroke: #000000"/>
     <use xlink:href="#meb8f6d26b5" x="236.16" y="225.753719" style="fill-opacity: 0; stroke: #000000"/>
     <use xlink:href="#meb8f6d26b5" x="236.16" y="218.836377" style="fill-opacity: 0; stroke: #000000"/>
     <use xlink:href="#meb8f6d26b5" x="236.16" y="214.162498" style="fill-opacity: 0; stroke: #000000"/>
     <use xlink:href="#meb8f6d26b5" x="236.16" y="211.545125" style="fill-opacity: 0; stroke: #000000"/>
     <use xlink:href="#meb8f6d26b5" x="236.16" y="225.753719" style="fill-opacity: 0; stroke: #000000"/>
     <use xlink:href="#meb8f6d26b5" x="236.16" y="217.527691" style="fill-opacity: 0; stroke: #000000"/>
     <use xlink:href="#meb8f6d26b5" x="236.16" y="216.219005" style="fill-opacity: 0; stroke: #000000"/>
     <use xlink:href="#meb8f6d26b5" x="236.16" y="195.84089" style="fill-opacity: 0; stroke: #000000"/>
     <use xlink:href="#meb8f6d26b5" x="236.16" y="196.401756" style="fill-opacity: 0; stroke: #000000"/>
     <use xlink:href="#meb8f6d26b5" x="236.16" y="219.023332" style="fill-opacity: 0; stroke: #000000"/>
     <use xlink:href="#meb8f6d26b5" x="236.16" y="221.82766" style="fill-opacity: 0; stroke: #000000"/>
     <use xlink:href="#meb8f6d26b5" x="236.16" y="217.714646" style="fill-opacity: 0; stroke: #000000"/>
     <use xlink:href="#meb8f6d26b5" x="236.16" y="202.758232" style="fill-opacity: 0; stroke: #000000"/>
     <use xlink:href="#meb8f6d26b5" x="236.16" y="221.45375" style="fill-opacity: 0; stroke: #000000"/>
     <use xlink:href="#meb8f6d26b5" x="236.16" y="221.45375" style="fill-opacity: 0; stroke: #000000"/>
     <use xlink:href="#meb8f6d26b5" x="236.16" y="211.171215" style="fill-opacity: 0; stroke: #000000"/>
     <use xlink:href="#meb8f6d26b5" x="236.16" y="206.684291" style="fill-opacity: 0; stroke: #000000"/>
     <use xlink:href="#meb8f6d26b5" x="236.16" y="200.140859" style="fill-opacity: 0; stroke: #000000"/>
     <use xlink:href="#meb8f6d26b5" x="236.16" y="205.93647" style="fill-opacity: 0; stroke: #000000"/>
     <use xlink:href="#meb8f6d26b5" x="236.16" y="227.62327" style="fill-opacity: 0; stroke: #000000"/>
     <use xlink:href="#meb8f6d26b5" x="236.16" y="221.079839" style="fill-opacity: 0; stroke: #000000"/>
     <use xlink:href="#meb8f6d26b5" x="236.16" y="223.697212" style="fill-opacity: 0; stroke: #000000"/>
     <use xlink:href="#meb8f6d26b5" x="236.16" y="227.997181" style="fill-opacity: 0; stroke: #000000"/>
     <use xlink:href="#meb8f6d26b5" x="236.16" y="225.005898" style="fill-opacity: 0; stroke: #000000"/>
     <use xlink:href="#meb8f6d26b5" x="236.16" y="213.975543" style="fill-opacity: 0; stroke: #000000"/>
     <use xlink:href="#meb8f6d26b5" x="236.16" y="225.566764" style="fill-opacity: 0; stroke: #000000"/>
     <use xlink:href="#meb8f6d26b5" x="236.16" y="220.518974" style="fill-opacity: 0; stroke: #000000"/>
     <use xlink:href="#meb8f6d26b5" x="236.16" y="216.40596" style="fill-opacity: 0; stroke: #000000"/>
     <use xlink:href="#meb8f6d26b5" x="236.16" y="203.693008" style="fill-opacity: 0; stroke: #000000"/>
     <use xlink:href="#meb8f6d26b5" x="236.16" y="200.88868" style="fill-opacity: 0; stroke: #000000"/>
     <use xlink:href="#meb8f6d26b5" x="236.16" y="145.362992" style="fill-opacity: 0; stroke: #000000"/>
     <use xlink:href="#meb8f6d26b5" x="236.16" y="217.153781" style="fill-opacity: 0; stroke: #000000"/>
     <use xlink:href="#meb8f6d26b5" x="236.16" y="151.158603" style="fill-opacity: 0; stroke: #000000"/>
     <use xlink:href="#meb8f6d26b5" x="236.16" y="201.636501" style="fill-opacity: 0; stroke: #000000"/>
     <use xlink:href="#meb8f6d26b5" x="236.16" y="225.753719" style="fill-opacity: 0; stroke: #000000"/>
     <use xlink:href="#meb8f6d26b5" x="236.16" y="227.62327" style="fill-opacity: 0; stroke: #000000"/>
     <use xlink:href="#meb8f6d26b5" x="236.16" y="203.879963" style="fill-opacity: 0; stroke: #000000"/>
     <use xlink:href="#meb8f6d26b5" x="236.16" y="205.001694" style="fill-opacity: 0; stroke: #000000"/>
     <use xlink:href="#meb8f6d26b5" x="236.16" y="219.210287" style="fill-opacity: 0; stroke: #000000"/>
     <use xlink:href="#meb8f6d26b5" x="236.16" y="210.236439" style="fill-opacity: 0; stroke: #000000"/>
     <use xlink:href="#meb8f6d26b5" x="236.16" y="226.314584" style="fill-opacity: 0; stroke: #000000"/>
     <use xlink:href="#meb8f6d26b5" x="236.16" y="134.332637" style="fill-opacity: 0; stroke: #000000"/>
     <use xlink:href="#meb8f6d26b5" x="236.16" y="200.327815" style="fill-opacity: 0; stroke: #000000"/>
     <use xlink:href="#meb8f6d26b5" x="236.16" y="224.818943" style="fill-opacity: 0; stroke: #000000"/>
     <use xlink:href="#meb8f6d26b5" x="236.16" y="225.379808" style="fill-opacity: 0; stroke: #000000"/>
     <use xlink:href="#meb8f6d26b5" x="236.16" y="211.171215" style="fill-opacity: 0; stroke: #000000"/>
     <use xlink:href="#meb8f6d26b5" x="236.16" y="217.527691" style="fill-opacity: 0; stroke: #000000"/>
     <use xlink:href="#meb8f6d26b5" x="236.16" y="215.845094" style="fill-opacity: 0; stroke: #000000"/>
     <use xlink:href="#meb8f6d26b5" x="236.16" y="204.814739" style="fill-opacity: 0; stroke: #000000"/>
     <use xlink:href="#meb8f6d26b5" x="236.16" y="220.332019" style="fill-opacity: 0; stroke: #000000"/>
     <use xlink:href="#meb8f6d26b5" x="236.16" y="212.666856" style="fill-opacity: 0; stroke: #000000"/>
     <use xlink:href="#meb8f6d26b5" x="236.16" y="220.705929" style="fill-opacity: 0; stroke: #000000"/>
     <use xlink:href="#meb8f6d26b5" x="236.16" y="204.066918" style="fill-opacity: 0; stroke: #000000"/>
     <use xlink:href="#meb8f6d26b5" x="236.16" y="225.005898" style="fill-opacity: 0; stroke: #000000"/>
     <use xlink:href="#meb8f6d26b5" x="236.16" y="221.079839" style="fill-opacity: 0; stroke: #000000"/>
     <use xlink:href="#meb8f6d26b5" x="236.16" y="221.266794" style="fill-opacity: 0; stroke: #000000"/>
     <use xlink:href="#meb8f6d26b5" x="236.16" y="219.584198" style="fill-opacity: 0; stroke: #000000"/>
     <use xlink:href="#meb8f6d26b5" x="236.16" y="208.740798" style="fill-opacity: 0; stroke: #000000"/>
     <use xlink:href="#meb8f6d26b5" x="236.16" y="224.258077" style="fill-opacity: 0; stroke: #000000"/>
     <use xlink:href="#meb8f6d26b5" x="236.16" y="225.192853" style="fill-opacity: 0; stroke: #000000"/>
     <use xlink:href="#meb8f6d26b5" x="236.16" y="225.005898" style="fill-opacity: 0; stroke: #000000"/>
     <use xlink:href="#meb8f6d26b5" x="236.16" y="203.693008" style="fill-opacity: 0; stroke: #000000"/>
     <use xlink:href="#meb8f6d26b5" x="236.16" y="208.179932" style="fill-opacity: 0; stroke: #000000"/>
     <use xlink:href="#meb8f6d26b5" x="236.16" y="226.87545" style="fill-opacity: 0; stroke: #000000"/>
     <use xlink:href="#meb8f6d26b5" x="236.16" y="199.953904" style="fill-opacity: 0; stroke: #000000"/>
     <use xlink:href="#meb8f6d26b5" x="236.16" y="211.73208" style="fill-opacity: 0; stroke: #000000"/>
     <use xlink:href="#meb8f6d26b5" x="236.16" y="223.510257" style="fill-opacity: 0; stroke: #000000"/>
     <use xlink:href="#meb8f6d26b5" x="236.16" y="219.023332" style="fill-opacity: 0; stroke: #000000"/>
     <use xlink:href="#meb8f6d26b5" x="236.16" y="219.023332" style="fill-opacity: 0; stroke: #000000"/>
     <use xlink:href="#meb8f6d26b5" x="236.16" y="218.649422" style="fill-opacity: 0; stroke: #000000"/>
     <use xlink:href="#meb8f6d26b5" x="236.16" y="223.884167" style="fill-opacity: 0; stroke: #000000"/>
     <use xlink:href="#meb8f6d26b5" x="236.16" y="215.097274" style="fill-opacity: 0; stroke: #000000"/>
     <use xlink:href="#meb8f6d26b5" x="236.16" y="163.871555" style="fill-opacity: 0; stroke: #000000"/>
     <use xlink:href="#meb8f6d26b5" x="236.16" y="198.084352" style="fill-opacity: 0; stroke: #000000"/>
     <use xlink:href="#meb8f6d26b5" x="236.16" y="213.788587" style="fill-opacity: 0; stroke: #000000"/>
     <use xlink:href="#meb8f6d26b5" x="236.16" y="217.340736" style="fill-opacity: 0; stroke: #000000"/>
     <use xlink:href="#meb8f6d26b5" x="236.16" y="227.62327" style="fill-opacity: 0; stroke: #000000"/>
     <use xlink:href="#meb8f6d26b5" x="236.16" y="225.192853" style="fill-opacity: 0; stroke: #000000"/>
     <use xlink:href="#meb8f6d26b5" x="236.16" y="135.454368" style="fill-opacity: 0; stroke: #000000"/>
     <use xlink:href="#meb8f6d26b5" x="236.16" y="102.924167" style="fill-opacity: 0; stroke: #000000"/>
     <use xlink:href="#meb8f6d26b5" x="236.16" y="216.77987" style="fill-opacity: 0; stroke: #000000"/>
     <use xlink:href="#meb8f6d26b5" x="236.16" y="211.919036" style="fill-opacity: 0; stroke: #000000"/>
     <use xlink:href="#meb8f6d26b5" x="236.16" y="221.45375" style="fill-opacity: 0; stroke: #000000"/>
     <use xlink:href="#meb8f6d26b5" x="236.16" y="205.188649" style="fill-opacity: 0; stroke: #000000"/>
     <use xlink:href="#meb8f6d26b5" x="236.16" y="227.62327" style="fill-opacity: 0; stroke: #000000"/>
     <use xlink:href="#meb8f6d26b5" x="236.16" y="220.518974" style="fill-opacity: 0; stroke: #000000"/>
     <use xlink:href="#meb8f6d26b5" x="236.16" y="205.375604" style="fill-opacity: 0; stroke: #000000"/>
     <use xlink:href="#meb8f6d26b5" x="236.16" y="216.592915" style="fill-opacity: 0; stroke: #000000"/>
     <use xlink:href="#meb8f6d26b5" x="236.16" y="222.949391" style="fill-opacity: 0; stroke: #000000"/>
     <use xlink:href="#meb8f6d26b5" x="236.16" y="211.545125" style="fill-opacity: 0; stroke: #000000"/>
     <use xlink:href="#meb8f6d26b5" x="236.16" y="224.445032" style="fill-opacity: 0; stroke: #000000"/>
     <use xlink:href="#meb8f6d26b5" x="236.16" y="175.836686" style="fill-opacity: 0; stroke: #000000"/>
     <use xlink:href="#meb8f6d26b5" x="236.16" y="183.688804" style="fill-opacity: 0; stroke: #000000"/>
     <use xlink:href="#meb8f6d26b5" x="236.16" y="185.932266" style="fill-opacity: 0; stroke: #000000"/>
     <use xlink:href="#meb8f6d26b5" x="236.16" y="203.319097" style="fill-opacity: 0; stroke: #000000"/>
     <use xlink:href="#meb8f6d26b5" x="236.16" y="203.506053" style="fill-opacity: 0; stroke: #000000"/>
     <use xlink:href="#meb8f6d26b5" x="236.16" y="148.54123" style="fill-opacity: 0; stroke: #000000"/>
     <use xlink:href="#meb8f6d26b5" x="236.16" y="215.845094" style="fill-opacity: 0; stroke: #000000"/>
     <use xlink:href="#meb8f6d26b5" x="236.16" y="208.179932" style="fill-opacity: 0; stroke: #000000"/>
     <use xlink:href="#meb8f6d26b5" x="236.16" y="214.349453" style="fill-opacity: 0; stroke: #000000"/>
     <use xlink:href="#meb8f6d26b5" x="236.16" y="227.062405" style="fill-opacity: 0; stroke: #000000"/>
     <use xlink:href="#meb8f6d26b5" x="236.16" y="211.73208" style="fill-opacity: 0; stroke: #000000"/>
     <use xlink:href="#meb8f6d26b5" x="236.16" y="213.414677" style="fill-opacity: 0; stroke: #000000"/>
     <use xlink:href="#meb8f6d26b5" x="236.16" y="218.275512" style="fill-opacity: 0; stroke: #000000"/>
     <use xlink:href="#meb8f6d26b5" x="236.16" y="205.001694" style="fill-opacity: 0; stroke: #000000"/>
     <use xlink:href="#meb8f6d26b5" x="236.16" y="215.845094" style="fill-opacity: 0; stroke: #000000"/>
     <use xlink:href="#meb8f6d26b5" x="236.16" y="223.884167" style="fill-opacity: 0; stroke: #000000"/>
     <use xlink:href="#meb8f6d26b5" x="236.16" y="222.575481" style="fill-opacity: 0; stroke: #000000"/>
     <use xlink:href="#meb8f6d26b5" x="236.16" y="222.949391" style="fill-opacity: 0; stroke: #000000"/>
     <use xlink:href="#meb8f6d26b5" x="236.16" y="217.340736" style="fill-opacity: 0; stroke: #000000"/>
     <use xlink:href="#meb8f6d26b5" x="236.16" y="200.140859" style="fill-opacity: 0; stroke: #000000"/>
     <use xlink:href="#meb8f6d26b5" x="236.16" y="210.98426" style="fill-opacity: 0; stroke: #000000"/>
     <use xlink:href="#meb8f6d26b5" x="236.16" y="202.384321" style="fill-opacity: 0; stroke: #000000"/>
     <use xlink:href="#meb8f6d26b5" x="236.16" y="207.245156" style="fill-opacity: 0; stroke: #000000"/>
     <use xlink:href="#meb8f6d26b5" x="236.16" y="201.26259" style="fill-opacity: 0; stroke: #000000"/>
     <use xlink:href="#meb8f6d26b5" x="236.16" y="210.98426" style="fill-opacity: 0; stroke: #000000"/>
     <use xlink:href="#meb8f6d26b5" x="236.16" y="207.058201" style="fill-opacity: 0; stroke: #000000"/>
     <use xlink:href="#meb8f6d26b5" x="236.16" y="219.584198" style="fill-opacity: 0; stroke: #000000"/>
     <use xlink:href="#meb8f6d26b5" x="236.16" y="216.966825" style="fill-opacity: 0; stroke: #000000"/>
     <use xlink:href="#meb8f6d26b5" x="236.16" y="205.188649" style="fill-opacity: 0; stroke: #000000"/>
     <use xlink:href="#meb8f6d26b5" x="236.16" y="213.788587" style="fill-opacity: 0; stroke: #000000"/>
     <use xlink:href="#meb8f6d26b5" x="236.16" y="215.658139" style="fill-opacity: 0; stroke: #000000"/>
     <use xlink:href="#meb8f6d26b5" x="236.16" y="204.627784" style="fill-opacity: 0; stroke: #000000"/>
     <use xlink:href="#meb8f6d26b5" x="236.16" y="210.98426" style="fill-opacity: 0; stroke: #000000"/>
     <use xlink:href="#meb8f6d26b5" x="236.16" y="215.658139" style="fill-opacity: 0; stroke: #000000"/>
     <use xlink:href="#meb8f6d26b5" x="236.16" y="204.627784" style="fill-opacity: 0; stroke: #000000"/>
     <use xlink:href="#meb8f6d26b5" x="236.16" y="210.98426" style="fill-opacity: 0; stroke: #000000"/>
     <use xlink:href="#meb8f6d26b5" x="236.16" y="225.379808" style="fill-opacity: 0; stroke: #000000"/>
     <use xlink:href="#meb8f6d26b5" x="236.16" y="219.958108" style="fill-opacity: 0; stroke: #000000"/>
     <use xlink:href="#meb8f6d26b5" x="236.16" y="179.388835" style="fill-opacity: 0; stroke: #000000"/>
     <use xlink:href="#meb8f6d26b5" x="236.16" y="196.214801" style="fill-opacity: 0; stroke: #000000"/>
     <use xlink:href="#meb8f6d26b5" x="236.16" y="53.568" style="fill-opacity: 0; stroke: #000000"/>
     <use xlink:href="#meb8f6d26b5" x="236.16" y="219.584198" style="fill-opacity: 0; stroke: #000000"/>
     <use xlink:href="#meb8f6d26b5" x="236.16" y="210.049484" style="fill-opacity: 0; stroke: #000000"/>
     <use xlink:href="#meb8f6d26b5" x="236.16" y="193.410473" style="fill-opacity: 0; stroke: #000000"/>
     <use xlink:href="#meb8f6d26b5" x="236.16" y="215.658139" style="fill-opacity: 0; stroke: #000000"/>
     <use xlink:href="#meb8f6d26b5" x="236.16" y="146.110813" style="fill-opacity: 0; stroke: #000000"/>
     <use xlink:href="#meb8f6d26b5" x="236.16" y="173.967134" style="fill-opacity: 0; stroke: #000000"/>
     <use xlink:href="#meb8f6d26b5" x="236.16" y="196.214801" style="fill-opacity: 0; stroke: #000000"/>
     <use xlink:href="#meb8f6d26b5" x="236.16" y="205.375604" style="fill-opacity: 0; stroke: #000000"/>
     <use xlink:href="#meb8f6d26b5" x="236.16" y="193.223518" style="fill-opacity: 0; stroke: #000000"/>
     <use xlink:href="#meb8f6d26b5" x="236.16" y="219.210287" style="fill-opacity: 0; stroke: #000000"/>
     <use xlink:href="#meb8f6d26b5" x="236.16" y="175.836686" style="fill-opacity: 0; stroke: #000000"/>
     <use xlink:href="#meb8f6d26b5" x="236.16" y="208.927753" style="fill-opacity: 0; stroke: #000000"/>
     <use xlink:href="#meb8f6d26b5" x="236.16" y="208.366887" style="fill-opacity: 0; stroke: #000000"/>
     <use xlink:href="#meb8f6d26b5" x="236.16" y="220.145063" style="fill-opacity: 0; stroke: #000000"/>
     <use xlink:href="#meb8f6d26b5" x="236.16" y="207.619066" style="fill-opacity: 0; stroke: #000000"/>
     <use xlink:href="#meb8f6d26b5" x="236.16" y="218.462467" style="fill-opacity: 0; stroke: #000000"/>
     <use xlink:href="#meb8f6d26b5" x="236.16" y="201.636501" style="fill-opacity: 0; stroke: #000000"/>
     <use xlink:href="#meb8f6d26b5" x="236.16" y="225.005898" style="fill-opacity: 0; stroke: #000000"/>
    </g>
   </g>
   <g id="line2d_15">
    <path d="M 209.376 280.905496 
L 262.944 280.905496 
" clip-path="url(#p8cd6dec766)" style="fill: none; stroke: #ff7f0e"/>
   </g>
   <g id="patch_3">
    <path d="M 57.6 307.584 
L 57.6 41.472 
" style="fill: none; stroke: #000000; stroke-width: 0.8; stroke-linejoin: miter; stroke-linecap: square"/>
   </g>
   <g id="patch_4">
    <path d="M 414.72 307.584 
L 414.72 41.472 
" style="fill: none; stroke: #000000; stroke-width: 0.8; stroke-linejoin: miter; stroke-linecap: square"/>
   </g>
   <g id="patch_5">
    <path d="M 57.6 307.584 
L 414.72 307.584 
" style="fill: none; stroke: #000000; stroke-width: 0.8; stroke-linejoin: miter; stroke-linecap: square"/>
   </g>
   <g id="patch_6">
    <path d="M 57.6 41.472 
L 414.72 41.472 
" style="fill: none; stroke: #000000; stroke-width: 0.8; stroke-linejoin: miter; stroke-linecap: square"/>
   </g>
  </g>
 </g>
 <defs>
  <clipPath id="p8cd6dec766">
   <rect x="57.6" y="41.472" width="357.12" height="266.112"/>
  </clipPath>
 </defs>
</svg>
