<?xml version="1.0" encoding="utf-8" standalone="no"?>
<!DOCTYPE svg PUBLIC "-//W3C//DTD SVG 1.1//EN"
  "http://www.w3.org/Graphics/SVG/1.1/DTD/svg11.dtd">
<svg xmlns:xlink="http://www.w3.org/1999/xlink" width="460.8pt" height="345.6pt" viewBox="0 0 460.8 345.6" xmlns="http://www.w3.org/2000/svg" version="1.1">
 <metadata>
  <rdf:RDF xmlns:dc="http://purl.org/dc/elements/1.1/" xmlns:cc="http://creativecommons.org/ns#" xmlns:rdf="http://www.w3.org/1999/02/22-rdf-syntax-ns#">
   <cc:Work>
    <dc:type rdf:resource="http://purl.org/dc/dcmitype/StillImage"/>
    <dc:date>2025-01-25T18:18:25.288093</dc:date>
    <dc:format>image/svg+xml</dc:format>
    <dc:creator>
     <cc:Agent>
      <dc:title>Matplotlib v3.10.0, https://matplotlib.org/</dc:title>
     </cc:Agent>
    </dc:creator>
   </cc:Work>
  </rdf:RDF>
 </metadata>
 <defs>
  <style type="text/css">*{stroke-linejoin: round; stroke-linecap: butt}</style>
 </defs>
 <g id="figure_1">
  <g id="patch_1">
   <path d="M 0 345.6 
L 460.8 345.6 
L 460.8 0 
L 0 0 
z
" style="fill: #ffffff"/>
  </g>
  <g id="axes_1">
   <g id="patch_2">
    <path d="M 57.6 307.584 
L 414.72 307.584 
L 414.72 41.472 
L 57.6 41.472 
z
" style="fill: #ffffff"/>
   </g>
   <g id="matplotlib.axis_1">
    <g id="xtick_1">
     <g id="line2d_1">
      <defs>
       <path id="m2b96a88b08" d="M 0 0 
L 0 3.5 
" style="stroke: #000000; stroke-width: 0.8"/>
      </defs>
      <g>
       <use xlink:href="#m2b96a88b08" x="236.16" y="307.584" style="stroke: #000000; stroke-width: 0.8"/>
      </g>
     </g>
     <g id="text_1">
      <!-- 1 -->
      <g transform="translate(232.97875 322.182437) scale(0.1 -0.1)">
       <defs>
        <path id="DejaVuSans-31" d="M 794 531 
L 1825 531 
L 1825 4091 
L 703 3866 
L 703 4441 
L 1819 4666 
L 2450 4666 
L 2450 531 
L 3481 531 
L 3481 0 
L 794 0 
L 794 531 
z
" transform="scale(0.015625)"/>
       </defs>
       <use xlink:href="#DejaVuSans-31"/>
      </g>
     </g>
    </g>
   </g>
   <g id="matplotlib.axis_2">
    <g id="ytick_1">
     <g id="line2d_2">
      <defs>
       <path id="mc826a998c0" d="M 0 0 
L -3.5 0 
" style="stroke: #000000; stroke-width: 0.8"/>
      </defs>
      <g>
       <use xlink:href="#mc826a998c0" x="57.6" y="295.783746" style="stroke: #000000; stroke-width: 0.8"/>
      </g>
     </g>
     <g id="text_2">
      <!-- 0 -->
      <g transform="translate(44.2375 299.582964) scale(0.1 -0.1)">
       <defs>
        <path id="DejaVuSans-30" d="M 2034 4250 
Q 1547 4250 1301 3770 
Q 1056 3291 1056 2328 
Q 1056 1369 1301 889 
Q 1547 409 2034 409 
Q 2525 409 2770 889 
Q 3016 1369 3016 2328 
Q 3016 3291 2770 3770 
Q 2525 4250 2034 4250 
z
M 2034 4750 
Q 2819 4750 3233 4129 
Q 3647 3509 3647 2328 
Q 3647 1150 3233 529 
Q 2819 -91 2034 -91 
Q 1250 -91 836 529 
Q 422 1150 422 2328 
Q 422 3509 836 4129 
Q 1250 4750 2034 4750 
z
" transform="scale(0.015625)"/>
       </defs>
       <use xlink:href="#DejaVuSans-30"/>
      </g>
     </g>
    </g>
    <g id="ytick_2">
     <g id="line2d_3">
      <g>
       <use xlink:href="#mc826a998c0" x="57.6" y="266.209174" style="stroke: #000000; stroke-width: 0.8"/>
      </g>
     </g>
     <g id="text_3">
      <!-- 100 -->
      <g transform="translate(31.5125 270.008392) scale(0.1 -0.1)">
       <use xlink:href="#DejaVuSans-31"/>
       <use xlink:href="#DejaVuSans-30" transform="translate(63.623047 0)"/>
       <use xlink:href="#DejaVuSans-30" transform="translate(127.246094 0)"/>
      </g>
     </g>
    </g>
    <g id="ytick_3">
     <g id="line2d_4">
      <g>
       <use xlink:href="#mc826a998c0" x="57.6" y="236.634601" style="stroke: #000000; stroke-width: 0.8"/>
      </g>
     </g>
     <g id="text_4">
      <!-- 200 -->
      <g transform="translate(31.5125 240.43382) scale(0.1 -0.1)">
       <defs>
        <path id="DejaVuSans-32" d="M 1228 531 
L 3431 531 
L 3431 0 
L 469 0 
L 469 531 
Q 828 903 1448 1529 
Q 2069 2156 2228 2338 
Q 2531 2678 2651 2914 
Q 2772 3150 2772 3378 
Q 2772 3750 2511 3984 
Q 2250 4219 1831 4219 
Q 1534 4219 1204 4116 
Q 875 4013 500 3803 
L 500 4441 
Q 881 4594 1212 4672 
Q 1544 4750 1819 4750 
Q 2544 4750 2975 4387 
Q 3406 4025 3406 3419 
Q 3406 3131 3298 2873 
Q 3191 2616 2906 2266 
Q 2828 2175 2409 1742 
Q 1991 1309 1228 531 
z
" transform="scale(0.015625)"/>
       </defs>
       <use xlink:href="#DejaVuSans-32"/>
       <use xlink:href="#DejaVuSans-30" transform="translate(63.623047 0)"/>
       <use xlink:href="#DejaVuSans-30" transform="translate(127.246094 0)"/>
      </g>
     </g>
    </g>
    <g id="ytick_4">
     <g id="line2d_5">
      <g>
       <use xlink:href="#mc826a998c0" x="57.6" y="207.060029" style="stroke: #000000; stroke-width: 0.8"/>
      </g>
     </g>
     <g id="text_5">
      <!-- 300 -->
      <g transform="translate(31.5125 210.859248) scale(0.1 -0.1)">
       <defs>
        <path id="DejaVuSans-33" d="M 2597 2516 
Q 3050 2419 3304 2112 
Q 3559 1806 3559 1356 
Q 3559 666 3084 287 
Q 2609 -91 1734 -91 
Q 1441 -91 1130 -33 
Q 819 25 488 141 
L 488 750 
Q 750 597 1062 519 
Q 1375 441 1716 441 
Q 2309 441 2620 675 
Q 2931 909 2931 1356 
Q 2931 1769 2642 2001 
Q 2353 2234 1838 2234 
L 1294 2234 
L 1294 2753 
L 1863 2753 
Q 2328 2753 2575 2939 
Q 2822 3125 2822 3475 
Q 2822 3834 2567 4026 
Q 2313 4219 1838 4219 
Q 1578 4219 1281 4162 
Q 984 4106 628 3988 
L 628 4550 
Q 988 4650 1302 4700 
Q 1616 4750 1894 4750 
Q 2613 4750 3031 4423 
Q 3450 4097 3450 3541 
Q 3450 3153 3228 2886 
Q 3006 2619 2597 2516 
z
" transform="scale(0.015625)"/>
       </defs>
       <use xlink:href="#DejaVuSans-33"/>
       <use xlink:href="#DejaVuSans-30" transform="translate(63.623047 0)"/>
       <use xlink:href="#DejaVuSans-30" transform="translate(127.246094 0)"/>
      </g>
     </g>
    </g>
    <g id="ytick_5">
     <g id="line2d_6">
      <g>
       <use xlink:href="#mc826a998c0" x="57.6" y="177.485457" style="stroke: #000000; stroke-width: 0.8"/>
      </g>
     </g>
     <g id="text_6">
      <!-- 400 -->
      <g transform="translate(31.5125 181.284676) scale(0.1 -0.1)">
       <defs>
        <path id="DejaVuSans-34" d="M 2419 4116 
L 825 1625 
L 2419 1625 
L 2419 4116 
z
M 2253 4666 
L 3047 4666 
L 3047 1625 
L 3713 1625 
L 3713 1100 
L 3047 1100 
L 3047 0 
L 2419 0 
L 2419 1100 
L 313 1100 
L 313 1709 
L 2253 4666 
z
" transform="scale(0.015625)"/>
       </defs>
       <use xlink:href="#DejaVuSans-34"/>
       <use xlink:href="#DejaVuSans-30" transform="translate(63.623047 0)"/>
       <use xlink:href="#DejaVuSans-30" transform="translate(127.246094 0)"/>
      </g>
     </g>
    </g>
    <g id="ytick_6">
     <g id="line2d_7">
      <g>
       <use xlink:href="#mc826a998c0" x="57.6" y="147.910885" style="stroke: #000000; stroke-width: 0.8"/>
      </g>
     </g>
     <g id="text_7">
      <!-- 500 -->
      <g transform="translate(31.5125 151.710104) scale(0.1 -0.1)">
       <defs>
        <path id="DejaVuSans-35" d="M 691 4666 
L 3169 4666 
L 3169 4134 
L 1269 4134 
L 1269 2991 
Q 1406 3038 1543 3061 
Q 1681 3084 1819 3084 
Q 2600 3084 3056 2656 
Q 3513 2228 3513 1497 
Q 3513 744 3044 326 
Q 2575 -91 1722 -91 
Q 1428 -91 1123 -41 
Q 819 9 494 109 
L 494 744 
Q 775 591 1075 516 
Q 1375 441 1709 441 
Q 2250 441 2565 725 
Q 2881 1009 2881 1497 
Q 2881 1984 2565 2268 
Q 2250 2553 1709 2553 
Q 1456 2553 1204 2497 
Q 953 2441 691 2322 
L 691 4666 
z
" transform="scale(0.015625)"/>
       </defs>
       <use xlink:href="#DejaVuSans-35"/>
       <use xlink:href="#DejaVuSans-30" transform="translate(63.623047 0)"/>
       <use xlink:href="#DejaVuSans-30" transform="translate(127.246094 0)"/>
      </g>
     </g>
    </g>
    <g id="ytick_7">
     <g id="line2d_8">
      <g>
       <use xlink:href="#mc826a998c0" x="57.6" y="118.336313" style="stroke: #000000; stroke-width: 0.8"/>
      </g>
     </g>
     <g id="text_8">
      <!-- 600 -->
      <g transform="translate(31.5125 122.135532) scale(0.1 -0.1)">
       <defs>
        <path id="DejaVuSans-36" d="M 2113 2584 
Q 1688 2584 1439 2293 
Q 1191 2003 1191 1497 
Q 1191 994 1439 701 
Q 1688 409 2113 409 
Q 2538 409 2786 701 
Q 3034 994 3034 1497 
Q 3034 2003 2786 2293 
Q 2538 2584 2113 2584 
z
M 3366 4563 
L 3366 3988 
Q 3128 4100 2886 4159 
Q 2644 4219 2406 4219 
Q 1781 4219 1451 3797 
Q 1122 3375 1075 2522 
Q 1259 2794 1537 2939 
Q 1816 3084 2150 3084 
Q 2853 3084 3261 2657 
Q 3669 2231 3669 1497 
Q 3669 778 3244 343 
Q 2819 -91 2113 -91 
Q 1303 -91 875 529 
Q 447 1150 447 2328 
Q 447 3434 972 4092 
Q 1497 4750 2381 4750 
Q 2619 4750 2861 4703 
Q 3103 4656 3366 4563 
z
" transform="scale(0.015625)"/>
       </defs>
       <use xlink:href="#DejaVuSans-36"/>
       <use xlink:href="#DejaVuSans-30" transform="translate(63.623047 0)"/>
       <use xlink:href="#DejaVuSans-30" transform="translate(127.246094 0)"/>
      </g>
     </g>
    </g>
    <g id="ytick_8">
     <g id="line2d_9">
      <g>
       <use xlink:href="#mc826a998c0" x="57.6" y="88.761741" style="stroke: #000000; stroke-width: 0.8"/>
      </g>
     </g>
     <g id="text_9">
      <!-- 700 -->
      <g transform="translate(31.5125 92.56096) scale(0.1 -0.1)">
       <defs>
        <path id="DejaVuSans-37" d="M 525 4666 
L 3525 4666 
L 3525 4397 
L 1831 0 
L 1172 0 
L 2766 4134 
L 525 4134 
L 525 4666 
z
" transform="scale(0.015625)"/>
       </defs>
       <use xlink:href="#DejaVuSans-37"/>
       <use xlink:href="#DejaVuSans-30" transform="translate(63.623047 0)"/>
       <use xlink:href="#DejaVuSans-30" transform="translate(127.246094 0)"/>
      </g>
     </g>
    </g>
    <g id="ytick_9">
     <g id="line2d_10">
      <g>
       <use xlink:href="#mc826a998c0" x="57.6" y="59.187169" style="stroke: #000000; stroke-width: 0.8"/>
      </g>
     </g>
     <g id="text_10">
      <!-- 800 -->
      <g transform="translate(31.5125 62.986387) scale(0.1 -0.1)">
       <defs>
        <path id="DejaVuSans-38" d="M 2034 2216 
Q 1584 2216 1326 1975 
Q 1069 1734 1069 1313 
Q 1069 891 1326 650 
Q 1584 409 2034 409 
Q 2484 409 2743 651 
Q 3003 894 3003 1313 
Q 3003 1734 2745 1975 
Q 2488 2216 2034 2216 
z
M 1403 2484 
Q 997 2584 770 2862 
Q 544 3141 544 3541 
Q 544 4100 942 4425 
Q 1341 4750 2034 4750 
Q 2731 4750 3128 4425 
Q 3525 4100 3525 3541 
Q 3525 3141 3298 2862 
Q 3072 2584 2669 2484 
Q 3125 2378 3379 2068 
Q 3634 1759 3634 1313 
Q 3634 634 3220 271 
Q 2806 -91 2034 -91 
Q 1263 -91 848 271 
Q 434 634 434 1313 
Q 434 1759 690 2068 
Q 947 2378 1403 2484 
z
M 1172 3481 
Q 1172 3119 1398 2916 
Q 1625 2713 2034 2713 
Q 2441 2713 2670 2916 
Q 2900 3119 2900 3481 
Q 2900 3844 2670 4047 
Q 2441 4250 2034 4250 
Q 1625 4250 1398 4047 
Q 1172 3844 1172 3481 
z
" transform="scale(0.015625)"/>
       </defs>
       <use xlink:href="#DejaVuSans-38"/>
       <use xlink:href="#DejaVuSans-30" transform="translate(63.623047 0)"/>
       <use xlink:href="#DejaVuSans-30" transform="translate(127.246094 0)"/>
      </g>
     </g>
    </g>
   </g>
   <g id="line2d_11">
    <path d="M 209.376 286.024137 
L 262.944 286.024137 
L 262.944 250.830396 
L 209.376 250.830396 
L 209.376 286.024137 
" clip-path="url(#p3a20a81f0f)" style="fill: none; stroke: #000000; stroke-linecap: square"/>
   </g>
   <g id="line2d_12">
    <path d="M 236.16 286.024137 
L 236.16 295.488 
" clip-path="url(#p3a20a81f0f)" style="fill: none; stroke: #000000; stroke-linecap: square"/>
   </g>
   <g id="line2d_13">
    <path d="M 236.16 250.830396 
L 236.16 198.483403 
" clip-path="url(#p3a20a81f0f)" style="fill: none; stroke: #000000; stroke-linecap: square"/>
   </g>
   <g id="line2d_14">
    <path d="M 222.768 295.488 
L 249.552 295.488 
" clip-path="url(#p3a20a81f0f)" style="fill: none; stroke: #000000; stroke-linecap: square"/>
   </g>
   <g id="line2d_15">
    <path d="M 222.768 198.483403 
L 249.552 198.483403 
" clip-path="url(#p3a20a81f0f)" style="fill: none; stroke: #000000; stroke-linecap: square"/>
   </g>
   <g id="line2d_16">
    <defs>
     <path id="m92a9ef06e1" d="M 0 3 
C 0.795609 3 1.55874 2.683901 2.12132 2.12132 
C 2.683901 1.55874 3 0.795609 3 0 
C 3 -0.795609 2.683901 -1.55874 2.12132 -2.12132 
C 1.55874 -2.683901 0.795609 -3 0 -3 
C -0.795609 -3 -1.55874 -2.683901 -2.12132 -2.12132 
C -2.683901 -1.55874 -3 -0.795609 -3 0 
C -3 0.795609 -2.683901 1.55874 -2.12132 2.12132 
C -1.55874 2.683901 -0.795609 3 0 3 
z
" style="stroke: #000000"/>
    </defs>
    <g clip-path="url(#p3a20a81f0f)">
     <use xlink:href="#m92a9ef06e1" x="236.16" y="179.851423" style="fill-opacity: 0; stroke: #000000"/>
     <use xlink:href="#m92a9ef06e1" x="236.16" y="183.696117" style="fill-opacity: 0; stroke: #000000"/>
     <use xlink:href="#m92a9ef06e1" x="236.16" y="176.893966" style="fill-opacity: 0; stroke: #000000"/>
     <use xlink:href="#m92a9ef06e1" x="236.16" y="186.357829" style="fill-opacity: 0; stroke: #000000"/>
     <use xlink:href="#m92a9ef06e1" x="236.16" y="197.004675" style="fill-opacity: 0; stroke: #000000"/>
     <use xlink:href="#m92a9ef06e1" x="236.16" y="181.921643" style="fill-opacity: 0; stroke: #000000"/>
     <use xlink:href="#m92a9ef06e1" x="236.16" y="170.979051" style="fill-opacity: 0; stroke: #000000"/>
     <use xlink:href="#m92a9ef06e1" x="236.16" y="102.957535" style="fill-opacity: 0; stroke: #000000"/>
     <use xlink:href="#m92a9ef06e1" x="236.16" y="194.342963" style="fill-opacity: 0; stroke: #000000"/>
     <use xlink:href="#m92a9ef06e1" x="236.16" y="162.993917" style="fill-opacity: 0; stroke: #000000"/>
     <use xlink:href="#m92a9ef06e1" x="236.16" y="147.615139" style="fill-opacity: 0; stroke: #000000"/>
     <use xlink:href="#m92a9ef06e1" x="236.16" y="194.342963" style="fill-opacity: 0; stroke: #000000"/>
     <use xlink:href="#m92a9ef06e1" x="236.16" y="176.006729" style="fill-opacity: 0; stroke: #000000"/>
     <use xlink:href="#m92a9ef06e1" x="236.16" y="187.245066" style="fill-opacity: 0; stroke: #000000"/>
     <use xlink:href="#m92a9ef06e1" x="236.16" y="175.415237" style="fill-opacity: 0; stroke: #000000"/>
     <use xlink:href="#m92a9ef06e1" x="236.16" y="196.117438" style="fill-opacity: 0; stroke: #000000"/>
     <use xlink:href="#m92a9ef06e1" x="236.16" y="144.657682" style="fill-opacity: 0; stroke: #000000"/>
     <use xlink:href="#m92a9ef06e1" x="236.16" y="192.864235" style="fill-opacity: 0; stroke: #000000"/>
     <use xlink:href="#m92a9ef06e1" x="236.16" y="195.525946" style="fill-opacity: 0; stroke: #000000"/>
     <use xlink:href="#m92a9ef06e1" x="236.16" y="147.319394" style="fill-opacity: 0; stroke: #000000"/>
     <use xlink:href="#m92a9ef06e1" x="236.16" y="182.513134" style="fill-opacity: 0; stroke: #000000"/>
     <use xlink:href="#m92a9ef06e1" x="236.16" y="196.413183" style="fill-opacity: 0; stroke: #000000"/>
     <use xlink:href="#m92a9ef06e1" x="236.16" y="173.049271" style="fill-opacity: 0; stroke: #000000"/>
     <use xlink:href="#m92a9ef06e1" x="236.16" y="168.613086" style="fill-opacity: 0; stroke: #000000"/>
     <use xlink:href="#m92a9ef06e1" x="236.16" y="162.10668" style="fill-opacity: 0; stroke: #000000"/>
     <use xlink:href="#m92a9ef06e1" x="236.16" y="182.80888" style="fill-opacity: 0; stroke: #000000"/>
     <use xlink:href="#m92a9ef06e1" x="236.16" y="162.10668" style="fill-opacity: 0; stroke: #000000"/>
     <use xlink:href="#m92a9ef06e1" x="236.16" y="190.202523" style="fill-opacity: 0; stroke: #000000"/>
     <use xlink:href="#m92a9ef06e1" x="236.16" y="53.568" style="fill-opacity: 0; stroke: #000000"/>
     <use xlink:href="#m92a9ef06e1" x="236.16" y="173.640763" style="fill-opacity: 0; stroke: #000000"/>
     <use xlink:href="#m92a9ef06e1" x="236.16" y="147.023648" style="fill-opacity: 0; stroke: #000000"/>
     <use xlink:href="#m92a9ef06e1" x="236.16" y="145.249174" style="fill-opacity: 0; stroke: #000000"/>
     <use xlink:href="#m92a9ef06e1" x="236.16" y="185.174846" style="fill-opacity: 0; stroke: #000000"/>
     <use xlink:href="#m92a9ef06e1" x="236.16" y="197.004675" style="fill-opacity: 0; stroke: #000000"/>
     <use xlink:href="#m92a9ef06e1" x="236.16" y="194.047218" style="fill-opacity: 0; stroke: #000000"/>
     <use xlink:href="#m92a9ef06e1" x="236.16" y="174.232254" style="fill-opacity: 0; stroke: #000000"/>
     <use xlink:href="#m92a9ef06e1" x="236.16" y="162.698171" style="fill-opacity: 0; stroke: #000000"/>
     <use xlink:href="#m92a9ef06e1" x="236.16" y="194.638709" style="fill-opacity: 0; stroke: #000000"/>
     <use xlink:href="#m92a9ef06e1" x="236.16" y="192.568489" style="fill-opacity: 0; stroke: #000000"/>
     <use xlink:href="#m92a9ef06e1" x="236.16" y="185.174846" style="fill-opacity: 0; stroke: #000000"/>
     <use xlink:href="#m92a9ef06e1" x="236.16" y="192.568489" style="fill-opacity: 0; stroke: #000000"/>
     <use xlink:href="#m92a9ef06e1" x="236.16" y="172.162034" style="fill-opacity: 0; stroke: #000000"/>
     <use xlink:href="#m92a9ef06e1" x="236.16" y="170.091814" style="fill-opacity: 0; stroke: #000000"/>
     <use xlink:href="#m92a9ef06e1" x="236.16" y="137.855531" style="fill-opacity: 0; stroke: #000000"/>
     <use xlink:href="#m92a9ef06e1" x="236.16" y="196.117438" style="fill-opacity: 0; stroke: #000000"/>
     <use xlink:href="#m92a9ef06e1" x="236.16" y="174.528" style="fill-opacity: 0; stroke: #000000"/>
     <use xlink:href="#m92a9ef06e1" x="236.16" y="178.964186" style="fill-opacity: 0; stroke: #000000"/>
     <use xlink:href="#m92a9ef06e1" x="236.16" y="191.976998" style="fill-opacity: 0; stroke: #000000"/>
     <use xlink:href="#m92a9ef06e1" x="236.16" y="148.798122" style="fill-opacity: 0; stroke: #000000"/>
     <use xlink:href="#m92a9ef06e1" x="236.16" y="178.372694" style="fill-opacity: 0; stroke: #000000"/>
     <use xlink:href="#m92a9ef06e1" x="236.16" y="178.372694" style="fill-opacity: 0; stroke: #000000"/>
     <use xlink:href="#m92a9ef06e1" x="236.16" y="162.10668" style="fill-opacity: 0; stroke: #000000"/>
     <use xlink:href="#m92a9ef06e1" x="236.16" y="155.008782" style="fill-opacity: 0; stroke: #000000"/>
     <use xlink:href="#m92a9ef06e1" x="236.16" y="144.657682" style="fill-opacity: 0; stroke: #000000"/>
     <use xlink:href="#m92a9ef06e1" x="236.16" y="153.8258" style="fill-opacity: 0; stroke: #000000"/>
     <use xlink:href="#m92a9ef06e1" x="236.16" y="188.132303" style="fill-opacity: 0; stroke: #000000"/>
     <use xlink:href="#m92a9ef06e1" x="236.16" y="177.781203" style="fill-opacity: 0; stroke: #000000"/>
     <use xlink:href="#m92a9ef06e1" x="236.16" y="181.921643" style="fill-opacity: 0; stroke: #000000"/>
     <use xlink:href="#m92a9ef06e1" x="236.16" y="188.723795" style="fill-opacity: 0; stroke: #000000"/>
     <use xlink:href="#m92a9ef06e1" x="236.16" y="183.991863" style="fill-opacity: 0; stroke: #000000"/>
     <use xlink:href="#m92a9ef06e1" x="236.16" y="166.542866" style="fill-opacity: 0; stroke: #000000"/>
     <use xlink:href="#m92a9ef06e1" x="236.16" y="184.8791" style="fill-opacity: 0; stroke: #000000"/>
     <use xlink:href="#m92a9ef06e1" x="236.16" y="176.893966" style="fill-opacity: 0; stroke: #000000"/>
     <use xlink:href="#m92a9ef06e1" x="236.16" y="191.385506" style="fill-opacity: 0; stroke: #000000"/>
     <use xlink:href="#m92a9ef06e1" x="236.16" y="195.525946" style="fill-opacity: 0; stroke: #000000"/>
     <use xlink:href="#m92a9ef06e1" x="236.16" y="170.38756" style="fill-opacity: 0; stroke: #000000"/>
     <use xlink:href="#m92a9ef06e1" x="236.16" y="150.276851" style="fill-opacity: 0; stroke: #000000"/>
     <use xlink:href="#m92a9ef06e1" x="236.16" y="155.304528" style="fill-opacity: 0; stroke: #000000"/>
     <use xlink:href="#m92a9ef06e1" x="236.16" y="171.570543" style="fill-opacity: 0; stroke: #000000"/>
     <use xlink:href="#m92a9ef06e1" x="236.16" y="150.276851" style="fill-opacity: 0; stroke: #000000"/>
     <use xlink:href="#m92a9ef06e1" x="236.16" y="194.934455" style="fill-opacity: 0; stroke: #000000"/>
     <use xlink:href="#m92a9ef06e1" x="236.16" y="185.174846" style="fill-opacity: 0; stroke: #000000"/>
     <use xlink:href="#m92a9ef06e1" x="236.16" y="188.132303" style="fill-opacity: 0; stroke: #000000"/>
     <use xlink:href="#m92a9ef06e1" x="236.16" y="150.572597" style="fill-opacity: 0; stroke: #000000"/>
     <use xlink:href="#m92a9ef06e1" x="236.16" y="152.347071" style="fill-opacity: 0; stroke: #000000"/>
     <use xlink:href="#m92a9ef06e1" x="236.16" y="174.823746" style="fill-opacity: 0; stroke: #000000"/>
     <use xlink:href="#m92a9ef06e1" x="236.16" y="160.627951" style="fill-opacity: 0; stroke: #000000"/>
     <use xlink:href="#m92a9ef06e1" x="236.16" y="191.385506" style="fill-opacity: 0; stroke: #000000"/>
     <use xlink:href="#m92a9ef06e1" x="236.16" y="190.202523" style="fill-opacity: 0; stroke: #000000"/>
     <use xlink:href="#m92a9ef06e1" x="236.16" y="121.885262" style="fill-opacity: 0; stroke: #000000"/>
     <use xlink:href="#m92a9ef06e1" x="236.16" y="144.953428" style="fill-opacity: 0; stroke: #000000"/>
     <use xlink:href="#m92a9ef06e1" x="236.16" y="183.696117" style="fill-opacity: 0; stroke: #000000"/>
     <use xlink:href="#m92a9ef06e1" x="236.16" y="184.583355" style="fill-opacity: 0; stroke: #000000"/>
     <use xlink:href="#m92a9ef06e1" x="236.16" y="162.10668" style="fill-opacity: 0; stroke: #000000"/>
     <use xlink:href="#m92a9ef06e1" x="236.16" y="172.162034" style="fill-opacity: 0; stroke: #000000"/>
     <use xlink:href="#m92a9ef06e1" x="236.16" y="169.500323" style="fill-opacity: 0; stroke: #000000"/>
     <use xlink:href="#m92a9ef06e1" x="236.16" y="152.051325" style="fill-opacity: 0; stroke: #000000"/>
     <use xlink:href="#m92a9ef06e1" x="236.16" y="176.59822" style="fill-opacity: 0; stroke: #000000"/>
     <use xlink:href="#m92a9ef06e1" x="236.16" y="164.472645" style="fill-opacity: 0; stroke: #000000"/>
     <use xlink:href="#m92a9ef06e1" x="236.16" y="177.189711" style="fill-opacity: 0; stroke: #000000"/>
     <use xlink:href="#m92a9ef06e1" x="236.16" y="150.868342" style="fill-opacity: 0; stroke: #000000"/>
     <use xlink:href="#m92a9ef06e1" x="236.16" y="183.991863" style="fill-opacity: 0; stroke: #000000"/>
     <use xlink:href="#m92a9ef06e1" x="236.16" y="177.781203" style="fill-opacity: 0; stroke: #000000"/>
     <use xlink:href="#m92a9ef06e1" x="236.16" y="178.076949" style="fill-opacity: 0; stroke: #000000"/>
     <use xlink:href="#m92a9ef06e1" x="236.16" y="189.906778" style="fill-opacity: 0; stroke: #000000"/>
     <use xlink:href="#m92a9ef06e1" x="236.16" y="175.415237" style="fill-opacity: 0; stroke: #000000"/>
     <use xlink:href="#m92a9ef06e1" x="236.16" y="158.261985" style="fill-opacity: 0; stroke: #000000"/>
     <use xlink:href="#m92a9ef06e1" x="236.16" y="194.342963" style="fill-opacity: 0; stroke: #000000"/>
     <use xlink:href="#m92a9ef06e1" x="236.16" y="183.991863" style="fill-opacity: 0; stroke: #000000"/>
     <use xlink:href="#m92a9ef06e1" x="236.16" y="192.864235" style="fill-opacity: 0; stroke: #000000"/>
     <use xlink:href="#m92a9ef06e1" x="236.16" y="190.202523" style="fill-opacity: 0; stroke: #000000"/>
     <use xlink:href="#m92a9ef06e1" x="236.16" y="150.276851" style="fill-opacity: 0; stroke: #000000"/>
     <use xlink:href="#m92a9ef06e1" x="236.16" y="157.374748" style="fill-opacity: 0; stroke: #000000"/>
     <use xlink:href="#m92a9ef06e1" x="236.16" y="196.413183" style="fill-opacity: 0; stroke: #000000"/>
     <use xlink:href="#m92a9ef06e1" x="236.16" y="144.361936" style="fill-opacity: 0; stroke: #000000"/>
     <use xlink:href="#m92a9ef06e1" x="236.16" y="162.993917" style="fill-opacity: 0; stroke: #000000"/>
     <use xlink:href="#m92a9ef06e1" x="236.16" y="181.625897" style="fill-opacity: 0; stroke: #000000"/>
     <use xlink:href="#m92a9ef06e1" x="236.16" y="174.528" style="fill-opacity: 0; stroke: #000000"/>
     <use xlink:href="#m92a9ef06e1" x="236.16" y="174.528" style="fill-opacity: 0; stroke: #000000"/>
     <use xlink:href="#m92a9ef06e1" x="236.16" y="173.936509" style="fill-opacity: 0; stroke: #000000"/>
     <use xlink:href="#m92a9ef06e1" x="236.16" y="182.217389" style="fill-opacity: 0; stroke: #000000"/>
     <use xlink:href="#m92a9ef06e1" x="236.16" y="193.455726" style="fill-opacity: 0; stroke: #000000"/>
     <use xlink:href="#m92a9ef06e1" x="236.16" y="191.681252" style="fill-opacity: 0; stroke: #000000"/>
     <use xlink:href="#m92a9ef06e1" x="236.16" y="168.31734" style="fill-opacity: 0; stroke: #000000"/>
     <use xlink:href="#m92a9ef06e1" x="236.16" y="190.794015" style="fill-opacity: 0; stroke: #000000"/>
     <use xlink:href="#m92a9ef06e1" x="236.16" y="141.404479" style="fill-opacity: 0; stroke: #000000"/>
     <use xlink:href="#m92a9ef06e1" x="236.16" y="166.24712" style="fill-opacity: 0; stroke: #000000"/>
     <use xlink:href="#m92a9ef06e1" x="236.16" y="171.866289" style="fill-opacity: 0; stroke: #000000"/>
     <use xlink:href="#m92a9ef06e1" x="236.16" y="188.132303" style="fill-opacity: 0; stroke: #000000"/>
     <use xlink:href="#m92a9ef06e1" x="236.16" y="184.287609" style="fill-opacity: 0; stroke: #000000"/>
     <use xlink:href="#m92a9ef06e1" x="236.16" y="144.361936" style="fill-opacity: 0; stroke: #000000"/>
     <use xlink:href="#m92a9ef06e1" x="236.16" y="113.604381" style="fill-opacity: 0; stroke: #000000"/>
     <use xlink:href="#m92a9ef06e1" x="236.16" y="170.979051" style="fill-opacity: 0; stroke: #000000"/>
     <use xlink:href="#m92a9ef06e1" x="236.16" y="163.289663" style="fill-opacity: 0; stroke: #000000"/>
     <use xlink:href="#m92a9ef06e1" x="236.16" y="195.2302" style="fill-opacity: 0; stroke: #000000"/>
     <use xlink:href="#m92a9ef06e1" x="236.16" y="188.132303" style="fill-opacity: 0; stroke: #000000"/>
     <use xlink:href="#m92a9ef06e1" x="236.16" y="197.891912" style="fill-opacity: 0; stroke: #000000"/>
     <use xlink:href="#m92a9ef06e1" x="236.16" y="176.893966" style="fill-opacity: 0; stroke: #000000"/>
     <use xlink:href="#m92a9ef06e1" x="236.16" y="170.683306" style="fill-opacity: 0; stroke: #000000"/>
     <use xlink:href="#m92a9ef06e1" x="236.16" y="180.73866" style="fill-opacity: 0; stroke: #000000"/>
     <use xlink:href="#m92a9ef06e1" x="236.16" y="189.315286" style="fill-opacity: 0; stroke: #000000"/>
     <use xlink:href="#m92a9ef06e1" x="236.16" y="197.004675" style="fill-opacity: 0; stroke: #000000"/>
     <use xlink:href="#m92a9ef06e1" x="236.16" y="190.794015" style="fill-opacity: 0; stroke: #000000"/>
     <use xlink:href="#m92a9ef06e1" x="236.16" y="162.698171" style="fill-opacity: 0; stroke: #000000"/>
     <use xlink:href="#m92a9ef06e1" x="236.16" y="183.104626" style="fill-opacity: 0; stroke: #000000"/>
     <use xlink:href="#m92a9ef06e1" x="236.16" y="189.611032" style="fill-opacity: 0; stroke: #000000"/>
     <use xlink:href="#m92a9ef06e1" x="236.16" y="182.217389" style="fill-opacity: 0; stroke: #000000"/>
     <use xlink:href="#m92a9ef06e1" x="236.16" y="197.004675" style="fill-opacity: 0; stroke: #000000"/>
     <use xlink:href="#m92a9ef06e1" x="236.16" y="197.300421" style="fill-opacity: 0; stroke: #000000"/>
     <use xlink:href="#m92a9ef06e1" x="236.16" y="195.821692" style="fill-opacity: 0; stroke: #000000"/>
     <use xlink:href="#m92a9ef06e1" x="236.16" y="157.374748" style="fill-opacity: 0; stroke: #000000"/>
     <use xlink:href="#m92a9ef06e1" x="236.16" y="167.134357" style="fill-opacity: 0; stroke: #000000"/>
     <use xlink:href="#m92a9ef06e1" x="236.16" y="187.245066" style="fill-opacity: 0; stroke: #000000"/>
     <use xlink:href="#m92a9ef06e1" x="236.16" y="191.385506" style="fill-opacity: 0; stroke: #000000"/>
     <use xlink:href="#m92a9ef06e1" x="236.16" y="162.993917" style="fill-opacity: 0; stroke: #000000"/>
     <use xlink:href="#m92a9ef06e1" x="236.16" y="165.655628" style="fill-opacity: 0; stroke: #000000"/>
     <use xlink:href="#m92a9ef06e1" x="236.16" y="173.345017" style="fill-opacity: 0; stroke: #000000"/>
     <use xlink:href="#m92a9ef06e1" x="236.16" y="195.525946" style="fill-opacity: 0; stroke: #000000"/>
     <use xlink:href="#m92a9ef06e1" x="236.16" y="152.347071" style="fill-opacity: 0; stroke: #000000"/>
     <use xlink:href="#m92a9ef06e1" x="236.16" y="169.500323" style="fill-opacity: 0; stroke: #000000"/>
     <use xlink:href="#m92a9ef06e1" x="236.16" y="182.217389" style="fill-opacity: 0; stroke: #000000"/>
     <use xlink:href="#m92a9ef06e1" x="236.16" y="195.821692" style="fill-opacity: 0; stroke: #000000"/>
     <use xlink:href="#m92a9ef06e1" x="236.16" y="171.866289" style="fill-opacity: 0; stroke: #000000"/>
     <use xlink:href="#m92a9ef06e1" x="236.16" y="144.657682" style="fill-opacity: 0; stroke: #000000"/>
     <use xlink:href="#m92a9ef06e1" x="236.16" y="148.206631" style="fill-opacity: 0; stroke: #000000"/>
     <use xlink:href="#m92a9ef06e1" x="236.16" y="155.89602" style="fill-opacity: 0; stroke: #000000"/>
     <use xlink:href="#m92a9ef06e1" x="236.16" y="146.432156" style="fill-opacity: 0; stroke: #000000"/>
     <use xlink:href="#m92a9ef06e1" x="236.16" y="161.810934" style="fill-opacity: 0; stroke: #000000"/>
     <use xlink:href="#m92a9ef06e1" x="236.16" y="155.600274" style="fill-opacity: 0; stroke: #000000"/>
     <use xlink:href="#m92a9ef06e1" x="236.16" y="175.415237" style="fill-opacity: 0; stroke: #000000"/>
     <use xlink:href="#m92a9ef06e1" x="236.16" y="171.274797" style="fill-opacity: 0; stroke: #000000"/>
     <use xlink:href="#m92a9ef06e1" x="236.16" y="152.642817" style="fill-opacity: 0; stroke: #000000"/>
     <use xlink:href="#m92a9ef06e1" x="236.16" y="192.272743" style="fill-opacity: 0; stroke: #000000"/>
     <use xlink:href="#m92a9ef06e1" x="236.16" y="194.342963" style="fill-opacity: 0; stroke: #000000"/>
     <use xlink:href="#m92a9ef06e1" x="236.16" y="169.204577" style="fill-opacity: 0; stroke: #000000"/>
     <use xlink:href="#m92a9ef06e1" x="236.16" y="151.755579" style="fill-opacity: 0; stroke: #000000"/>
     <use xlink:href="#m92a9ef06e1" x="236.16" y="161.810934" style="fill-opacity: 0; stroke: #000000"/>
     <use xlink:href="#m92a9ef06e1" x="236.16" y="169.204577" style="fill-opacity: 0; stroke: #000000"/>
     <use xlink:href="#m92a9ef06e1" x="236.16" y="151.755579" style="fill-opacity: 0; stroke: #000000"/>
     <use xlink:href="#m92a9ef06e1" x="236.16" y="161.810934" style="fill-opacity: 0; stroke: #000000"/>
     <use xlink:href="#m92a9ef06e1" x="236.16" y="193.751472" style="fill-opacity: 0; stroke: #000000"/>
     <use xlink:href="#m92a9ef06e1" x="236.16" y="195.821692" style="fill-opacity: 0; stroke: #000000"/>
     <use xlink:href="#m92a9ef06e1" x="236.16" y="184.583355" style="fill-opacity: 0; stroke: #000000"/>
     <use xlink:href="#m92a9ef06e1" x="236.16" y="176.006729" style="fill-opacity: 0; stroke: #000000"/>
     <use xlink:href="#m92a9ef06e1" x="236.16" y="177.781203" style="fill-opacity: 0; stroke: #000000"/>
     <use xlink:href="#m92a9ef06e1" x="236.16" y="185.766337" style="fill-opacity: 0; stroke: #000000"/>
     <use xlink:href="#m92a9ef06e1" x="236.16" y="194.047218" style="fill-opacity: 0; stroke: #000000"/>
     <use xlink:href="#m92a9ef06e1" x="236.16" y="160.332205" style="fill-opacity: 0; stroke: #000000"/>
     <use xlink:href="#m92a9ef06e1" x="236.16" y="190.794015" style="fill-opacity: 0; stroke: #000000"/>
     <use xlink:href="#m92a9ef06e1" x="236.16" y="156.783257" style="fill-opacity: 0; stroke: #000000"/>
     <use xlink:href="#m92a9ef06e1" x="236.16" y="170.979051" style="fill-opacity: 0; stroke: #000000"/>
     <use xlink:href="#m92a9ef06e1" x="236.16" y="191.385506" style="fill-opacity: 0; stroke: #000000"/>
     <use xlink:href="#m92a9ef06e1" x="236.16" y="152.938562" style="fill-opacity: 0; stroke: #000000"/>
     <use xlink:href="#m92a9ef06e1" x="236.16" y="174.823746" style="fill-opacity: 0; stroke: #000000"/>
     <use xlink:href="#m92a9ef06e1" x="236.16" y="191.681252" style="fill-opacity: 0; stroke: #000000"/>
     <use xlink:href="#m92a9ef06e1" x="236.16" y="194.638709" style="fill-opacity: 0; stroke: #000000"/>
     <use xlink:href="#m92a9ef06e1" x="236.16" y="157.670494" style="fill-opacity: 0; stroke: #000000"/>
     <use xlink:href="#m92a9ef06e1" x="236.16" y="176.302474" style="fill-opacity: 0; stroke: #000000"/>
     <use xlink:href="#m92a9ef06e1" x="236.16" y="156.487511" style="fill-opacity: 0; stroke: #000000"/>
     <use xlink:href="#m92a9ef06e1" x="236.16" y="197.004675" style="fill-opacity: 0; stroke: #000000"/>
     <use xlink:href="#m92a9ef06e1" x="236.16" y="191.681252" style="fill-opacity: 0; stroke: #000000"/>
     <use xlink:href="#m92a9ef06e1" x="236.16" y="173.640763" style="fill-opacity: 0; stroke: #000000"/>
     <use xlink:href="#m92a9ef06e1" x="236.16" y="147.023648" style="fill-opacity: 0; stroke: #000000"/>
     <use xlink:href="#m92a9ef06e1" x="236.16" y="183.991863" style="fill-opacity: 0; stroke: #000000"/>
     <use xlink:href="#m92a9ef06e1" x="236.16" y="192.864235" style="fill-opacity: 0; stroke: #000000"/>
    </g>
   </g>
   <g id="line2d_17">
    <path d="M 209.376 273.011325 
L 262.944 273.011325 
" clip-path="url(#p3a20a81f0f)" style="fill: none; stroke: #ff7f0e"/>
   </g>
   <g id="patch_3">
    <path d="M 57.6 307.584 
L 57.6 41.472 
" style="fill: none; stroke: #000000; stroke-width: 0.8; stroke-linejoin: miter; stroke-linecap: square"/>
   </g>
   <g id="patch_4">
    <path d="M 414.72 307.584 
L 414.72 41.472 
" style="fill: none; stroke: #000000; stroke-width: 0.8; stroke-linejoin: miter; stroke-linecap: square"/>
   </g>
   <g id="patch_5">
    <path d="M 57.6 307.584 
L 414.72 307.584 
" style="fill: none; stroke: #000000; stroke-width: 0.8; stroke-linejoin: miter; stroke-linecap: square"/>
   </g>
   <g id="patch_6">
    <path d="M 57.6 41.472 
L 414.72 41.472 
" style="fill: none; stroke: #000000; stroke-width: 0.8; stroke-linejoin: miter; stroke-linecap: square"/>
   </g>
  </g>
 </g>
 <defs>
  <clipPath id="p3a20a81f0f">
   <rect x="57.6" y="41.472" width="357.12" height="266.112"/>
  </clipPath>
 </defs>
</svg>
