<?xml version="1.0" encoding="utf-8" standalone="no"?>
<!DOCTYPE svg PUBLIC "-//W3C//DTD SVG 1.1//EN"
  "http://www.w3.org/Graphics/SVG/1.1/DTD/svg11.dtd">
<svg xmlns:xlink="http://www.w3.org/1999/xlink" width="460.8pt" height="345.6pt" viewBox="0 0 460.8 345.6" xmlns="http://www.w3.org/2000/svg" version="1.1">
 <metadata>
  <rdf:RDF xmlns:dc="http://purl.org/dc/elements/1.1/" xmlns:cc="http://creativecommons.org/ns#" xmlns:rdf="http://www.w3.org/1999/02/22-rdf-syntax-ns#">
   <cc:Work>
    <dc:type rdf:resource="http://purl.org/dc/dcmitype/StillImage"/>
    <dc:date>2025-01-25T14:04:12.752943</dc:date>
    <dc:format>image/svg+xml</dc:format>
    <dc:creator>
     <cc:Agent>
      <dc:title>Matplotlib v3.10.0, https://matplotlib.org/</dc:title>
     </cc:Agent>
    </dc:creator>
   </cc:Work>
  </rdf:RDF>
 </metadata>
 <defs>
  <style type="text/css">*{stroke-linejoin: round; stroke-linecap: butt}</style>
 </defs>
 <g id="figure_1">
  <g id="patch_1">
   <path d="M 0 345.6 
L 460.8 345.6 
L 460.8 0 
L 0 0 
z
" style="fill: #ffffff"/>
  </g>
  <g id="axes_1">
   <g id="patch_2">
    <path d="M 57.6 307.584 
L 414.72 307.584 
L 414.72 41.472 
L 57.6 41.472 
z
" style="fill: #ffffff"/>
   </g>
   <g id="matplotlib.axis_1">
    <g id="xtick_1">
     <g id="line2d_1">
      <defs>
       <path id="mbb8663825e" d="M 0 0 
L 0 3.5 
" style="stroke: #000000; stroke-width: 0.8"/>
      </defs>
      <g>
       <use xlink:href="#mbb8663825e" x="236.16" y="307.584" style="stroke: #000000; stroke-width: 0.8"/>
      </g>
     </g>
     <g id="text_1">
      <!-- 1 -->
      <g transform="translate(232.97875 322.182437) scale(0.1 -0.1)">
       <defs>
        <path id="DejaVuSans-31" d="M 794 531 
L 1825 531 
L 1825 4091 
L 703 3866 
L 703 4441 
L 1819 4666 
L 2450 4666 
L 2450 531 
L 3481 531 
L 3481 0 
L 794 0 
L 794 531 
z
" transform="scale(0.015625)"/>
       </defs>
       <use xlink:href="#DejaVuSans-31"/>
      </g>
     </g>
    </g>
   </g>
   <g id="matplotlib.axis_2">
    <g id="ytick_1">
     <g id="line2d_2">
      <defs>
       <path id="mfd6f81113e" d="M 0 0 
L -3.5 0 
" style="stroke: #000000; stroke-width: 0.8"/>
      </defs>
      <g>
       <use xlink:href="#mfd6f81113e" x="57.6" y="295.859613" style="stroke: #000000; stroke-width: 0.8"/>
      </g>
     </g>
     <g id="text_2">
      <!-- 0 -->
      <g transform="translate(44.2375 299.658832) scale(0.1 -0.1)">
       <defs>
        <path id="DejaVuSans-30" d="M 2034 4250 
Q 1547 4250 1301 3770 
Q 1056 3291 1056 2328 
Q 1056 1369 1301 889 
Q 1547 409 2034 409 
Q 2525 409 2770 889 
Q 3016 1369 3016 2328 
Q 3016 3291 2770 3770 
Q 2525 4250 2034 4250 
z
M 2034 4750 
Q 2819 4750 3233 4129 
Q 3647 3509 3647 2328 
Q 3647 1150 3233 529 
Q 2819 -91 2034 -91 
Q 1250 -91 836 529 
Q 422 1150 422 2328 
Q 422 3509 836 4129 
Q 1250 4750 2034 4750 
z
" transform="scale(0.015625)"/>
       </defs>
       <use xlink:href="#DejaVuSans-30"/>
      </g>
     </g>
    </g>
    <g id="ytick_2">
     <g id="line2d_3">
      <g>
       <use xlink:href="#mfd6f81113e" x="57.6" y="258.698323" style="stroke: #000000; stroke-width: 0.8"/>
      </g>
     </g>
     <g id="text_3">
      <!-- 100 -->
      <g transform="translate(31.5125 262.497541) scale(0.1 -0.1)">
       <use xlink:href="#DejaVuSans-31"/>
       <use xlink:href="#DejaVuSans-30" transform="translate(63.623047 0)"/>
       <use xlink:href="#DejaVuSans-30" transform="translate(127.246094 0)"/>
      </g>
     </g>
    </g>
    <g id="ytick_3">
     <g id="line2d_4">
      <g>
       <use xlink:href="#mfd6f81113e" x="57.6" y="221.537032" style="stroke: #000000; stroke-width: 0.8"/>
      </g>
     </g>
     <g id="text_4">
      <!-- 200 -->
      <g transform="translate(31.5125 225.336251) scale(0.1 -0.1)">
       <defs>
        <path id="DejaVuSans-32" d="M 1228 531 
L 3431 531 
L 3431 0 
L 469 0 
L 469 531 
Q 828 903 1448 1529 
Q 2069 2156 2228 2338 
Q 2531 2678 2651 2914 
Q 2772 3150 2772 3378 
Q 2772 3750 2511 3984 
Q 2250 4219 1831 4219 
Q 1534 4219 1204 4116 
Q 875 4013 500 3803 
L 500 4441 
Q 881 4594 1212 4672 
Q 1544 4750 1819 4750 
Q 2544 4750 2975 4387 
Q 3406 4025 3406 3419 
Q 3406 3131 3298 2873 
Q 3191 2616 2906 2266 
Q 2828 2175 2409 1742 
Q 1991 1309 1228 531 
z
" transform="scale(0.015625)"/>
       </defs>
       <use xlink:href="#DejaVuSans-32"/>
       <use xlink:href="#DejaVuSans-30" transform="translate(63.623047 0)"/>
       <use xlink:href="#DejaVuSans-30" transform="translate(127.246094 0)"/>
      </g>
     </g>
    </g>
    <g id="ytick_4">
     <g id="line2d_5">
      <g>
       <use xlink:href="#mfd6f81113e" x="57.6" y="184.375742" style="stroke: #000000; stroke-width: 0.8"/>
      </g>
     </g>
     <g id="text_5">
      <!-- 300 -->
      <g transform="translate(31.5125 188.174961) scale(0.1 -0.1)">
       <defs>
        <path id="DejaVuSans-33" d="M 2597 2516 
Q 3050 2419 3304 2112 
Q 3559 1806 3559 1356 
Q 3559 666 3084 287 
Q 2609 -91 1734 -91 
Q 1441 -91 1130 -33 
Q 819 25 488 141 
L 488 750 
Q 750 597 1062 519 
Q 1375 441 1716 441 
Q 2309 441 2620 675 
Q 2931 909 2931 1356 
Q 2931 1769 2642 2001 
Q 2353 2234 1838 2234 
L 1294 2234 
L 1294 2753 
L 1863 2753 
Q 2328 2753 2575 2939 
Q 2822 3125 2822 3475 
Q 2822 3834 2567 4026 
Q 2313 4219 1838 4219 
Q 1578 4219 1281 4162 
Q 984 4106 628 3988 
L 628 4550 
Q 988 4650 1302 4700 
Q 1616 4750 1894 4750 
Q 2613 4750 3031 4423 
Q 3450 4097 3450 3541 
Q 3450 3153 3228 2886 
Q 3006 2619 2597 2516 
z
" transform="scale(0.015625)"/>
       </defs>
       <use xlink:href="#DejaVuSans-33"/>
       <use xlink:href="#DejaVuSans-30" transform="translate(63.623047 0)"/>
       <use xlink:href="#DejaVuSans-30" transform="translate(127.246094 0)"/>
      </g>
     </g>
    </g>
    <g id="ytick_5">
     <g id="line2d_6">
      <g>
       <use xlink:href="#mfd6f81113e" x="57.6" y="147.214452" style="stroke: #000000; stroke-width: 0.8"/>
      </g>
     </g>
     <g id="text_6">
      <!-- 400 -->
      <g transform="translate(31.5125 151.01367) scale(0.1 -0.1)">
       <defs>
        <path id="DejaVuSans-34" d="M 2419 4116 
L 825 1625 
L 2419 1625 
L 2419 4116 
z
M 2253 4666 
L 3047 4666 
L 3047 1625 
L 3713 1625 
L 3713 1100 
L 3047 1100 
L 3047 0 
L 2419 0 
L 2419 1100 
L 313 1100 
L 313 1709 
L 2253 4666 
z
" transform="scale(0.015625)"/>
       </defs>
       <use xlink:href="#DejaVuSans-34"/>
       <use xlink:href="#DejaVuSans-30" transform="translate(63.623047 0)"/>
       <use xlink:href="#DejaVuSans-30" transform="translate(127.246094 0)"/>
      </g>
     </g>
    </g>
    <g id="ytick_6">
     <g id="line2d_7">
      <g>
       <use xlink:href="#mfd6f81113e" x="57.6" y="110.053161" style="stroke: #000000; stroke-width: 0.8"/>
      </g>
     </g>
     <g id="text_7">
      <!-- 500 -->
      <g transform="translate(31.5125 113.85238) scale(0.1 -0.1)">
       <defs>
        <path id="DejaVuSans-35" d="M 691 4666 
L 3169 4666 
L 3169 4134 
L 1269 4134 
L 1269 2991 
Q 1406 3038 1543 3061 
Q 1681 3084 1819 3084 
Q 2600 3084 3056 2656 
Q 3513 2228 3513 1497 
Q 3513 744 3044 326 
Q 2575 -91 1722 -91 
Q 1428 -91 1123 -41 
Q 819 9 494 109 
L 494 744 
Q 775 591 1075 516 
Q 1375 441 1709 441 
Q 2250 441 2565 725 
Q 2881 1009 2881 1497 
Q 2881 1984 2565 2268 
Q 2250 2553 1709 2553 
Q 1456 2553 1204 2497 
Q 953 2441 691 2322 
L 691 4666 
z
" transform="scale(0.015625)"/>
       </defs>
       <use xlink:href="#DejaVuSans-35"/>
       <use xlink:href="#DejaVuSans-30" transform="translate(63.623047 0)"/>
       <use xlink:href="#DejaVuSans-30" transform="translate(127.246094 0)"/>
      </g>
     </g>
    </g>
    <g id="ytick_7">
     <g id="line2d_8">
      <g>
       <use xlink:href="#mfd6f81113e" x="57.6" y="72.891871" style="stroke: #000000; stroke-width: 0.8"/>
      </g>
     </g>
     <g id="text_8">
      <!-- 600 -->
      <g transform="translate(31.5125 76.69109) scale(0.1 -0.1)">
       <defs>
        <path id="DejaVuSans-36" d="M 2113 2584 
Q 1688 2584 1439 2293 
Q 1191 2003 1191 1497 
Q 1191 994 1439 701 
Q 1688 409 2113 409 
Q 2538 409 2786 701 
Q 3034 994 3034 1497 
Q 3034 2003 2786 2293 
Q 2538 2584 2113 2584 
z
M 3366 4563 
L 3366 3988 
Q 3128 4100 2886 4159 
Q 2644 4219 2406 4219 
Q 1781 4219 1451 3797 
Q 1122 3375 1075 2522 
Q 1259 2794 1537 2939 
Q 1816 3084 2150 3084 
Q 2853 3084 3261 2657 
Q 3669 2231 3669 1497 
Q 3669 778 3244 343 
Q 2819 -91 2113 -91 
Q 1303 -91 875 529 
Q 447 1150 447 2328 
Q 447 3434 972 4092 
Q 1497 4750 2381 4750 
Q 2619 4750 2861 4703 
Q 3103 4656 3366 4563 
z
" transform="scale(0.015625)"/>
       </defs>
       <use xlink:href="#DejaVuSans-36"/>
       <use xlink:href="#DejaVuSans-30" transform="translate(63.623047 0)"/>
       <use xlink:href="#DejaVuSans-30" transform="translate(127.246094 0)"/>
      </g>
     </g>
    </g>
   </g>
   <g id="line2d_9">
    <path d="M 209.376 283.968 
L 262.944 283.968 
L 262.944 240.117677 
L 209.376 240.117677 
L 209.376 283.968 
" clip-path="url(#p78839d8b74)" style="fill: none; stroke: #000000; stroke-linecap: square"/>
   </g>
   <g id="line2d_10">
    <path d="M 236.16 283.968 
L 236.16 295.488 
" clip-path="url(#p78839d8b74)" style="fill: none; stroke: #000000; stroke-linecap: square"/>
   </g>
   <g id="line2d_11">
    <path d="M 236.16 240.117677 
L 236.16 174.342194 
" clip-path="url(#p78839d8b74)" style="fill: none; stroke: #000000; stroke-linecap: square"/>
   </g>
   <g id="line2d_12">
    <path d="M 222.768 295.488 
L 249.552 295.488 
" clip-path="url(#p78839d8b74)" style="fill: none; stroke: #000000; stroke-linecap: square"/>
   </g>
   <g id="line2d_13">
    <path d="M 222.768 174.342194 
L 249.552 174.342194 
" clip-path="url(#p78839d8b74)" style="fill: none; stroke: #000000; stroke-linecap: square"/>
   </g>
   <g id="line2d_14">
    <defs>
     <path id="m885d83ea8b" d="M 0 3 
C 0.795609 3 1.55874 2.683901 2.12132 2.12132 
C 2.683901 1.55874 3 0.795609 3 0 
C 3 -0.795609 2.683901 -1.55874 2.12132 -2.12132 
C 1.55874 -2.683901 0.795609 -3 0 -3 
C -0.795609 -3 -1.55874 -2.683901 -2.12132 -2.12132 
C -2.683901 -1.55874 -3 -0.795609 -3 0 
C -3 0.795609 -2.683901 1.55874 -2.12132 2.12132 
C -1.55874 2.683901 -0.795609 3 0 3 
z
" style="stroke: #000000"/>
    </defs>
    <g clip-path="url(#p78839d8b74)">
     <use xlink:href="#m885d83ea8b" x="236.16" y="150.187355" style="fill-opacity: 0; stroke: #000000"/>
     <use xlink:href="#m885d83ea8b" x="236.16" y="155.018323" style="fill-opacity: 0; stroke: #000000"/>
     <use xlink:href="#m885d83ea8b" x="236.16" y="146.471226" style="fill-opacity: 0; stroke: #000000"/>
     <use xlink:href="#m885d83ea8b" x="236.16" y="158.362839" style="fill-opacity: 0; stroke: #000000"/>
     <use xlink:href="#m885d83ea8b" x="236.16" y="171.740903" style="fill-opacity: 0; stroke: #000000"/>
     <use xlink:href="#m885d83ea8b" x="236.16" y="152.788645" style="fill-opacity: 0; stroke: #000000"/>
     <use xlink:href="#m885d83ea8b" x="236.16" y="139.038968" style="fill-opacity: 0; stroke: #000000"/>
     <use xlink:href="#m885d83ea8b" x="236.16" y="53.568" style="fill-opacity: 0; stroke: #000000"/>
     <use xlink:href="#m885d83ea8b" x="236.16" y="168.396387" style="fill-opacity: 0; stroke: #000000"/>
     <use xlink:href="#m885d83ea8b" x="236.16" y="129.005419" style="fill-opacity: 0; stroke: #000000"/>
     <use xlink:href="#m885d83ea8b" x="236.16" y="109.681548" style="fill-opacity: 0; stroke: #000000"/>
     <use xlink:href="#m885d83ea8b" x="236.16" y="168.396387" style="fill-opacity: 0; stroke: #000000"/>
     <use xlink:href="#m885d83ea8b" x="236.16" y="145.356387" style="fill-opacity: 0; stroke: #000000"/>
     <use xlink:href="#m885d83ea8b" x="236.16" y="159.477677" style="fill-opacity: 0; stroke: #000000"/>
     <use xlink:href="#m885d83ea8b" x="236.16" y="144.613161" style="fill-opacity: 0; stroke: #000000"/>
     <use xlink:href="#m885d83ea8b" x="236.16" y="170.626065" style="fill-opacity: 0; stroke: #000000"/>
     <use xlink:href="#m885d83ea8b" x="236.16" y="105.965419" style="fill-opacity: 0; stroke: #000000"/>
     <use xlink:href="#m885d83ea8b" x="236.16" y="166.538323" style="fill-opacity: 0; stroke: #000000"/>
     <use xlink:href="#m885d83ea8b" x="236.16" y="169.882839" style="fill-opacity: 0; stroke: #000000"/>
     <use xlink:href="#m885d83ea8b" x="236.16" y="109.309935" style="fill-opacity: 0; stroke: #000000"/>
     <use xlink:href="#m885d83ea8b" x="236.16" y="153.531871" style="fill-opacity: 0; stroke: #000000"/>
     <use xlink:href="#m885d83ea8b" x="236.16" y="170.997677" style="fill-opacity: 0; stroke: #000000"/>
     <use xlink:href="#m885d83ea8b" x="236.16" y="141.640258" style="fill-opacity: 0; stroke: #000000"/>
     <use xlink:href="#m885d83ea8b" x="236.16" y="136.066065" style="fill-opacity: 0; stroke: #000000"/>
     <use xlink:href="#m885d83ea8b" x="236.16" y="127.890581" style="fill-opacity: 0; stroke: #000000"/>
     <use xlink:href="#m885d83ea8b" x="236.16" y="153.903484" style="fill-opacity: 0; stroke: #000000"/>
     <use xlink:href="#m885d83ea8b" x="236.16" y="127.890581" style="fill-opacity: 0; stroke: #000000"/>
     <use xlink:href="#m885d83ea8b" x="236.16" y="163.193806" style="fill-opacity: 0; stroke: #000000"/>
     <use xlink:href="#m885d83ea8b" x="236.16" y="142.383484" style="fill-opacity: 0; stroke: #000000"/>
     <use xlink:href="#m885d83ea8b" x="236.16" y="108.938323" style="fill-opacity: 0; stroke: #000000"/>
     <use xlink:href="#m885d83ea8b" x="236.16" y="106.708645" style="fill-opacity: 0; stroke: #000000"/>
     <use xlink:href="#m885d83ea8b" x="236.16" y="156.876387" style="fill-opacity: 0; stroke: #000000"/>
     <use xlink:href="#m885d83ea8b" x="236.16" y="171.740903" style="fill-opacity: 0; stroke: #000000"/>
     <use xlink:href="#m885d83ea8b" x="236.16" y="168.024774" style="fill-opacity: 0; stroke: #000000"/>
     <use xlink:href="#m885d83ea8b" x="236.16" y="143.12671" style="fill-opacity: 0; stroke: #000000"/>
     <use xlink:href="#m885d83ea8b" x="236.16" y="128.633806" style="fill-opacity: 0; stroke: #000000"/>
     <use xlink:href="#m885d83ea8b" x="236.16" y="168.768" style="fill-opacity: 0; stroke: #000000"/>
     <use xlink:href="#m885d83ea8b" x="236.16" y="166.16671" style="fill-opacity: 0; stroke: #000000"/>
     <use xlink:href="#m885d83ea8b" x="236.16" y="156.876387" style="fill-opacity: 0; stroke: #000000"/>
     <use xlink:href="#m885d83ea8b" x="236.16" y="166.16671" style="fill-opacity: 0; stroke: #000000"/>
     <use xlink:href="#m885d83ea8b" x="236.16" y="140.525419" style="fill-opacity: 0; stroke: #000000"/>
     <use xlink:href="#m885d83ea8b" x="236.16" y="137.924129" style="fill-opacity: 0; stroke: #000000"/>
     <use xlink:href="#m885d83ea8b" x="236.16" y="170.626065" style="fill-opacity: 0; stroke: #000000"/>
     <use xlink:href="#m885d83ea8b" x="236.16" y="143.498323" style="fill-opacity: 0; stroke: #000000"/>
     <use xlink:href="#m885d83ea8b" x="236.16" y="149.072516" style="fill-opacity: 0; stroke: #000000"/>
     <use xlink:href="#m885d83ea8b" x="236.16" y="165.423484" style="fill-opacity: 0; stroke: #000000"/>
     <use xlink:href="#m885d83ea8b" x="236.16" y="111.168" style="fill-opacity: 0; stroke: #000000"/>
     <use xlink:href="#m885d83ea8b" x="236.16" y="173.598968" style="fill-opacity: 0; stroke: #000000"/>
     <use xlink:href="#m885d83ea8b" x="236.16" y="148.32929" style="fill-opacity: 0; stroke: #000000"/>
     <use xlink:href="#m885d83ea8b" x="236.16" y="148.32929" style="fill-opacity: 0; stroke: #000000"/>
     <use xlink:href="#m885d83ea8b" x="236.16" y="127.890581" style="fill-opacity: 0; stroke: #000000"/>
     <use xlink:href="#m885d83ea8b" x="236.16" y="118.971871" style="fill-opacity: 0; stroke: #000000"/>
     <use xlink:href="#m885d83ea8b" x="236.16" y="105.965419" style="fill-opacity: 0; stroke: #000000"/>
     <use xlink:href="#m885d83ea8b" x="236.16" y="117.485419" style="fill-opacity: 0; stroke: #000000"/>
     <use xlink:href="#m885d83ea8b" x="236.16" y="160.592516" style="fill-opacity: 0; stroke: #000000"/>
     <use xlink:href="#m885d83ea8b" x="236.16" y="147.586065" style="fill-opacity: 0; stroke: #000000"/>
     <use xlink:href="#m885d83ea8b" x="236.16" y="152.788645" style="fill-opacity: 0; stroke: #000000"/>
     <use xlink:href="#m885d83ea8b" x="236.16" y="161.335742" style="fill-opacity: 0; stroke: #000000"/>
     <use xlink:href="#m885d83ea8b" x="236.16" y="155.389935" style="fill-opacity: 0; stroke: #000000"/>
     <use xlink:href="#m885d83ea8b" x="236.16" y="133.464774" style="fill-opacity: 0; stroke: #000000"/>
     <use xlink:href="#m885d83ea8b" x="236.16" y="156.504774" style="fill-opacity: 0; stroke: #000000"/>
     <use xlink:href="#m885d83ea8b" x="236.16" y="146.471226" style="fill-opacity: 0; stroke: #000000"/>
     <use xlink:href="#m885d83ea8b" x="236.16" y="164.680258" style="fill-opacity: 0; stroke: #000000"/>
     <use xlink:href="#m885d83ea8b" x="236.16" y="169.882839" style="fill-opacity: 0; stroke: #000000"/>
     <use xlink:href="#m885d83ea8b" x="236.16" y="138.295742" style="fill-opacity: 0; stroke: #000000"/>
     <use xlink:href="#m885d83ea8b" x="236.16" y="113.026065" style="fill-opacity: 0; stroke: #000000"/>
     <use xlink:href="#m885d83ea8b" x="236.16" y="119.343484" style="fill-opacity: 0; stroke: #000000"/>
     <use xlink:href="#m885d83ea8b" x="236.16" y="139.782194" style="fill-opacity: 0; stroke: #000000"/>
     <use xlink:href="#m885d83ea8b" x="236.16" y="113.026065" style="fill-opacity: 0; stroke: #000000"/>
     <use xlink:href="#m885d83ea8b" x="236.16" y="169.139613" style="fill-opacity: 0; stroke: #000000"/>
     <use xlink:href="#m885d83ea8b" x="236.16" y="156.876387" style="fill-opacity: 0; stroke: #000000"/>
     <use xlink:href="#m885d83ea8b" x="236.16" y="160.592516" style="fill-opacity: 0; stroke: #000000"/>
     <use xlink:href="#m885d83ea8b" x="236.16" y="113.397677" style="fill-opacity: 0; stroke: #000000"/>
     <use xlink:href="#m885d83ea8b" x="236.16" y="115.627355" style="fill-opacity: 0; stroke: #000000"/>
     <use xlink:href="#m885d83ea8b" x="236.16" y="143.869935" style="fill-opacity: 0; stroke: #000000"/>
     <use xlink:href="#m885d83ea8b" x="236.16" y="126.032516" style="fill-opacity: 0; stroke: #000000"/>
     <use xlink:href="#m885d83ea8b" x="236.16" y="164.680258" style="fill-opacity: 0; stroke: #000000"/>
     <use xlink:href="#m885d83ea8b" x="236.16" y="163.193806" style="fill-opacity: 0; stroke: #000000"/>
     <use xlink:href="#m885d83ea8b" x="236.16" y="77.351226" style="fill-opacity: 0; stroke: #000000"/>
     <use xlink:href="#m885d83ea8b" x="236.16" y="106.337032" style="fill-opacity: 0; stroke: #000000"/>
     <use xlink:href="#m885d83ea8b" x="236.16" y="155.018323" style="fill-opacity: 0; stroke: #000000"/>
     <use xlink:href="#m885d83ea8b" x="236.16" y="156.133161" style="fill-opacity: 0; stroke: #000000"/>
     <use xlink:href="#m885d83ea8b" x="236.16" y="127.890581" style="fill-opacity: 0; stroke: #000000"/>
     <use xlink:href="#m885d83ea8b" x="236.16" y="140.525419" style="fill-opacity: 0; stroke: #000000"/>
     <use xlink:href="#m885d83ea8b" x="236.16" y="137.180903" style="fill-opacity: 0; stroke: #000000"/>
     <use xlink:href="#m885d83ea8b" x="236.16" y="115.255742" style="fill-opacity: 0; stroke: #000000"/>
     <use xlink:href="#m885d83ea8b" x="236.16" y="146.099613" style="fill-opacity: 0; stroke: #000000"/>
     <use xlink:href="#m885d83ea8b" x="236.16" y="130.863484" style="fill-opacity: 0; stroke: #000000"/>
     <use xlink:href="#m885d83ea8b" x="236.16" y="146.842839" style="fill-opacity: 0; stroke: #000000"/>
     <use xlink:href="#m885d83ea8b" x="236.16" y="113.76929" style="fill-opacity: 0; stroke: #000000"/>
     <use xlink:href="#m885d83ea8b" x="236.16" y="155.389935" style="fill-opacity: 0; stroke: #000000"/>
     <use xlink:href="#m885d83ea8b" x="236.16" y="147.586065" style="fill-opacity: 0; stroke: #000000"/>
     <use xlink:href="#m885d83ea8b" x="236.16" y="147.957677" style="fill-opacity: 0; stroke: #000000"/>
     <use xlink:href="#m885d83ea8b" x="236.16" y="162.822194" style="fill-opacity: 0; stroke: #000000"/>
     <use xlink:href="#m885d83ea8b" x="236.16" y="144.613161" style="fill-opacity: 0; stroke: #000000"/>
     <use xlink:href="#m885d83ea8b" x="236.16" y="123.059613" style="fill-opacity: 0; stroke: #000000"/>
     <use xlink:href="#m885d83ea8b" x="236.16" y="168.396387" style="fill-opacity: 0; stroke: #000000"/>
     <use xlink:href="#m885d83ea8b" x="236.16" y="155.389935" style="fill-opacity: 0; stroke: #000000"/>
     <use xlink:href="#m885d83ea8b" x="236.16" y="166.538323" style="fill-opacity: 0; stroke: #000000"/>
     <use xlink:href="#m885d83ea8b" x="236.16" y="163.193806" style="fill-opacity: 0; stroke: #000000"/>
     <use xlink:href="#m885d83ea8b" x="236.16" y="113.026065" style="fill-opacity: 0; stroke: #000000"/>
     <use xlink:href="#m885d83ea8b" x="236.16" y="121.944774" style="fill-opacity: 0; stroke: #000000"/>
     <use xlink:href="#m885d83ea8b" x="236.16" y="170.997677" style="fill-opacity: 0; stroke: #000000"/>
     <use xlink:href="#m885d83ea8b" x="236.16" y="105.593806" style="fill-opacity: 0; stroke: #000000"/>
     <use xlink:href="#m885d83ea8b" x="236.16" y="129.005419" style="fill-opacity: 0; stroke: #000000"/>
     <use xlink:href="#m885d83ea8b" x="236.16" y="152.417032" style="fill-opacity: 0; stroke: #000000"/>
     <use xlink:href="#m885d83ea8b" x="236.16" y="143.498323" style="fill-opacity: 0; stroke: #000000"/>
     <use xlink:href="#m885d83ea8b" x="236.16" y="143.498323" style="fill-opacity: 0; stroke: #000000"/>
     <use xlink:href="#m885d83ea8b" x="236.16" y="142.755097" style="fill-opacity: 0; stroke: #000000"/>
     <use xlink:href="#m885d83ea8b" x="236.16" y="153.160258" style="fill-opacity: 0; stroke: #000000"/>
     <use xlink:href="#m885d83ea8b" x="236.16" y="167.281548" style="fill-opacity: 0; stroke: #000000"/>
     <use xlink:href="#m885d83ea8b" x="236.16" y="165.051871" style="fill-opacity: 0; stroke: #000000"/>
     <use xlink:href="#m885d83ea8b" x="236.16" y="135.694452" style="fill-opacity: 0; stroke: #000000"/>
     <use xlink:href="#m885d83ea8b" x="236.16" y="163.937032" style="fill-opacity: 0; stroke: #000000"/>
     <use xlink:href="#m885d83ea8b" x="236.16" y="133.093161" style="fill-opacity: 0; stroke: #000000"/>
     <use xlink:href="#m885d83ea8b" x="236.16" y="140.153806" style="fill-opacity: 0; stroke: #000000"/>
     <use xlink:href="#m885d83ea8b" x="236.16" y="160.592516" style="fill-opacity: 0; stroke: #000000"/>
     <use xlink:href="#m885d83ea8b" x="236.16" y="155.761548" style="fill-opacity: 0; stroke: #000000"/>
     <use xlink:href="#m885d83ea8b" x="236.16" y="105.593806" style="fill-opacity: 0; stroke: #000000"/>
     <use xlink:href="#m885d83ea8b" x="236.16" y="66.946065" style="fill-opacity: 0; stroke: #000000"/>
     <use xlink:href="#m885d83ea8b" x="236.16" y="139.038968" style="fill-opacity: 0; stroke: #000000"/>
     <use xlink:href="#m885d83ea8b" x="236.16" y="129.377032" style="fill-opacity: 0; stroke: #000000"/>
     <use xlink:href="#m885d83ea8b" x="236.16" y="169.511226" style="fill-opacity: 0; stroke: #000000"/>
     <use xlink:href="#m885d83ea8b" x="236.16" y="160.592516" style="fill-opacity: 0; stroke: #000000"/>
     <use xlink:href="#m885d83ea8b" x="236.16" y="172.855742" style="fill-opacity: 0; stroke: #000000"/>
     <use xlink:href="#m885d83ea8b" x="236.16" y="146.471226" style="fill-opacity: 0; stroke: #000000"/>
     <use xlink:href="#m885d83ea8b" x="236.16" y="138.667355" style="fill-opacity: 0; stroke: #000000"/>
     <use xlink:href="#m885d83ea8b" x="236.16" y="151.302194" style="fill-opacity: 0; stroke: #000000"/>
     <use xlink:href="#m885d83ea8b" x="236.16" y="162.078968" style="fill-opacity: 0; stroke: #000000"/>
     <use xlink:href="#m885d83ea8b" x="236.16" y="171.740903" style="fill-opacity: 0; stroke: #000000"/>
     <use xlink:href="#m885d83ea8b" x="236.16" y="163.937032" style="fill-opacity: 0; stroke: #000000"/>
     <use xlink:href="#m885d83ea8b" x="236.16" y="128.633806" style="fill-opacity: 0; stroke: #000000"/>
     <use xlink:href="#m885d83ea8b" x="236.16" y="154.275097" style="fill-opacity: 0; stroke: #000000"/>
     <use xlink:href="#m885d83ea8b" x="236.16" y="162.450581" style="fill-opacity: 0; stroke: #000000"/>
     <use xlink:href="#m885d83ea8b" x="236.16" y="153.160258" style="fill-opacity: 0; stroke: #000000"/>
     <use xlink:href="#m885d83ea8b" x="236.16" y="171.740903" style="fill-opacity: 0; stroke: #000000"/>
     <use xlink:href="#m885d83ea8b" x="236.16" y="172.112516" style="fill-opacity: 0; stroke: #000000"/>
     <use xlink:href="#m885d83ea8b" x="236.16" y="170.254452" style="fill-opacity: 0; stroke: #000000"/>
     <use xlink:href="#m885d83ea8b" x="236.16" y="121.944774" style="fill-opacity: 0; stroke: #000000"/>
     <use xlink:href="#m885d83ea8b" x="236.16" y="134.208" style="fill-opacity: 0; stroke: #000000"/>
     <use xlink:href="#m885d83ea8b" x="236.16" y="159.477677" style="fill-opacity: 0; stroke: #000000"/>
     <use xlink:href="#m885d83ea8b" x="236.16" y="164.680258" style="fill-opacity: 0; stroke: #000000"/>
     <use xlink:href="#m885d83ea8b" x="236.16" y="129.005419" style="fill-opacity: 0; stroke: #000000"/>
     <use xlink:href="#m885d83ea8b" x="236.16" y="132.349935" style="fill-opacity: 0; stroke: #000000"/>
     <use xlink:href="#m885d83ea8b" x="236.16" y="142.011871" style="fill-opacity: 0; stroke: #000000"/>
     <use xlink:href="#m885d83ea8b" x="236.16" y="169.882839" style="fill-opacity: 0; stroke: #000000"/>
     <use xlink:href="#m885d83ea8b" x="236.16" y="115.627355" style="fill-opacity: 0; stroke: #000000"/>
     <use xlink:href="#m885d83ea8b" x="236.16" y="137.180903" style="fill-opacity: 0; stroke: #000000"/>
     <use xlink:href="#m885d83ea8b" x="236.16" y="153.160258" style="fill-opacity: 0; stroke: #000000"/>
     <use xlink:href="#m885d83ea8b" x="236.16" y="170.254452" style="fill-opacity: 0; stroke: #000000"/>
     <use xlink:href="#m885d83ea8b" x="236.16" y="140.153806" style="fill-opacity: 0; stroke: #000000"/>
     <use xlink:href="#m885d83ea8b" x="236.16" y="105.965419" style="fill-opacity: 0; stroke: #000000"/>
     <use xlink:href="#m885d83ea8b" x="236.16" y="110.424774" style="fill-opacity: 0; stroke: #000000"/>
     <use xlink:href="#m885d83ea8b" x="236.16" y="120.08671" style="fill-opacity: 0; stroke: #000000"/>
     <use xlink:href="#m885d83ea8b" x="236.16" y="108.195097" style="fill-opacity: 0; stroke: #000000"/>
     <use xlink:href="#m885d83ea8b" x="236.16" y="127.518968" style="fill-opacity: 0; stroke: #000000"/>
     <use xlink:href="#m885d83ea8b" x="236.16" y="119.715097" style="fill-opacity: 0; stroke: #000000"/>
     <use xlink:href="#m885d83ea8b" x="236.16" y="144.613161" style="fill-opacity: 0; stroke: #000000"/>
     <use xlink:href="#m885d83ea8b" x="236.16" y="139.410581" style="fill-opacity: 0; stroke: #000000"/>
     <use xlink:href="#m885d83ea8b" x="236.16" y="115.998968" style="fill-opacity: 0; stroke: #000000"/>
     <use xlink:href="#m885d83ea8b" x="236.16" y="165.795097" style="fill-opacity: 0; stroke: #000000"/>
     <use xlink:href="#m885d83ea8b" x="236.16" y="168.396387" style="fill-opacity: 0; stroke: #000000"/>
     <use xlink:href="#m885d83ea8b" x="236.16" y="136.80929" style="fill-opacity: 0; stroke: #000000"/>
     <use xlink:href="#m885d83ea8b" x="236.16" y="114.884129" style="fill-opacity: 0; stroke: #000000"/>
     <use xlink:href="#m885d83ea8b" x="236.16" y="127.518968" style="fill-opacity: 0; stroke: #000000"/>
     <use xlink:href="#m885d83ea8b" x="236.16" y="136.80929" style="fill-opacity: 0; stroke: #000000"/>
     <use xlink:href="#m885d83ea8b" x="236.16" y="114.884129" style="fill-opacity: 0; stroke: #000000"/>
     <use xlink:href="#m885d83ea8b" x="236.16" y="127.518968" style="fill-opacity: 0; stroke: #000000"/>
     <use xlink:href="#m885d83ea8b" x="236.16" y="167.653161" style="fill-opacity: 0; stroke: #000000"/>
     <use xlink:href="#m885d83ea8b" x="236.16" y="170.254452" style="fill-opacity: 0; stroke: #000000"/>
     <use xlink:href="#m885d83ea8b" x="236.16" y="156.133161" style="fill-opacity: 0; stroke: #000000"/>
     <use xlink:href="#m885d83ea8b" x="236.16" y="145.356387" style="fill-opacity: 0; stroke: #000000"/>
     <use xlink:href="#m885d83ea8b" x="236.16" y="147.586065" style="fill-opacity: 0; stroke: #000000"/>
     <use xlink:href="#m885d83ea8b" x="236.16" y="157.619613" style="fill-opacity: 0; stroke: #000000"/>
     <use xlink:href="#m885d83ea8b" x="236.16" y="168.024774" style="fill-opacity: 0; stroke: #000000"/>
     <use xlink:href="#m885d83ea8b" x="236.16" y="125.660903" style="fill-opacity: 0; stroke: #000000"/>
     <use xlink:href="#m885d83ea8b" x="236.16" y="163.937032" style="fill-opacity: 0; stroke: #000000"/>
     <use xlink:href="#m885d83ea8b" x="236.16" y="173.598968" style="fill-opacity: 0; stroke: #000000"/>
     <use xlink:href="#m885d83ea8b" x="236.16" y="121.201548" style="fill-opacity: 0; stroke: #000000"/>
     <use xlink:href="#m885d83ea8b" x="236.16" y="139.038968" style="fill-opacity: 0; stroke: #000000"/>
     <use xlink:href="#m885d83ea8b" x="236.16" y="164.680258" style="fill-opacity: 0; stroke: #000000"/>
     <use xlink:href="#m885d83ea8b" x="236.16" y="116.370581" style="fill-opacity: 0; stroke: #000000"/>
     <use xlink:href="#m885d83ea8b" x="236.16" y="143.869935" style="fill-opacity: 0; stroke: #000000"/>
     <use xlink:href="#m885d83ea8b" x="236.16" y="165.051871" style="fill-opacity: 0; stroke: #000000"/>
     <use xlink:href="#m885d83ea8b" x="236.16" y="168.768" style="fill-opacity: 0; stroke: #000000"/>
     <use xlink:href="#m885d83ea8b" x="236.16" y="122.316387" style="fill-opacity: 0; stroke: #000000"/>
     <use xlink:href="#m885d83ea8b" x="236.16" y="173.598968" style="fill-opacity: 0; stroke: #000000"/>
     <use xlink:href="#m885d83ea8b" x="236.16" y="145.728" style="fill-opacity: 0; stroke: #000000"/>
     <use xlink:href="#m885d83ea8b" x="236.16" y="120.829935" style="fill-opacity: 0; stroke: #000000"/>
     <use xlink:href="#m885d83ea8b" x="236.16" y="171.740903" style="fill-opacity: 0; stroke: #000000"/>
     <use xlink:href="#m885d83ea8b" x="236.16" y="165.051871" style="fill-opacity: 0; stroke: #000000"/>
     <use xlink:href="#m885d83ea8b" x="236.16" y="142.383484" style="fill-opacity: 0; stroke: #000000"/>
     <use xlink:href="#m885d83ea8b" x="236.16" y="108.938323" style="fill-opacity: 0; stroke: #000000"/>
     <use xlink:href="#m885d83ea8b" x="236.16" y="155.389935" style="fill-opacity: 0; stroke: #000000"/>
     <use xlink:href="#m885d83ea8b" x="236.16" y="166.538323" style="fill-opacity: 0; stroke: #000000"/>
    </g>
   </g>
   <g id="line2d_15">
    <path d="M 209.376 267.617032 
L 262.944 267.617032 
" clip-path="url(#p78839d8b74)" style="fill: none; stroke: #ff7f0e"/>
   </g>
   <g id="patch_3">
    <path d="M 57.6 307.584 
L 57.6 41.472 
" style="fill: none; stroke: #000000; stroke-width: 0.8; stroke-linejoin: miter; stroke-linecap: square"/>
   </g>
   <g id="patch_4">
    <path d="M 414.72 307.584 
L 414.72 41.472 
" style="fill: none; stroke: #000000; stroke-width: 0.8; stroke-linejoin: miter; stroke-linecap: square"/>
   </g>
   <g id="patch_5">
    <path d="M 57.6 307.584 
L 414.72 307.584 
" style="fill: none; stroke: #000000; stroke-width: 0.8; stroke-linejoin: miter; stroke-linecap: square"/>
   </g>
   <g id="patch_6">
    <path d="M 57.6 41.472 
L 414.72 41.472 
" style="fill: none; stroke: #000000; stroke-width: 0.8; stroke-linejoin: miter; stroke-linecap: square"/>
   </g>
  </g>
 </g>
 <defs>
  <clipPath id="p78839d8b74">
   <rect x="57.6" y="41.472" width="357.12" height="266.112"/>
  </clipPath>
 </defs>
</svg>
