<?xml version="1.0" encoding="utf-8" standalone="no"?>
<!DOCTYPE svg PUBLIC "-//W3C//DTD SVG 1.1//EN"
  "http://www.w3.org/Graphics/SVG/1.1/DTD/svg11.dtd">
<svg xmlns:xlink="http://www.w3.org/1999/xlink" width="460.8pt" height="345.6pt" viewBox="0 0 460.8 345.6" xmlns="http://www.w3.org/2000/svg" version="1.1">
 <metadata>
  <rdf:RDF xmlns:dc="http://purl.org/dc/elements/1.1/" xmlns:cc="http://creativecommons.org/ns#" xmlns:rdf="http://www.w3.org/1999/02/22-rdf-syntax-ns#">
   <cc:Work>
    <dc:type rdf:resource="http://purl.org/dc/dcmitype/StillImage"/>
    <dc:date>2025-01-25T18:18:27.282849</dc:date>
    <dc:format>image/svg+xml</dc:format>
    <dc:creator>
     <cc:Agent>
      <dc:title>Matplotlib v3.10.0, https://matplotlib.org/</dc:title>
     </cc:Agent>
    </dc:creator>
   </cc:Work>
  </rdf:RDF>
 </metadata>
 <defs>
  <style type="text/css">*{stroke-linejoin: round; stroke-linecap: butt}</style>
 </defs>
 <g id="figure_1">
  <g id="patch_1">
   <path d="M 0 345.6 
L 460.8 345.6 
L 460.8 0 
L 0 0 
z
" style="fill: #ffffff"/>
  </g>
  <g id="axes_1">
   <g id="patch_2">
    <path d="M 57.6 307.584 
L 414.72 307.584 
L 414.72 41.472 
L 57.6 41.472 
z
" style="fill: #ffffff"/>
   </g>
   <g id="matplotlib.axis_1">
    <g id="xtick_1">
     <g id="line2d_1">
      <defs>
       <path id="ma3b52b6663" d="M 0 0 
L 0 3.5 
" style="stroke: #000000; stroke-width: 0.8"/>
      </defs>
      <g>
       <use xlink:href="#ma3b52b6663" x="236.16" y="307.584" style="stroke: #000000; stroke-width: 0.8"/>
      </g>
     </g>
     <g id="text_1">
      <!-- 1 -->
      <g transform="translate(232.97875 322.182437) scale(0.1 -0.1)">
       <defs>
        <path id="DejaVuSans-31" d="M 794 531 
L 1825 531 
L 1825 4091 
L 703 3866 
L 703 4441 
L 1819 4666 
L 2450 4666 
L 2450 531 
L 3481 531 
L 3481 0 
L 794 0 
L 794 531 
z
" transform="scale(0.015625)"/>
       </defs>
       <use xlink:href="#DejaVuSans-31"/>
      </g>
     </g>
    </g>
   </g>
   <g id="matplotlib.axis_2">
    <g id="ytick_1">
     <g id="line2d_2">
      <defs>
       <path id="m24ea9eb544" d="M 0 0 
L -3.5 0 
" style="stroke: #000000; stroke-width: 0.8"/>
      </defs>
      <g>
       <use xlink:href="#m24ea9eb544" x="57.6" y="295.961425" style="stroke: #000000; stroke-width: 0.8"/>
      </g>
     </g>
     <g id="text_2">
      <!-- 0 -->
      <g transform="translate(44.2375 299.760643) scale(0.1 -0.1)">
       <defs>
        <path id="DejaVuSans-30" d="M 2034 4250 
Q 1547 4250 1301 3770 
Q 1056 3291 1056 2328 
Q 1056 1369 1301 889 
Q 1547 409 2034 409 
Q 2525 409 2770 889 
Q 3016 1369 3016 2328 
Q 3016 3291 2770 3770 
Q 2525 4250 2034 4250 
z
M 2034 4750 
Q 2819 4750 3233 4129 
Q 3647 3509 3647 2328 
Q 3647 1150 3233 529 
Q 2819 -91 2034 -91 
Q 1250 -91 836 529 
Q 422 1150 422 2328 
Q 422 3509 836 4129 
Q 1250 4750 2034 4750 
z
" transform="scale(0.015625)"/>
       </defs>
       <use xlink:href="#DejaVuSans-30"/>
      </g>
     </g>
    </g>
    <g id="ytick_2">
     <g id="line2d_3">
      <g>
       <use xlink:href="#m24ea9eb544" x="57.6" y="248.618959" style="stroke: #000000; stroke-width: 0.8"/>
      </g>
     </g>
     <g id="text_3">
      <!-- 100 -->
      <g transform="translate(31.5125 252.418178) scale(0.1 -0.1)">
       <use xlink:href="#DejaVuSans-31"/>
       <use xlink:href="#DejaVuSans-30" transform="translate(63.623047 0)"/>
       <use xlink:href="#DejaVuSans-30" transform="translate(127.246094 0)"/>
      </g>
     </g>
    </g>
    <g id="ytick_3">
     <g id="line2d_4">
      <g>
       <use xlink:href="#m24ea9eb544" x="57.6" y="201.276493" style="stroke: #000000; stroke-width: 0.8"/>
      </g>
     </g>
     <g id="text_4">
      <!-- 200 -->
      <g transform="translate(31.5125 205.075712) scale(0.1 -0.1)">
       <defs>
        <path id="DejaVuSans-32" d="M 1228 531 
L 3431 531 
L 3431 0 
L 469 0 
L 469 531 
Q 828 903 1448 1529 
Q 2069 2156 2228 2338 
Q 2531 2678 2651 2914 
Q 2772 3150 2772 3378 
Q 2772 3750 2511 3984 
Q 2250 4219 1831 4219 
Q 1534 4219 1204 4116 
Q 875 4013 500 3803 
L 500 4441 
Q 881 4594 1212 4672 
Q 1544 4750 1819 4750 
Q 2544 4750 2975 4387 
Q 3406 4025 3406 3419 
Q 3406 3131 3298 2873 
Q 3191 2616 2906 2266 
Q 2828 2175 2409 1742 
Q 1991 1309 1228 531 
z
" transform="scale(0.015625)"/>
       </defs>
       <use xlink:href="#DejaVuSans-32"/>
       <use xlink:href="#DejaVuSans-30" transform="translate(63.623047 0)"/>
       <use xlink:href="#DejaVuSans-30" transform="translate(127.246094 0)"/>
      </g>
     </g>
    </g>
    <g id="ytick_4">
     <g id="line2d_5">
      <g>
       <use xlink:href="#m24ea9eb544" x="57.6" y="153.934027" style="stroke: #000000; stroke-width: 0.8"/>
      </g>
     </g>
     <g id="text_5">
      <!-- 300 -->
      <g transform="translate(31.5125 157.733246) scale(0.1 -0.1)">
       <defs>
        <path id="DejaVuSans-33" d="M 2597 2516 
Q 3050 2419 3304 2112 
Q 3559 1806 3559 1356 
Q 3559 666 3084 287 
Q 2609 -91 1734 -91 
Q 1441 -91 1130 -33 
Q 819 25 488 141 
L 488 750 
Q 750 597 1062 519 
Q 1375 441 1716 441 
Q 2309 441 2620 675 
Q 2931 909 2931 1356 
Q 2931 1769 2642 2001 
Q 2353 2234 1838 2234 
L 1294 2234 
L 1294 2753 
L 1863 2753 
Q 2328 2753 2575 2939 
Q 2822 3125 2822 3475 
Q 2822 3834 2567 4026 
Q 2313 4219 1838 4219 
Q 1578 4219 1281 4162 
Q 984 4106 628 3988 
L 628 4550 
Q 988 4650 1302 4700 
Q 1616 4750 1894 4750 
Q 2613 4750 3031 4423 
Q 3450 4097 3450 3541 
Q 3450 3153 3228 2886 
Q 3006 2619 2597 2516 
z
" transform="scale(0.015625)"/>
       </defs>
       <use xlink:href="#DejaVuSans-33"/>
       <use xlink:href="#DejaVuSans-30" transform="translate(63.623047 0)"/>
       <use xlink:href="#DejaVuSans-30" transform="translate(127.246094 0)"/>
      </g>
     </g>
    </g>
    <g id="ytick_5">
     <g id="line2d_6">
      <g>
       <use xlink:href="#m24ea9eb544" x="57.6" y="106.591562" style="stroke: #000000; stroke-width: 0.8"/>
      </g>
     </g>
     <g id="text_6">
      <!-- 400 -->
      <g transform="translate(31.5125 110.39078) scale(0.1 -0.1)">
       <defs>
        <path id="DejaVuSans-34" d="M 2419 4116 
L 825 1625 
L 2419 1625 
L 2419 4116 
z
M 2253 4666 
L 3047 4666 
L 3047 1625 
L 3713 1625 
L 3713 1100 
L 3047 1100 
L 3047 0 
L 2419 0 
L 2419 1100 
L 313 1100 
L 313 1709 
L 2253 4666 
z
" transform="scale(0.015625)"/>
       </defs>
       <use xlink:href="#DejaVuSans-34"/>
       <use xlink:href="#DejaVuSans-30" transform="translate(63.623047 0)"/>
       <use xlink:href="#DejaVuSans-30" transform="translate(127.246094 0)"/>
      </g>
     </g>
    </g>
    <g id="ytick_6">
     <g id="line2d_7">
      <g>
       <use xlink:href="#m24ea9eb544" x="57.6" y="59.249096" style="stroke: #000000; stroke-width: 0.8"/>
      </g>
     </g>
     <g id="text_7">
      <!-- 500 -->
      <g transform="translate(31.5125 63.048315) scale(0.1 -0.1)">
       <defs>
        <path id="DejaVuSans-35" d="M 691 4666 
L 3169 4666 
L 3169 4134 
L 1269 4134 
L 1269 2991 
Q 1406 3038 1543 3061 
Q 1681 3084 1819 3084 
Q 2600 3084 3056 2656 
Q 3513 2228 3513 1497 
Q 3513 744 3044 326 
Q 2575 -91 1722 -91 
Q 1428 -91 1123 -41 
Q 819 9 494 109 
L 494 744 
Q 775 591 1075 516 
Q 1375 441 1709 441 
Q 2250 441 2565 725 
Q 2881 1009 2881 1497 
Q 2881 1984 2565 2268 
Q 2250 2553 1709 2553 
Q 1456 2553 1204 2497 
Q 953 2441 691 2322 
L 691 4666 
z
" transform="scale(0.015625)"/>
       </defs>
       <use xlink:href="#DejaVuSans-35"/>
       <use xlink:href="#DejaVuSans-30" transform="translate(63.623047 0)"/>
       <use xlink:href="#DejaVuSans-30" transform="translate(127.246094 0)"/>
      </g>
     </g>
    </g>
   </g>
   <g id="line2d_8">
    <path d="M 209.376 280.811836 
L 262.944 280.811836 
L 262.944 224.82937 
L 209.376 224.82937 
L 209.376 280.811836 
" clip-path="url(#pc4672f878e)" style="fill: none; stroke: #000000; stroke-linecap: square"/>
   </g>
   <g id="line2d_9">
    <path d="M 236.16 280.811836 
L 236.16 295.488 
" clip-path="url(#pc4672f878e)" style="fill: none; stroke: #000000; stroke-linecap: square"/>
   </g>
   <g id="line2d_10">
    <path d="M 236.16 224.82937 
L 236.16 141.151562 
" clip-path="url(#pc4672f878e)" style="fill: none; stroke: #000000; stroke-linecap: square"/>
   </g>
   <g id="line2d_11">
    <path d="M 222.768 295.488 
L 249.552 295.488 
" clip-path="url(#pc4672f878e)" style="fill: none; stroke: #000000; stroke-linecap: square"/>
   </g>
   <g id="line2d_12">
    <path d="M 222.768 141.151562 
L 249.552 141.151562 
" clip-path="url(#pc4672f878e)" style="fill: none; stroke: #000000; stroke-linecap: square"/>
   </g>
   <g id="line2d_13">
    <defs>
     <path id="m52f1bd1dd8" d="M 0 3 
C 0.795609 3 1.55874 2.683901 2.12132 2.12132 
C 2.683901 1.55874 3 0.795609 3 0 
C 3 -0.795609 2.683901 -1.55874 2.12132 -2.12132 
C 1.55874 -2.683901 0.795609 -3 0 -3 
C -0.795609 -3 -1.55874 -2.683901 -2.12132 -2.12132 
C -2.683901 -1.55874 -3 -0.795609 -3 0 
C -3 0.795609 -2.683901 1.55874 -2.12132 2.12132 
C -1.55874 2.683901 -0.795609 3 0 3 
z
" style="stroke: #000000"/>
    </defs>
    <g clip-path="url(#pc4672f878e)">
     <use xlink:href="#m52f1bd1dd8" x="236.16" y="110.378959" style="fill-opacity: 0; stroke: #000000"/>
     <use xlink:href="#m52f1bd1dd8" x="236.16" y="116.533479" style="fill-opacity: 0; stroke: #000000"/>
     <use xlink:href="#m52f1bd1dd8" x="236.16" y="105.644712" style="fill-opacity: 0; stroke: #000000"/>
     <use xlink:href="#m52f1bd1dd8" x="236.16" y="120.794301" style="fill-opacity: 0; stroke: #000000"/>
     <use xlink:href="#m52f1bd1dd8" x="236.16" y="137.837589" style="fill-opacity: 0; stroke: #000000"/>
     <use xlink:href="#m52f1bd1dd8" x="236.16" y="113.692932" style="fill-opacity: 0; stroke: #000000"/>
     <use xlink:href="#m52f1bd1dd8" x="236.16" y="96.176219" style="fill-opacity: 0; stroke: #000000"/>
     <use xlink:href="#m52f1bd1dd8" x="236.16" y="138.311014" style="fill-opacity: 0; stroke: #000000"/>
     <use xlink:href="#m52f1bd1dd8" x="236.16" y="133.576767" style="fill-opacity: 0; stroke: #000000"/>
     <use xlink:href="#m52f1bd1dd8" x="236.16" y="83.393753" style="fill-opacity: 0; stroke: #000000"/>
     <use xlink:href="#m52f1bd1dd8" x="236.16" y="58.775671" style="fill-opacity: 0; stroke: #000000"/>
     <use xlink:href="#m52f1bd1dd8" x="236.16" y="133.576767" style="fill-opacity: 0; stroke: #000000"/>
     <use xlink:href="#m52f1bd1dd8" x="236.16" y="104.224438" style="fill-opacity: 0; stroke: #000000"/>
     <use xlink:href="#m52f1bd1dd8" x="236.16" y="122.214575" style="fill-opacity: 0; stroke: #000000"/>
     <use xlink:href="#m52f1bd1dd8" x="236.16" y="103.277589" style="fill-opacity: 0; stroke: #000000"/>
     <use xlink:href="#m52f1bd1dd8" x="236.16" y="136.417315" style="fill-opacity: 0; stroke: #000000"/>
     <use xlink:href="#m52f1bd1dd8" x="236.16" y="54.041425" style="fill-opacity: 0; stroke: #000000"/>
     <use xlink:href="#m52f1bd1dd8" x="236.16" y="131.209644" style="fill-opacity: 0; stroke: #000000"/>
     <use xlink:href="#m52f1bd1dd8" x="236.16" y="135.470466" style="fill-opacity: 0; stroke: #000000"/>
     <use xlink:href="#m52f1bd1dd8" x="236.16" y="58.302247" style="fill-opacity: 0; stroke: #000000"/>
     <use xlink:href="#m52f1bd1dd8" x="236.16" y="114.639781" style="fill-opacity: 0; stroke: #000000"/>
     <use xlink:href="#m52f1bd1dd8" x="236.16" y="136.89074" style="fill-opacity: 0; stroke: #000000"/>
     <use xlink:href="#m52f1bd1dd8" x="236.16" y="99.490192" style="fill-opacity: 0; stroke: #000000"/>
     <use xlink:href="#m52f1bd1dd8" x="236.16" y="92.388822" style="fill-opacity: 0; stroke: #000000"/>
     <use xlink:href="#m52f1bd1dd8" x="236.16" y="81.973479" style="fill-opacity: 0; stroke: #000000"/>
     <use xlink:href="#m52f1bd1dd8" x="236.16" y="115.113205" style="fill-opacity: 0; stroke: #000000"/>
     <use xlink:href="#m52f1bd1dd8" x="236.16" y="81.973479" style="fill-opacity: 0; stroke: #000000"/>
     <use xlink:href="#m52f1bd1dd8" x="236.16" y="126.948822" style="fill-opacity: 0; stroke: #000000"/>
     <use xlink:href="#m52f1bd1dd8" x="236.16" y="100.437041" style="fill-opacity: 0; stroke: #000000"/>
     <use xlink:href="#m52f1bd1dd8" x="236.16" y="57.828822" style="fill-opacity: 0; stroke: #000000"/>
     <use xlink:href="#m52f1bd1dd8" x="236.16" y="54.988274" style="fill-opacity: 0; stroke: #000000"/>
     <use xlink:href="#m52f1bd1dd8" x="236.16" y="118.900603" style="fill-opacity: 0; stroke: #000000"/>
     <use xlink:href="#m52f1bd1dd8" x="236.16" y="137.837589" style="fill-opacity: 0; stroke: #000000"/>
     <use xlink:href="#m52f1bd1dd8" x="236.16" y="133.103342" style="fill-opacity: 0; stroke: #000000"/>
     <use xlink:href="#m52f1bd1dd8" x="236.16" y="101.38389" style="fill-opacity: 0; stroke: #000000"/>
     <use xlink:href="#m52f1bd1dd8" x="236.16" y="82.920329" style="fill-opacity: 0; stroke: #000000"/>
     <use xlink:href="#m52f1bd1dd8" x="236.16" y="134.050192" style="fill-opacity: 0; stroke: #000000"/>
     <use xlink:href="#m52f1bd1dd8" x="236.16" y="130.736219" style="fill-opacity: 0; stroke: #000000"/>
     <use xlink:href="#m52f1bd1dd8" x="236.16" y="118.900603" style="fill-opacity: 0; stroke: #000000"/>
     <use xlink:href="#m52f1bd1dd8" x="236.16" y="130.736219" style="fill-opacity: 0; stroke: #000000"/>
     <use xlink:href="#m52f1bd1dd8" x="236.16" y="98.069918" style="fill-opacity: 0; stroke: #000000"/>
     <use xlink:href="#m52f1bd1dd8" x="236.16" y="94.755945" style="fill-opacity: 0; stroke: #000000"/>
     <use xlink:href="#m52f1bd1dd8" x="236.16" y="136.417315" style="fill-opacity: 0; stroke: #000000"/>
     <use xlink:href="#m52f1bd1dd8" x="236.16" y="101.857315" style="fill-opacity: 0; stroke: #000000"/>
     <use xlink:href="#m52f1bd1dd8" x="236.16" y="108.958685" style="fill-opacity: 0; stroke: #000000"/>
     <use xlink:href="#m52f1bd1dd8" x="236.16" y="129.78937" style="fill-opacity: 0; stroke: #000000"/>
     <use xlink:href="#m52f1bd1dd8" x="236.16" y="60.66937" style="fill-opacity: 0; stroke: #000000"/>
     <use xlink:href="#m52f1bd1dd8" x="236.16" y="140.204712" style="fill-opacity: 0; stroke: #000000"/>
     <use xlink:href="#m52f1bd1dd8" x="236.16" y="108.011836" style="fill-opacity: 0; stroke: #000000"/>
     <use xlink:href="#m52f1bd1dd8" x="236.16" y="108.011836" style="fill-opacity: 0; stroke: #000000"/>
     <use xlink:href="#m52f1bd1dd8" x="236.16" y="81.973479" style="fill-opacity: 0; stroke: #000000"/>
     <use xlink:href="#m52f1bd1dd8" x="236.16" y="70.611288" style="fill-opacity: 0; stroke: #000000"/>
     <use xlink:href="#m52f1bd1dd8" x="236.16" y="54.041425" style="fill-opacity: 0; stroke: #000000"/>
     <use xlink:href="#m52f1bd1dd8" x="236.16" y="68.717589" style="fill-opacity: 0; stroke: #000000"/>
     <use xlink:href="#m52f1bd1dd8" x="236.16" y="123.634849" style="fill-opacity: 0; stroke: #000000"/>
     <use xlink:href="#m52f1bd1dd8" x="236.16" y="107.064986" style="fill-opacity: 0; stroke: #000000"/>
     <use xlink:href="#m52f1bd1dd8" x="236.16" y="113.692932" style="fill-opacity: 0; stroke: #000000"/>
     <use xlink:href="#m52f1bd1dd8" x="236.16" y="124.581699" style="fill-opacity: 0; stroke: #000000"/>
     <use xlink:href="#m52f1bd1dd8" x="236.16" y="117.006904" style="fill-opacity: 0; stroke: #000000"/>
     <use xlink:href="#m52f1bd1dd8" x="236.16" y="89.074849" style="fill-opacity: 0; stroke: #000000"/>
     <use xlink:href="#m52f1bd1dd8" x="236.16" y="118.427178" style="fill-opacity: 0; stroke: #000000"/>
     <use xlink:href="#m52f1bd1dd8" x="236.16" y="105.644712" style="fill-opacity: 0; stroke: #000000"/>
     <use xlink:href="#m52f1bd1dd8" x="236.16" y="128.842521" style="fill-opacity: 0; stroke: #000000"/>
     <use xlink:href="#m52f1bd1dd8" x="236.16" y="135.470466" style="fill-opacity: 0; stroke: #000000"/>
     <use xlink:href="#m52f1bd1dd8" x="236.16" y="95.22937" style="fill-opacity: 0; stroke: #000000"/>
     <use xlink:href="#m52f1bd1dd8" x="236.16" y="63.036493" style="fill-opacity: 0; stroke: #000000"/>
     <use xlink:href="#m52f1bd1dd8" x="236.16" y="71.084712" style="fill-opacity: 0; stroke: #000000"/>
     <use xlink:href="#m52f1bd1dd8" x="236.16" y="97.123068" style="fill-opacity: 0; stroke: #000000"/>
     <use xlink:href="#m52f1bd1dd8" x="236.16" y="63.036493" style="fill-opacity: 0; stroke: #000000"/>
     <use xlink:href="#m52f1bd1dd8" x="236.16" y="134.523616" style="fill-opacity: 0; stroke: #000000"/>
     <use xlink:href="#m52f1bd1dd8" x="236.16" y="118.900603" style="fill-opacity: 0; stroke: #000000"/>
     <use xlink:href="#m52f1bd1dd8" x="236.16" y="123.634849" style="fill-opacity: 0; stroke: #000000"/>
     <use xlink:href="#m52f1bd1dd8" x="236.16" y="63.509918" style="fill-opacity: 0; stroke: #000000"/>
     <use xlink:href="#m52f1bd1dd8" x="236.16" y="66.350466" style="fill-opacity: 0; stroke: #000000"/>
     <use xlink:href="#m52f1bd1dd8" x="236.16" y="102.33074" style="fill-opacity: 0; stroke: #000000"/>
     <use xlink:href="#m52f1bd1dd8" x="236.16" y="79.606356" style="fill-opacity: 0; stroke: #000000"/>
     <use xlink:href="#m52f1bd1dd8" x="236.16" y="128.842521" style="fill-opacity: 0; stroke: #000000"/>
     <use xlink:href="#m52f1bd1dd8" x="236.16" y="126.948822" style="fill-opacity: 0; stroke: #000000"/>
     <use xlink:href="#m52f1bd1dd8" x="236.16" y="54.514849" style="fill-opacity: 0; stroke: #000000"/>
     <use xlink:href="#m52f1bd1dd8" x="236.16" y="116.533479" style="fill-opacity: 0; stroke: #000000"/>
     <use xlink:href="#m52f1bd1dd8" x="236.16" y="117.953753" style="fill-opacity: 0; stroke: #000000"/>
     <use xlink:href="#m52f1bd1dd8" x="236.16" y="81.973479" style="fill-opacity: 0; stroke: #000000"/>
     <use xlink:href="#m52f1bd1dd8" x="236.16" y="98.069918" style="fill-opacity: 0; stroke: #000000"/>
     <use xlink:href="#m52f1bd1dd8" x="236.16" y="93.809096" style="fill-opacity: 0; stroke: #000000"/>
     <use xlink:href="#m52f1bd1dd8" x="236.16" y="65.877041" style="fill-opacity: 0; stroke: #000000"/>
     <use xlink:href="#m52f1bd1dd8" x="236.16" y="105.171288" style="fill-opacity: 0; stroke: #000000"/>
     <use xlink:href="#m52f1bd1dd8" x="236.16" y="85.760877" style="fill-opacity: 0; stroke: #000000"/>
     <use xlink:href="#m52f1bd1dd8" x="236.16" y="106.118137" style="fill-opacity: 0; stroke: #000000"/>
     <use xlink:href="#m52f1bd1dd8" x="236.16" y="63.983342" style="fill-opacity: 0; stroke: #000000"/>
     <use xlink:href="#m52f1bd1dd8" x="236.16" y="117.006904" style="fill-opacity: 0; stroke: #000000"/>
     <use xlink:href="#m52f1bd1dd8" x="236.16" y="107.064986" style="fill-opacity: 0; stroke: #000000"/>
     <use xlink:href="#m52f1bd1dd8" x="236.16" y="107.538411" style="fill-opacity: 0; stroke: #000000"/>
     <use xlink:href="#m52f1bd1dd8" x="236.16" y="126.475397" style="fill-opacity: 0; stroke: #000000"/>
     <use xlink:href="#m52f1bd1dd8" x="236.16" y="103.277589" style="fill-opacity: 0; stroke: #000000"/>
     <use xlink:href="#m52f1bd1dd8" x="236.16" y="75.818959" style="fill-opacity: 0; stroke: #000000"/>
     <use xlink:href="#m52f1bd1dd8" x="236.16" y="133.576767" style="fill-opacity: 0; stroke: #000000"/>
     <use xlink:href="#m52f1bd1dd8" x="236.16" y="117.006904" style="fill-opacity: 0; stroke: #000000"/>
     <use xlink:href="#m52f1bd1dd8" x="236.16" y="131.209644" style="fill-opacity: 0; stroke: #000000"/>
     <use xlink:href="#m52f1bd1dd8" x="236.16" y="126.948822" style="fill-opacity: 0; stroke: #000000"/>
     <use xlink:href="#m52f1bd1dd8" x="236.16" y="63.036493" style="fill-opacity: 0; stroke: #000000"/>
     <use xlink:href="#m52f1bd1dd8" x="236.16" y="74.398685" style="fill-opacity: 0; stroke: #000000"/>
     <use xlink:href="#m52f1bd1dd8" x="236.16" y="136.89074" style="fill-opacity: 0; stroke: #000000"/>
     <use xlink:href="#m52f1bd1dd8" x="236.16" y="53.568" style="fill-opacity: 0; stroke: #000000"/>
     <use xlink:href="#m52f1bd1dd8" x="236.16" y="83.393753" style="fill-opacity: 0; stroke: #000000"/>
     <use xlink:href="#m52f1bd1dd8" x="236.16" y="113.219507" style="fill-opacity: 0; stroke: #000000"/>
     <use xlink:href="#m52f1bd1dd8" x="236.16" y="101.857315" style="fill-opacity: 0; stroke: #000000"/>
     <use xlink:href="#m52f1bd1dd8" x="236.16" y="101.857315" style="fill-opacity: 0; stroke: #000000"/>
     <use xlink:href="#m52f1bd1dd8" x="236.16" y="100.910466" style="fill-opacity: 0; stroke: #000000"/>
     <use xlink:href="#m52f1bd1dd8" x="236.16" y="114.166356" style="fill-opacity: 0; stroke: #000000"/>
     <use xlink:href="#m52f1bd1dd8" x="236.16" y="132.156493" style="fill-opacity: 0; stroke: #000000"/>
     <use xlink:href="#m52f1bd1dd8" x="236.16" y="129.315945" style="fill-opacity: 0; stroke: #000000"/>
     <use xlink:href="#m52f1bd1dd8" x="236.16" y="91.915397" style="fill-opacity: 0; stroke: #000000"/>
     <use xlink:href="#m52f1bd1dd8" x="236.16" y="127.895671" style="fill-opacity: 0; stroke: #000000"/>
     <use xlink:href="#m52f1bd1dd8" x="236.16" y="88.601425" style="fill-opacity: 0; stroke: #000000"/>
     <use xlink:href="#m52f1bd1dd8" x="236.16" y="97.596493" style="fill-opacity: 0; stroke: #000000"/>
     <use xlink:href="#m52f1bd1dd8" x="236.16" y="123.634849" style="fill-opacity: 0; stroke: #000000"/>
     <use xlink:href="#m52f1bd1dd8" x="236.16" y="117.480329" style="fill-opacity: 0; stroke: #000000"/>
     <use xlink:href="#m52f1bd1dd8" x="236.16" y="53.568" style="fill-opacity: 0; stroke: #000000"/>
     <use xlink:href="#m52f1bd1dd8" x="236.16" y="96.176219" style="fill-opacity: 0; stroke: #000000"/>
     <use xlink:href="#m52f1bd1dd8" x="236.16" y="83.867178" style="fill-opacity: 0; stroke: #000000"/>
     <use xlink:href="#m52f1bd1dd8" x="236.16" y="134.997041" style="fill-opacity: 0; stroke: #000000"/>
     <use xlink:href="#m52f1bd1dd8" x="236.16" y="123.634849" style="fill-opacity: 0; stroke: #000000"/>
     <use xlink:href="#m52f1bd1dd8" x="236.16" y="139.257863" style="fill-opacity: 0; stroke: #000000"/>
     <use xlink:href="#m52f1bd1dd8" x="236.16" y="105.644712" style="fill-opacity: 0; stroke: #000000"/>
     <use xlink:href="#m52f1bd1dd8" x="236.16" y="95.702795" style="fill-opacity: 0; stroke: #000000"/>
     <use xlink:href="#m52f1bd1dd8" x="236.16" y="111.799233" style="fill-opacity: 0; stroke: #000000"/>
     <use xlink:href="#m52f1bd1dd8" x="236.16" y="125.528548" style="fill-opacity: 0; stroke: #000000"/>
     <use xlink:href="#m52f1bd1dd8" x="236.16" y="137.837589" style="fill-opacity: 0; stroke: #000000"/>
     <use xlink:href="#m52f1bd1dd8" x="236.16" y="127.895671" style="fill-opacity: 0; stroke: #000000"/>
     <use xlink:href="#m52f1bd1dd8" x="236.16" y="82.920329" style="fill-opacity: 0; stroke: #000000"/>
     <use xlink:href="#m52f1bd1dd8" x="236.16" y="115.58663" style="fill-opacity: 0; stroke: #000000"/>
     <use xlink:href="#m52f1bd1dd8" x="236.16" y="126.001973" style="fill-opacity: 0; stroke: #000000"/>
     <use xlink:href="#m52f1bd1dd8" x="236.16" y="114.166356" style="fill-opacity: 0; stroke: #000000"/>
     <use xlink:href="#m52f1bd1dd8" x="236.16" y="137.837589" style="fill-opacity: 0; stroke: #000000"/>
     <use xlink:href="#m52f1bd1dd8" x="236.16" y="138.311014" style="fill-opacity: 0; stroke: #000000"/>
     <use xlink:href="#m52f1bd1dd8" x="236.16" y="135.94389" style="fill-opacity: 0; stroke: #000000"/>
     <use xlink:href="#m52f1bd1dd8" x="236.16" y="74.398685" style="fill-opacity: 0; stroke: #000000"/>
     <use xlink:href="#m52f1bd1dd8" x="236.16" y="90.021699" style="fill-opacity: 0; stroke: #000000"/>
     <use xlink:href="#m52f1bd1dd8" x="236.16" y="122.214575" style="fill-opacity: 0; stroke: #000000"/>
     <use xlink:href="#m52f1bd1dd8" x="236.16" y="128.842521" style="fill-opacity: 0; stroke: #000000"/>
     <use xlink:href="#m52f1bd1dd8" x="236.16" y="83.393753" style="fill-opacity: 0; stroke: #000000"/>
     <use xlink:href="#m52f1bd1dd8" x="236.16" y="87.654575" style="fill-opacity: 0; stroke: #000000"/>
     <use xlink:href="#m52f1bd1dd8" x="236.16" y="99.963616" style="fill-opacity: 0; stroke: #000000"/>
     <use xlink:href="#m52f1bd1dd8" x="236.16" y="135.470466" style="fill-opacity: 0; stroke: #000000"/>
     <use xlink:href="#m52f1bd1dd8" x="236.16" y="66.350466" style="fill-opacity: 0; stroke: #000000"/>
     <use xlink:href="#m52f1bd1dd8" x="236.16" y="93.809096" style="fill-opacity: 0; stroke: #000000"/>
     <use xlink:href="#m52f1bd1dd8" x="236.16" y="114.166356" style="fill-opacity: 0; stroke: #000000"/>
     <use xlink:href="#m52f1bd1dd8" x="236.16" y="135.94389" style="fill-opacity: 0; stroke: #000000"/>
     <use xlink:href="#m52f1bd1dd8" x="236.16" y="97.596493" style="fill-opacity: 0; stroke: #000000"/>
     <use xlink:href="#m52f1bd1dd8" x="236.16" y="54.041425" style="fill-opacity: 0; stroke: #000000"/>
     <use xlink:href="#m52f1bd1dd8" x="236.16" y="59.722521" style="fill-opacity: 0; stroke: #000000"/>
     <use xlink:href="#m52f1bd1dd8" x="236.16" y="72.031562" style="fill-opacity: 0; stroke: #000000"/>
     <use xlink:href="#m52f1bd1dd8" x="236.16" y="56.881973" style="fill-opacity: 0; stroke: #000000"/>
     <use xlink:href="#m52f1bd1dd8" x="236.16" y="81.500055" style="fill-opacity: 0; stroke: #000000"/>
     <use xlink:href="#m52f1bd1dd8" x="236.16" y="71.558137" style="fill-opacity: 0; stroke: #000000"/>
     <use xlink:href="#m52f1bd1dd8" x="236.16" y="103.277589" style="fill-opacity: 0; stroke: #000000"/>
     <use xlink:href="#m52f1bd1dd8" x="236.16" y="96.649644" style="fill-opacity: 0; stroke: #000000"/>
     <use xlink:href="#m52f1bd1dd8" x="236.16" y="66.82389" style="fill-opacity: 0; stroke: #000000"/>
     <use xlink:href="#m52f1bd1dd8" x="236.16" y="130.262795" style="fill-opacity: 0; stroke: #000000"/>
     <use xlink:href="#m52f1bd1dd8" x="236.16" y="133.576767" style="fill-opacity: 0; stroke: #000000"/>
     <use xlink:href="#m52f1bd1dd8" x="236.16" y="93.335671" style="fill-opacity: 0; stroke: #000000"/>
     <use xlink:href="#m52f1bd1dd8" x="236.16" y="65.403616" style="fill-opacity: 0; stroke: #000000"/>
     <use xlink:href="#m52f1bd1dd8" x="236.16" y="81.500055" style="fill-opacity: 0; stroke: #000000"/>
     <use xlink:href="#m52f1bd1dd8" x="236.16" y="93.335671" style="fill-opacity: 0; stroke: #000000"/>
     <use xlink:href="#m52f1bd1dd8" x="236.16" y="65.403616" style="fill-opacity: 0; stroke: #000000"/>
     <use xlink:href="#m52f1bd1dd8" x="236.16" y="81.500055" style="fill-opacity: 0; stroke: #000000"/>
     <use xlink:href="#m52f1bd1dd8" x="236.16" y="132.629918" style="fill-opacity: 0; stroke: #000000"/>
     <use xlink:href="#m52f1bd1dd8" x="236.16" y="135.94389" style="fill-opacity: 0; stroke: #000000"/>
     <use xlink:href="#m52f1bd1dd8" x="236.16" y="117.953753" style="fill-opacity: 0; stroke: #000000"/>
     <use xlink:href="#m52f1bd1dd8" x="236.16" y="104.224438" style="fill-opacity: 0; stroke: #000000"/>
     <use xlink:href="#m52f1bd1dd8" x="236.16" y="107.064986" style="fill-opacity: 0; stroke: #000000"/>
     <use xlink:href="#m52f1bd1dd8" x="236.16" y="119.847452" style="fill-opacity: 0; stroke: #000000"/>
     <use xlink:href="#m52f1bd1dd8" x="236.16" y="133.103342" style="fill-opacity: 0; stroke: #000000"/>
     <use xlink:href="#m52f1bd1dd8" x="236.16" y="79.132932" style="fill-opacity: 0; stroke: #000000"/>
     <use xlink:href="#m52f1bd1dd8" x="236.16" y="127.895671" style="fill-opacity: 0; stroke: #000000"/>
     <use xlink:href="#m52f1bd1dd8" x="236.16" y="140.204712" style="fill-opacity: 0; stroke: #000000"/>
     <use xlink:href="#m52f1bd1dd8" x="236.16" y="73.451836" style="fill-opacity: 0; stroke: #000000"/>
     <use xlink:href="#m52f1bd1dd8" x="236.16" y="96.176219" style="fill-opacity: 0; stroke: #000000"/>
     <use xlink:href="#m52f1bd1dd8" x="236.16" y="128.842521" style="fill-opacity: 0; stroke: #000000"/>
     <use xlink:href="#m52f1bd1dd8" x="236.16" y="67.297315" style="fill-opacity: 0; stroke: #000000"/>
     <use xlink:href="#m52f1bd1dd8" x="236.16" y="102.33074" style="fill-opacity: 0; stroke: #000000"/>
     <use xlink:href="#m52f1bd1dd8" x="236.16" y="129.315945" style="fill-opacity: 0; stroke: #000000"/>
     <use xlink:href="#m52f1bd1dd8" x="236.16" y="134.050192" style="fill-opacity: 0; stroke: #000000"/>
     <use xlink:href="#m52f1bd1dd8" x="236.16" y="74.87211" style="fill-opacity: 0; stroke: #000000"/>
     <use xlink:href="#m52f1bd1dd8" x="236.16" y="140.204712" style="fill-opacity: 0; stroke: #000000"/>
     <use xlink:href="#m52f1bd1dd8" x="236.16" y="104.697863" style="fill-opacity: 0; stroke: #000000"/>
     <use xlink:href="#m52f1bd1dd8" x="236.16" y="72.978411" style="fill-opacity: 0; stroke: #000000"/>
     <use xlink:href="#m52f1bd1dd8" x="236.16" y="137.837589" style="fill-opacity: 0; stroke: #000000"/>
     <use xlink:href="#m52f1bd1dd8" x="236.16" y="129.315945" style="fill-opacity: 0; stroke: #000000"/>
     <use xlink:href="#m52f1bd1dd8" x="236.16" y="100.437041" style="fill-opacity: 0; stroke: #000000"/>
     <use xlink:href="#m52f1bd1dd8" x="236.16" y="57.828822" style="fill-opacity: 0; stroke: #000000"/>
     <use xlink:href="#m52f1bd1dd8" x="236.16" y="117.006904" style="fill-opacity: 0; stroke: #000000"/>
     <use xlink:href="#m52f1bd1dd8" x="236.16" y="131.209644" style="fill-opacity: 0; stroke: #000000"/>
    </g>
   </g>
   <g id="line2d_14">
    <path d="M 209.376 259.981151 
L 262.944 259.981151 
" clip-path="url(#pc4672f878e)" style="fill: none; stroke: #ff7f0e"/>
   </g>
   <g id="patch_3">
    <path d="M 57.6 307.584 
L 57.6 41.472 
" style="fill: none; stroke: #000000; stroke-width: 0.8; stroke-linejoin: miter; stroke-linecap: square"/>
   </g>
   <g id="patch_4">
    <path d="M 414.72 307.584 
L 414.72 41.472 
" style="fill: none; stroke: #000000; stroke-width: 0.8; stroke-linejoin: miter; stroke-linecap: square"/>
   </g>
   <g id="patch_5">
    <path d="M 57.6 307.584 
L 414.72 307.584 
" style="fill: none; stroke: #000000; stroke-width: 0.8; stroke-linejoin: miter; stroke-linecap: square"/>
   </g>
   <g id="patch_6">
    <path d="M 57.6 41.472 
L 414.72 41.472 
" style="fill: none; stroke: #000000; stroke-width: 0.8; stroke-linejoin: miter; stroke-linecap: square"/>
   </g>
  </g>
 </g>
 <defs>
  <clipPath id="pc4672f878e">
   <rect x="57.6" y="41.472" width="357.12" height="266.112"/>
  </clipPath>
 </defs>
</svg>
